SplineFontDB: 3.0
FontName: Pro-BoldCond
FullName: Pro Bold Condensed
FamilyName: Pro
Weight: Bold
Copyright: 
Version: 0.001
ItalicAngle: 0
UnderlinePosition: -100
UnderlineWidth: 50
Ascent: 750
Descent: 250
InvalidEm: 0
sfntRevision: 0x00000048
LayerCount: 2
Layer: 0 0 "+BBcEMAQ0BD0EOAQ5 +BD8EOwQwBD0A" 1
Layer: 1 0 "+BB8ENQRABDUENAQ9BDgEOQAA +BD8EOwQwBD0A" 0
XUID: [1021 157 1657886286 16364]
BaseHoriz: 2 'ideo' 'romn'
BaseScript: 'DFLT' 1  -163 0
BaseScript: 'cyrl' 1  -163 0
BaseScript: 'grek' 1  -163 0
BaseScript: 'latn' 1  -163 0
StyleMap: 0x0020
FSType: 8
OS2Version: 4
OS2_WeightWidthSlopeOnly: 1
OS2_UseTypoMetrics: 1
CreationTime: 1300968463
ModificationTime: 1551205197
PfmFamily: 17
TTFWeight: 700
TTFWidth: 3
LineGap: 200
VLineGap: 0
Panose: 2 11 7 6 3 4 3 2 2 4
OS2TypoAscent: 750
OS2TypoAOffset: 0
OS2TypoDescent: -250
OS2TypoDOffset: 0
OS2TypoLinegap: 200
OS2WinAscent: 958
OS2WinAOffset: 0
OS2WinDescent: 250
OS2WinDOffset: 0
HheadAscent: 750
HheadAOffset: 0
HheadDescent: -250
HheadDOffset: 0
OS2SubXSize: 650
OS2SubYSize: 600
OS2SubXOff: 0
OS2SubYOff: 75
OS2SupXSize: 650
OS2SupYSize: 600
OS2SupXOff: 0
OS2SupYOff: 350
OS2StrikeYSize: 50
OS2StrikeYPos: 290
OS2CapHeight: 674
OS2XHeight: 484
OS2Vendor: '    '
OS2CodePages: 2000019f.00000000
OS2UnicodeRanges: 20000287.00000001.00000000.00000000
Lookup: 1 0 0 "'aalt' +BBIEQQQ1 +BDAEOwRMBEIENQRABD0EMARCBDgEMgQ9BEsENQAA +BDIEMARABDgEMAQ9BEIESwAA lookup 0" { "'aalt' +BBIEQQQ1 +BDAEOwRMBEIENQRABD0EMARCBDgEMgQ9BEsENQAA +BDIEMARABDgEMAQ9BEIESwAA lookup 0 subtable"  } ['aalt' ('DFLT' <'dflt' > 'cyrl' <'dflt' > 'grek' <'dflt' > 'latn' <'AZE ' 'CRT ' 'MOL ' 'ROM ' 'TRK ' 'dflt' > ) ]
Lookup: 3 0 0 "'aalt' +BBIEQQQ1 +BDAEOwRMBEIENQRABD0EMARCBDgEMgQ9BEsENQAA +BDIEMARABDgEMAQ9BEIESwAA lookup 1" { "'aalt' +BBIEQQQ1 +BDAEOwRMBEIENQRABD0EMARCBDgEMgQ9BEsENQAA +BDIEMARABDgEMAQ9BEIESwAA lookup 1 subtable"  } ['aalt' ('DFLT' <'dflt' > 'cyrl' <'dflt' > 'grek' <'dflt' > 'latn' <'AZE ' 'CRT ' 'MOL ' 'ROM ' 'TRK ' 'dflt' > ) ]

StartChar: .notdef
Encoding: 65536 -1 0
Width: 500
Flags: MW
HStem: 0 50<80 420 80 500> 650 50<80 420 80 80>
VStem: 0 50<95 605 95 700> 450 50<95 605 605 605>
LayerCount: 2
Fore
SplineSet
0 0 m 1
 0 700 l 1
 500 700 l 1
 500 0 l 1
 0 0 l 1
250 395 m 1
 420 650 l 1
 80 650 l 1
 250 395 l 1
280 350 m 1
 450 95 l 1
 450 605 l 1
 280 350 l 1
80 50 m 1
 420 50 l 1
 250 305 l 1
 80 50 l 1
50 605 m 1
 50 95 l 1
 220 350 l 1
 50 605 l 1
EndSplineSet
EndChar

StartChar: exclam
Encoding: 33 33 2
Width: 256
Flags: HMW
HStem: -8 161<118 159.5 118 161.5> 654 20G<67 210 210 210>
VStem: 63 150<49 96.5> 74.5 127.5
LayerCount: 2
Fore
SplineSet
76 145 m 1xc0
 207 140 l 1
 207 -19 l 1
 66 -14 l 1
 76 145 l 1xc0
204 219 m 1
 82 219 l 1
 67 674 l 1
 210 674 l 1
 204 219 l 1
EndSplineSet
EndChar

StartChar: quotedbl
Encoding: 34 34 3
Width: 331
Flags: HMW
HStem: 422 260<53 118 53 53 214 214 214 278>
VStem: 33 266<682 682>
LayerCount: 2
Fore
SplineSet
33 682 m 1
 148 686 l 5
 141 436 l 5
 46 432 l 1
 33 682 l 1
193 695 m 1
 299 692 l 1
 285 422 l 1
 201 425 l 1
 193 695 l 1
EndSplineSet
EndChar

StartChar: numbersign
Encoding: 35 35 4
Width: 426
Flags: HMW
HStem: 0 21G<62 137 62 62 207 207 207 282> 195 75<15 87 15 97 15 161 171 232 316 391> 385 75<36 111 36 121 195 256 36 185 340 411> 630 20G<144 218 218 218 290 364 364 364>
VStem: 15 396<195 460 270 460>
LayerCount: 2
Fore
SplineSet
171 270 m 1
 242 270 l 1
 256.016601562 385.450195312 l 1
 183.1640625 390.021484375 l 1
 171 270 l 1
136 -8 m 1
 63.7822265625 -1.66015625 l 1
 82.4384765625 194.048828125 l 1
 15 195 l 1
 15 270 l 1
 89.998046875 269.333984375 l 1
 100.580078125 395.20703125 l 1
 34.47265625 399.614257812 l 1
 39.3017578125 474.458984375 l 1
 107.970703125 470.848632812 l 1
 126 657 l 5
 218 650 l 1
 197.971679688 464.22265625 l 1
 265.82421875 460.651367188 l 1
 290 650 l 1
 381 641 l 1
 352.8125 454.00390625 l 1
 413.5234375 450.315429688 l 1
 408.6953125 375.471679688 l 1
 338.360351562 380.279296875 l 1
 321.409179688 270.813476562 l 1
 391 270 l 1
 391 195 l 1
 309.73828125 196.182617188 l 1
 276.793945312 2.19921875 l 1
 208 10 l 1
 232 195 l 1
 161 195 l 1
 136 -8 l 1
EndSplineSet
Substitution2: "'onum' Oldstyle Figures lookup 14 subtable" numbersign.taboldstyle
Substitution2: "'aalt' +BBIEQQQ1 +BDAEOwRMBEIENQRABD0EMARCBDgEMgQ9BEsENQAA +BDIEMARABDgEMAQ9BEIESwAA lookup 0 subtable" numbersign.taboldstyle
EndChar

StartChar: dollar
Encoding: 36 36 5
Width: 426
Flags: HMW
HStem: -85 203<162 203 158.5 247 162 162> 533 192<227.5 261 176 271.5>
VStem: 56 123<454 488 454 497.5> 162 85<-85 17 17 17> 176 85<633 725 633 725 633 725> 253 122<165 204.5>
LayerCount: 2
Fore
SplineSet
252 -80 m 1xd0
 167 -85 l 1
 162 17 l 1xd0
 108 18 84 23 55 33 c 1
 75 127 l 1
 106 116 145.043499138 111.280683501 179 113 c 0
 258 117 258 141 258 179 c 0
 258 220 227 244 176 276 c 0
 97 325 56 382 56 460 c 0xe4
 56 589 72 609 166 623 c 1
 156 725 l 1
 251 735 l 1
 261 633 l 1
 284 633 344 628 370 618 c 5
 348 508 l 5xc8
 320 520 270 523 251 523 c 0
 180.992857507 523 179 495 179 461 c 0
 179 427 192 408 261 366 c 0
 346 315 375 262 375 191 c 0xe4
 375 57 350 41 247 26 c 1
 252 -80 l 1xd0
EndSplineSet
Substitution2: "'onum' Oldstyle Figures lookup 14 subtable" dollar.taboldstyle
Substitution2: "'subs' +BB0EOAQ2BD0EOAQ5 +BDgEPQQ0BDUEOgRB lookup 13 subtable" dollar.inferior
Substitution2: "'sups' +BBIENQRABEUEPQQ4BDkA +BDgEPQQ0BDUEOgRB lookup 12 subtable" dollar.superior
Substitution2: "'dnom' Denominators lookup 6 subtable" dollar.denominator
Substitution2: "'numr' Numerators lookup 5 subtable" dollar.numerator
AlternateSubs2: "'aalt' +BBIEQQQ1 +BDAEOwRMBEIENQRABD0EMARCBDgEMgQ9BEsENQAA +BDIEMARABDgEMAQ9BEIESwAA lookup 1 subtable" dollar.numerator dollar.denominator dollar.superior dollar.inferior dollar.taboldstyle
EndChar

StartChar: percent
Encoding: 37 37 6
Width: 657
Flags: HMW
HStem: -6 70<495 525 495 543> 259 70<133.5 164.5 133.5 182> 323 69<495.5 526> 589 69<134.5 165>
VStem: 18 88<459 500 459 509> 190 88<417.5 496> 379 88<194 235 194 243.5> 551 88<152.5 231>
LayerCount: 2
Fore
SplineSet
150 668 m 0xdf
 278 668 288 646 278 471 c 0
 268.358398438 302.275390625 254 291 149 289 c 0
 18.0234375 286.504882812 18 301 18 466 c 0
 18 656 65 668 150 668 c 0xdf
149 589 m 0
 120 589 106 592 106 469 c 0
 106 357 118 359 149 359 c 0
 180 359 190 387 190 468 c 0
 190 583 181 589 149 589 c 0
178 -38 m 5
 119 -18 l 5
 469 678 l 5
 537 638 l 5
 178 -38 l 5
511 352 m 0xbf
 608 352 636 355 639 186 c 0
 642.319335938 -0.9736328125 575.983465783 -4.52275822874 510 -6 c 0
 376 -9 368 6 379 181 c 0
 388.9453125 339.221679688 404 352 511 352 c 0xbf
510 273 m 0
 481 273 474 271 467 184 c 0
 459.107421875 85.904296875 466 65 510 64 c 0
 539.992255066 63.3183578394 551 64 551 183 c 0
 551 273.022219479 542 273 510 273 c 0
EndSplineSet
Substitution2: "'onum' Oldstyle Figures lookup 14 subtable" percent.oldstyle
Substitution2: "'aalt' +BBIEQQQ1 +BDAEOwRMBEIENQRABD0EMARCBDgEMgQ9BEsENQAA +BDIEMARABDgEMAQ9BEIESwAA lookup 0 subtable" percent.oldstyle
EndChar

StartChar: ampersand
Encoding: 38 38 7
Width: 530
Flags: HMW
HStem: -8 97<201.5 233.5> 0 21G<383 526 383 383> 0 121 595 87<223.5 256.5>
VStem: 19 120<168 218 168 221.5> 75 116<500 540 500 560> 282 110<505.5 540.5> 405 111<359 359>
LayerCount: 2
Fore
SplineSet
506 23 m 1x5b
 412 -42 l 1x5a
 402 -28 364 25 351 44 c 1
 315 12 262 -8 205 -8 c 0
 88 -8 19 76 19 181 c 0x9a
 19 262 58 323 125 366 c 1
 125 368 l 1
 90 416 75 467 75 514 c 0
 75 606 139 682 244 682 c 0
 330 682 392 622 392 531 c 0x96
 392 470 373 415 276 348 c 1
 276 344 l 1
 305 300 349 234 375 201 c 1
 394 221 414 249 438 275 c 1
 500 200 l 1
 476 169 456 152 431 121 c 1x3b
 453 93 467 72 506 23 c 1x5b
229 79 m 0x9a
 260 79 282 101 299 121 c 1
 264 165 216 234 177 290 c 1
 158 271 139 239 139 197 c 0
 139 139 174 79 229 79 c 0x9a
239 585 m 4x96
 208 585 191 561 191 519 c 0
 191 481 202 452 224 419 c 1
 266 452 282 486 282 525 c 0
 282 556 274 585 239 585 c 4x96
EndSplineSet
EndChar

StartChar: quoteright
Encoding: 8217 8217 8
Width: 190
Flags: MW
HStem: 662 20G<184 184>
VStem: 4 180
LayerCount: 2
Fore
SplineSet
71 674 m 1
 184 682 l 1
 156 592 114 502 71 430 c 1
 4 421 l 1
 33 504 60 595 71 674 c 1
EndSplineSet
EndChar

StartChar: parenleft
Encoding: 40 40 9
Width: 258
Flags: HMW
HStem: -120 812<147 241 147 241>
VStem: 32 103<193.5 285>
LayerCount: 2
Fore
SplineSet
137 702 m 1
 241 692 l 1
 183 601 135 531 135 344 c 4
 135 163 173 -16 231 -110 c 1
 147 -130 l 1
 91 -55 32 152 32 345 c 4
 36 540 81 626 137 702 c 1
EndSplineSet
Substitution2: "'subs' +BB0EOAQ2BD0EOAQ5 +BDgEPQQ0BDUEOgRB lookup 13 subtable" parenleft.inferior
Substitution2: "'sups' +BBIENQRABEUEPQQ4BDkA +BDgEPQQ0BDUEOgRB lookup 12 subtable" parenleft.superior
Substitution2: "'dnom' Denominators lookup 6 subtable" parenleft.denominator
Substitution2: "'numr' Numerators lookup 5 subtable" parenleft.numerator
Substitution2: "'case' +BCAENQQzBDgEQQRCBEAEPgQ3BDAEMgQ4BEEEOAQ8BEsENQAA +BEQEPgRABDwESwAA lookup 4 subtable" parenleft.cap
AlternateSubs2: "'aalt' +BBIEQQQ1 +BDAEOwRMBEIENQRABD0EMARCBDgEMgQ9BEsENQAA +BDIEMARABDgEMAQ9BEIESwAA lookup 1 subtable" parenleft.cap parenleft.numerator parenleft.denominator parenleft.superior parenleft.inferior
EndChar

StartChar: parenright
Encoding: 41 41 10
Width: 258
Flags: HMW
HStem: -120 812<17 111 17 111>
VStem: 123 103<288 379>
LayerCount: 2
Fore
SplineSet
101 -130 m 1
 17 -120 l 1
 75 -28 123 66 123 248 c 4
 123 430 75 590 17 682 c 1
 121 702 l 1
 177 629 226 446 226 248 c 4
 222 50 157 -52 101 -130 c 1
EndSplineSet
Substitution2: "'subs' +BB0EOAQ2BD0EOAQ5 +BDgEPQQ0BDUEOgRB lookup 13 subtable" parenright.inferior
Substitution2: "'sups' +BBIENQRABEUEPQQ4BDkA +BDgEPQQ0BDUEOgRB lookup 12 subtable" parenright.superior
Substitution2: "'dnom' Denominators lookup 6 subtable" parenright.denominator
Substitution2: "'numr' Numerators lookup 5 subtable" parenright.numerator
Substitution2: "'case' +BCAENQQzBDgEQQRCBEAEPgQ3BDAEMgQ4BEEEOAQ8BEsENQAA +BEQEPgRABDwESwAA lookup 4 subtable" parenright.cap
AlternateSubs2: "'aalt' +BBIEQQQ1 +BDAEOwRMBEIENQRABD0EMARCBDgEMgQ9BEsENQAA +BDIEMARABDgEMAQ9BEIESwAA lookup 1 subtable" parenright.cap parenright.numerator parenright.denominator parenright.superior parenright.inferior
EndChar

StartChar: asterisk
Encoding: 42 42 11
Width: 385
Flags: HMW
HStem: 313 369<131 245>
VStem: 15 355<451 542 451 542>
LayerCount: 2
Fore
SplineSet
255 692 m 1
 337 646 l 1
 248 529 l 1
 249 526 l 1
 370 542 l 1
 370 445 l 5
 248 447 l 1
 247 444 l 1
 330 346 l 1
 256 304 l 1
 190 428 l 1
 188 425 l 1
 131 313 l 1
 56 360 l 1
 135 449 l 1
 133 450 l 1
 15 451 l 1
 15 542 l 1
 131 526 l 1
 134 529 l 1
 56 634 l 1
 128 676 l 1
 191 560 l 1
 194 560 l 1
 255 692 l 1
EndSplineSet
EndChar

StartChar: plus
Encoding: 43 43 12
Width: 596
Flags: HMW
HStem: 226 82<40 256 40 256 340 556>
VStem: 256 84<0 226 0 226 308 532>
LayerCount: 2
Fore
SplineSet
234.040039062 532.063476562 m 5
 349.185546875 531.98828125 l 1
 344.915039062 308.029296875 l 1
 546 308 l 1
 546 216 l 1
 343.352539062 216.043945312 l 1
 339.043945312 0.0849609375 l 1
 242.46484375 0.1298828125 l 5
 238.885742188 216.1015625 l 5
 40 216 l 1
 40 308 l 1
 237.587890625 308.091796875 l 5
 234.040039062 532.063476562 l 5
EndSplineSet
EndChar

StartChar: comma
Encoding: 44 44 13
Width: 233
Flags: HMW
HStem: -125 276<10 210>
VStem: 10 200
LayerCount: 2
Fore
SplineSet
114 -136 m 1
 10 -125 l 1
 77 172 l 5
 210 151 l 1
 114 -136 l 1
EndSplineSet
Substitution2: "'subs' +BB0EOAQ2BD0EOAQ5 +BDgEPQQ0BDUEOgRB lookup 13 subtable" comma.inferior
Substitution2: "'sups' +BBIENQRABEUEPQQ4BDkA +BDgEPQQ0BDUEOgRB lookup 12 subtable" comma.superior
Substitution2: "'dnom' Denominators lookup 6 subtable" comma.denominator
Substitution2: "'numr' Numerators lookup 5 subtable" comma.numerator
AlternateSubs2: "'aalt' +BBIEQQQ1 +BDAEOwRMBEIENQRABD0EMARCBDgEMgQ9BEsENQAA +BDIEMARABDgEMAQ9BEIESwAA lookup 1 subtable" comma.numerator comma.denominator comma.superior comma.inferior
EndChar

StartChar: hyphen
Encoding: 45 45 14
Width: 259
Flags: HMW
HStem: 229 94<30 229 30 229>
VStem: 30 199<229 323 229 323>
LayerCount: 2
Fore
SplineSet
30 318 m 1
 229 323 l 1
 226 229 l 5
 33 224 l 1
 30 318 l 1
EndSplineSet
Substitution2: "'subs' +BB0EOAQ2BD0EOAQ5 +BDgEPQQ0BDUEOgRB lookup 13 subtable" hyphen.inferior
Substitution2: "'sups' +BBIENQRABEUEPQQ4BDkA +BDgEPQQ0BDUEOgRB lookup 12 subtable" hyphen.superior
Substitution2: "'dnom' Denominators lookup 6 subtable" hyphen.denominator
Substitution2: "'numr' Numerators lookup 5 subtable" hyphen.numerator
Substitution2: "'case' +BCAENQQzBDgEQQRCBEAEPgQ3BDAEMgQ4BEEEOAQ8BEsENQAA +BEQEPgRABDwESwAA lookup 4 subtable" hyphen.cap
AlternateSubs2: "'aalt' +BBIEQQQ1 +BDAEOwRMBEIENQRABD0EMARCBDgEMgQ9BEsENQAA +BDIEMARABDgEMAQ9BEIESwAA lookup 1 subtable" endash emdash hyphen.cap hyphen.superior hyphen.inferior hyphen.numerator hyphen.denominator
EndChar

StartChar: period
Encoding: 46 46 15
Width: 233
Flags: HMW
HStem: -8 174<105 146 105 147>
VStem: 48 153<52.5 104>
LayerCount: 2
Fore
SplineSet
48 166 m 1
 92.4132976042 172.842620063 168.914530473 169.860420548 200 166 c 5
 200.471518241 108.859788421 201 43 195 -7 c 5
 164.961270517 -11.7753322355 97 -13 53 -7 c 1
 46 55 48 125 48 166 c 1
EndSplineSet
Substitution2: "'subs' +BB0EOAQ2BD0EOAQ5 +BDgEPQQ0BDUEOgRB lookup 13 subtable" period.inferior
Substitution2: "'sups' +BBIENQRABEUEPQQ4BDkA +BDgEPQQ0BDUEOgRB lookup 12 subtable" period.superior
Substitution2: "'dnom' Denominators lookup 6 subtable" period.denominator
Substitution2: "'numr' Numerators lookup 5 subtable" period.numerator
AlternateSubs2: "'aalt' +BBIEQQQ1 +BDAEOwRMBEIENQRABD0EMARCBDgEMgQ9BEsENQAA +BDIEMARABDgEMAQ9BEIESwAA lookup 1 subtable" ellipsis period.superior period.inferior period.numerator period.denominator
EndChar

StartChar: slash
Encoding: 47 47 16
Width: 280
Flags: HMW
HStem: 662 20G<212 298 298 298>
VStem: -22 320
LayerCount: 2
Fore
SplineSet
63 -50 m 1
 -22 -40 l 1
 192 712 l 5
 298 682 l 1
 63 -50 l 1
EndSplineSet
Substitution2: "'frac' Diagonal Fractions lookup 8 subtable" slash.frac
Substitution2: "'dnom' Denominators lookup 6 subtable" fraction
Substitution2: "'numr' Numerators lookup 5 subtable" fraction
Substitution2: "'aalt' +BBIEQQQ1 +BDAEOwRMBEIENQRABD0EMARCBDgEMgQ9BEsENQAA +BDIEMARABDgEMAQ9BEIESwAA lookup 0 subtable" fraction
EndChar

StartChar: zero
Encoding: 48 48 17
Width: 426
Flags: HMW
HStem: -8 112<194 236.5 194 265.5> 546 112<195.5 237>
VStem: 23 132 271 132<250.5 394.5>
LayerCount: 2
Fore
SplineSet
227 672 m 4
 383 672 406 663 406 339 c 4
 406 9.00018804729 408 -8 218 -8 c 0
 32 -8 25 16.9996704247 25 329 c 4
 25 664 32 672 227 672 c 4
222 548 m 4
 144 548 156 530 156 327 c 4
 156 94.999843579 143.993566745 96 223 96 c 4
 273 96 274 90.9997644169 274 333 c 4
 274 535 284 548 222 548 c 4
EndSplineSet
Substitution2: "'zero' Slashed Zero lookup 19 subtable" zero.slash
Substitution2: "'pnum' Proportional Numbers lookup 16 subtable" zero.fitted
Substitution2: "'onum' Oldstyle Figures lookup 14 subtable" zero.taboldstyle
Substitution2: "'subs' +BB0EOAQ2BD0EOAQ5 +BDgEPQQ0BDUEOgRB lookup 13 subtable" zero.inferior
Substitution2: "'sups' +BBIENQRABEUEPQQ4BDkA +BDgEPQQ0BDUEOgRB lookup 12 subtable" zero.superior
Substitution2: "'dnom' Denominators lookup 6 subtable" zero.denominator
Substitution2: "'numr' Numerators lookup 5 subtable" zero.numerator
AlternateSubs2: "'aalt' +BBIEQQQ1 +BDAEOwRMBEIENQRABD0EMARCBDgEMgQ9BEsENQAA +BDIEMARABDgEMAQ9BEIESwAA lookup 1 subtable" zero.fitted zero.oldstyle zero.taboldstyle zero.numerator zero.denominator zero.superior zero.inferior zero.slash
EndChar

StartChar: one
Encoding: 49 49 18
Width: 426
Flags: HMW
HStem: 0 21G<179 179 179 309> 630 20G<194 309 309 309>
VStem: 179 130<0 527 527 527>
LayerCount: 2
Fore
SplineSet
173.056640625 -8.208984375 m 1
 183.340820312 489.69140625 l 1
 181.340820312 489.73046875 l 1
 181.340820312 489.73046875 103 454 67 431 c 1
 50 458 27 525 22 561 c 1
 92 609 200.909179688 651.374023438 200.909179688 651.374023438 c 1
 315.88671875 648.134765625 l 5
 303.032226562 -10.740234375 l 1
 173.056640625 -8.208984375 l 1
EndSplineSet
Substitution2: "'pnum' Proportional Numbers lookup 16 subtable" one.fitted
Substitution2: "'onum' Oldstyle Figures lookup 14 subtable" one.taboldstyle
Substitution2: "'subs' +BB0EOAQ2BD0EOAQ5 +BDgEPQQ0BDUEOgRB lookup 13 subtable" one.inferior
Substitution2: "'sups' +BBIENQRABEUEPQQ4BDkA +BDgEPQQ0BDUEOgRB lookup 12 subtable" one.superior
Substitution2: "'dnom' Denominators lookup 6 subtable" one.denominator
Substitution2: "'numr' Numerators lookup 5 subtable" one.numerator
AlternateSubs2: "'aalt' +BBIEQQQ1 +BDAEOwRMBEIENQRABD0EMARCBDgEMgQ9BEsENQAA +BDIEMARABDgEMAQ9BEIESwAA lookup 1 subtable" one.fitted one.oldstyle one.taboldstyle one.numerator one.denominator one.superior one.inferior
EndChar

StartChar: two
Encoding: 50 50 19
Width: 426
Flags: HMW
HStem: 0 115<181 380 181 380> 549 109<153.5 186>
VStem: 242 129<413.5 486>
LayerCount: 2
Fore
SplineSet
376 -10 m 1
 180 -13 29 0 29 0 c 1
 24 88 l 1
 89 171 l 6
 206.145042289 320.585207846 252 367 252 460 c 4
 252 528 237 539 159 539 c 0
 137 539 99 534 51 516 c 1
 28 628 l 1
 77 644 146 658 183 658 c 0
 315 658 371 658 371 470 c 0
 371 348 343.304436512 317.920958695 220 163 c 6
 181 114 l 1
 181 112 l 1
 181 112 260 106 380 105 c 1
 384 68 381 9 376 -10 c 1
EndSplineSet
Substitution2: "'pnum' Proportional Numbers lookup 16 subtable" two.fitted
Substitution2: "'onum' Oldstyle Figures lookup 14 subtable" two.taboldstyle
Substitution2: "'subs' +BB0EOAQ2BD0EOAQ5 +BDgEPQQ0BDUEOgRB lookup 13 subtable" two.inferior
Substitution2: "'sups' +BBIENQRABEUEPQQ4BDkA +BDgEPQQ0BDUEOgRB lookup 12 subtable" two.superior
Substitution2: "'dnom' Denominators lookup 6 subtable" two.denominator
Substitution2: "'numr' Numerators lookup 5 subtable" two.numerator
AlternateSubs2: "'aalt' +BBIEQQQ1 +BDAEOwRMBEIENQRABD0EMARCBDgEMgQ9BEsENQAA +BDIEMARABDgEMAQ9BEIESwAA lookup 1 subtable" two.fitted two.oldstyle two.taboldstyle two.numerator two.denominator two.superior two.inferior
EndChar

StartChar: three
Encoding: 51 51 20
Width: 426
Flags: MW
HStem: -8 107<125.5 171.5 122.5 222.5> 296 96<98 111 98 116 98 111> 551 107<153 168>
VStem: 221 130<468.5 499.5> 238 131<165.5 229>
LayerCount: 2
Fore
SplineSet
24 21 m 1xe8
 43 124 l 1
 69 109 105 99 140 99 c 0
 203 99 238 138 238 193 c 0xe8
 238 265 183 296 116 296 c 2
 98 296 l 1
 98 392 l 1
 111 392 l 2
 159 393 221 413 221 476 c 0
 221 523 191 551 145 551 c 0
 116 551 87 540 63 525 c 1
 46 624 l 1
 73 641 126 658 180 658 c 0
 294 658 351 584 351 501 c 0xf0
 351 436 315 382 258 355 c 1
 258 353 l 1
 321 332 369 276 369 188 c 0
 369 89 293 -8 152 -8 c 0
 99 -8 53 5 24 21 c 1xe8
EndSplineSet
Substitution2: "'pnum' Proportional Numbers lookup 16 subtable" three.fitted
Substitution2: "'onum' Oldstyle Figures lookup 14 subtable" three.taboldstyle
Substitution2: "'subs' +BB0EOAQ2BD0EOAQ5 +BDgEPQQ0BDUEOgRB lookup 13 subtable" three.inferior
Substitution2: "'sups' +BBIENQRABEUEPQQ4BDkA +BDgEPQQ0BDUEOgRB lookup 12 subtable" three.superior
Substitution2: "'dnom' Denominators lookup 6 subtable" three.denominator
Substitution2: "'numr' Numerators lookup 5 subtable" three.numerator
AlternateSubs2: "'aalt' +BBIEQQQ1 +BDAEOwRMBEIENQRABD0EMARCBDgEMgQ9BEsENQAA +BDIEMARABDgEMAQ9BEIESwAA lookup 1 subtable" three.fitted three.oldstyle three.taboldstyle three.numerator three.denominator three.superior three.inferior
EndChar

StartChar: four
Encoding: 52 52 21
Width: 426
Flags: MW
HStem: 0 21G<234 350 234 234> 155 105<122 234 122 234 350 415> 500 150<237 241 237 237> 630 20G<224 350 350 350>
VStem: 11 111<155 260 245 260> 234 116<0 155 260 393 393 410.5>
LayerCount: 2
Fore
SplineSet
350 0 m 1xdc
 234 0 l 1
 234 155 l 1
 11 155 l 1
 11 245 l 1
 224 650 l 1
 350 650 l 1
 350 260 l 1
 415 260 l 1
 415 155 l 1
 350 155 l 1
 350 0 l 1xdc
122 260 m 1
 234 260 l 1
 234 393 l 2
 234 428 238 466 241 500 c 1
 237 500 l 1xec
 222 464 209 435 192 399 c 2
 122 262 l 1
 122 260 l 1
EndSplineSet
Substitution2: "'pnum' Proportional Numbers lookup 16 subtable" four.fitted
Substitution2: "'onum' Oldstyle Figures lookup 14 subtable" four.taboldstyle
Substitution2: "'subs' +BB0EOAQ2BD0EOAQ5 +BDgEPQQ0BDUEOgRB lookup 13 subtable" four.inferior
Substitution2: "'sups' +BBIENQRABEUEPQQ4BDkA +BDgEPQQ0BDUEOgRB lookup 12 subtable" four.superior
Substitution2: "'dnom' Denominators lookup 6 subtable" four.denominator
Substitution2: "'numr' Numerators lookup 5 subtable" four.numerator
AlternateSubs2: "'aalt' +BBIEQQQ1 +BDAEOwRMBEIENQRABD0EMARCBDgEMgQ9BEsENQAA +BDIEMARABDgEMAQ9BEIESwAA lookup 1 subtable" four.fitted four.oldstyle four.taboldstyle four.numerator four.denominator four.superior four.inferior
EndChar

StartChar: five
Encoding: 53 53 22
Width: 426
Flags: MW
HStem: -8 107<127 173 123.5 221> 326 94<97 198> 536 114<193 365 193 193>
VStem: 247 129<175 253.5>
LayerCount: 2
Fore
SplineSet
365 650 m 1
 365 536 l 1
 193 536 l 1
 178 420 l 1
 184 420 191 420 198 420 c 0
 226 419 283 406 320 371 c 0
 356 336 376 287 376 222 c 0
 376 95 292 -8 150 -8 c 0
 104 -8 54 4 28 18 c 1
 48 122 l 1
 72 110 106 99 141 99 c 0
 205 99 247 140 247 210 c 0
 247 297 181 326 106 326 c 0
 88 326 73 326 60 324 c 1
 96 650 l 1
 365 650 l 1
EndSplineSet
Substitution2: "'pnum' Proportional Numbers lookup 16 subtable" five.fitted
Substitution2: "'onum' Oldstyle Figures lookup 14 subtable" five.taboldstyle
Substitution2: "'subs' +BB0EOAQ2BD0EOAQ5 +BDgEPQQ0BDUEOgRB lookup 13 subtable" five.inferior
Substitution2: "'sups' +BBIENQRABEUEPQQ4BDkA +BDgEPQQ0BDUEOgRB lookup 12 subtable" five.superior
Substitution2: "'dnom' Denominators lookup 6 subtable" five.denominator
Substitution2: "'numr' Numerators lookup 5 subtable" five.numerator
AlternateSubs2: "'aalt' +BBIEQQQ1 +BDAEOwRMBEIENQRABD0EMARCBDgEMgQ9BEsENQAA +BDIEMARABDgEMAQ9BEIESwAA lookup 1 subtable" five.fitted five.oldstyle five.taboldstyle five.numerator five.denominator five.superior five.inferior
EndChar

StartChar: six
Encoding: 54 54 23
Width: 426
Flags: MW
HStem: -8 95<199.5 241 199.5 284.5> 330 94<205.5 303> 638 20G<355 355>
VStem: 23 133<186.5 244 186.5 331> 277 129<184 223>
LayerCount: 2
Fore
SplineSet
355 658 m 1
 355 552 l 1
 339 551 321 549 301 545 c 0
 215 526 172 454 156 372 c 1
 159 372 l 1
 182 403 216 424 259 424 c 0
 347 424 406 345 406 222 c 0
 406 108 348 -8 221 -8 c 0
 98 -8 23 99 23 260 c 0
 23 402 70 499 130 563 c 0
 172 610 235 641 289 651 c 0
 320 657 341 657 355 658 c 1
219 87 m 0
 263 87 277 145 277 223 c 0
 276 278 258 330 216 330 c 0
 195 330 175 316 163 286 c 0
 159 279 156 259 156 229 c 0
 156 144 180 87 219 87 c 0
EndSplineSet
Substitution2: "'pnum' Proportional Numbers lookup 16 subtable" six.fitted
Substitution2: "'onum' Oldstyle Figures lookup 14 subtable" six.taboldstyle
Substitution2: "'subs' +BB0EOAQ2BD0EOAQ5 +BDgEPQQ0BDUEOgRB lookup 13 subtable" six.inferior
Substitution2: "'sups' +BBIENQRABEUEPQQ4BDkA +BDgEPQQ0BDUEOgRB lookup 12 subtable" six.superior
Substitution2: "'dnom' Denominators lookup 6 subtable" six.denominator
Substitution2: "'numr' Numerators lookup 5 subtable" six.numerator
AlternateSubs2: "'aalt' +BBIEQQQ1 +BDAEOwRMBEIENQRABD0EMARCBDgEMgQ9BEsENQAA +BDIEMARABDgEMAQ9BEIESwAA lookup 1 subtable" six.fitted six.oldstyle six.taboldstyle six.numerator six.denominator six.superior six.inferior
EndChar

StartChar: seven
Encoding: 55 55 24
Width: 426
Flags: MW
HStem: 0 21G<61 189 61 61> 535 115<39 261 39 393>
VStem: 39 354<564 650 564 650 564 650>
LayerCount: 2
Fore
SplineSet
39 650 m 1
 393 650 l 1
 393 564 l 1
 189 0 l 1
 61 0 l 1
 261 533 l 1
 261 535 l 1
 39 535 l 1
 39 650 l 1
EndSplineSet
Substitution2: "'pnum' Proportional Numbers lookup 16 subtable" seven.fitted
Substitution2: "'onum' Oldstyle Figures lookup 14 subtable" seven.taboldstyle
Substitution2: "'subs' +BB0EOAQ2BD0EOAQ5 +BDgEPQQ0BDUEOgRB lookup 13 subtable" seven.inferior
Substitution2: "'sups' +BBIENQRABEUEPQQ4BDkA +BDgEPQQ0BDUEOgRB lookup 12 subtable" seven.superior
Substitution2: "'dnom' Denominators lookup 6 subtable" seven.denominator
Substitution2: "'numr' Numerators lookup 5 subtable" seven.numerator
AlternateSubs2: "'aalt' +BBIEQQQ1 +BDAEOwRMBEIENQRABD0EMARCBDgEMgQ9BEsENQAA +BDIEMARABDgEMAQ9BEIESwAA lookup 1 subtable" seven.fitted seven.oldstyle seven.taboldstyle seven.numerator seven.denominator seven.superior seven.inferior
EndChar

StartChar: eight
Encoding: 56 56 25
Width: 426
Flags: MW
HStem: -8 88<192.5 235.5 192.5 263.5> 570 88<198 236>
VStem: 20 127<156 209 156 209.5> 38 123<468 511 468 540> 270 120<476.5 508> 278 127<149.5 207.5>
LayerCount: 2
Fore
SplineSet
210 -8 m 0xe4
 99 -8 20 63 20 169 c 0xe4
 20 250 65 308 118 342 c 1
 118 344 l 1
 63 380 38 436 38 487 c 0
 38 593 122 658 222 658 c 0
 315 658 390 595 390 498 c 0xd8
 390 455 373 397 305 354 c 1
 305 352 l 1
 365 319 405 259 405 182 c 0
 405 62 317 -8 210 -8 c 0xe4
215 80 m 0
 256 80 278 122 278 177 c 0
 278 238 240 278 203 297 c 1
 170 274 147 234 147 184 c 0
 147 128 170 80 215 80 c 0
217 570 m 0xd8
 179 570 161 531 161 491 c 0
 161 445 187 413 225 393 c 1
 253 408 270 448 270 486 c 0
 270 530 255 570 217 570 c 0xd8
EndSplineSet
Substitution2: "'pnum' Proportional Numbers lookup 16 subtable" eight.fitted
Substitution2: "'onum' Oldstyle Figures lookup 14 subtable" eight.taboldstyle
Substitution2: "'subs' +BB0EOAQ2BD0EOAQ5 +BDgEPQQ0BDUEOgRB lookup 13 subtable" eight.inferior
Substitution2: "'sups' +BBIENQRABEUEPQQ4BDkA +BDgEPQQ0BDUEOgRB lookup 12 subtable" eight.superior
Substitution2: "'dnom' Denominators lookup 6 subtable" eight.denominator
Substitution2: "'numr' Numerators lookup 5 subtable" eight.numerator
AlternateSubs2: "'aalt' +BBIEQQQ1 +BDAEOwRMBEIENQRABD0EMARCBDgEMgQ9BEsENQAA +BDIEMARABDgEMAQ9BEIESwAA lookup 1 subtable" eight.fitted eight.oldstyle eight.taboldstyle eight.numerator eight.denominator eight.superior eight.inferior
EndChar

StartChar: nine
Encoding: 57 57 26
Width: 426
Flags: MW
HStem: -8 109<74 84> 236 90<194 198> 563 95<194 228.5>
VStem: 24 129 270 132<276 469.5 407.5 469.5 317.5 472>
LayerCount: 2
Fore
SplineSet
74 -8 m 1
 74 101 l 1
 99 101 112 102 134 106 c 0
 159 111 188 124 210 145 c 0
 238 172 262 218 273 276 c 1
 270 276 l 1
 249 253 219 236 177 236 c 0
 93 236 24 311 24 430 c 0
 24 542 93 658 218 658 c 0
 339 658 402 548 402 391 c 0
 402 244 355 141 295 77 c 0
 255 34 198 5 135 -5 c 0
 114 -8 94 -8 74 -8 c 1
211 563 m 0
 177 563 152 520 153 441 c 0
 154 378 174 326 214 326 c 0
 237 326 257 343 264 360 c 0
 269 373 270 386 270 429 c 0
 270 515 246 563 211 563 c 0
EndSplineSet
Substitution2: "'pnum' Proportional Numbers lookup 16 subtable" nine.fitted
Substitution2: "'onum' Oldstyle Figures lookup 14 subtable" nine.taboldstyle
Substitution2: "'subs' +BB0EOAQ2BD0EOAQ5 +BDgEPQQ0BDUEOgRB lookup 13 subtable" nine.inferior
Substitution2: "'sups' +BBIENQRABEUEPQQ4BDkA +BDgEPQQ0BDUEOgRB lookup 12 subtable" nine.superior
Substitution2: "'dnom' Denominators lookup 6 subtable" nine.denominator
Substitution2: "'numr' Numerators lookup 5 subtable" nine.numerator
AlternateSubs2: "'aalt' +BBIEQQQ1 +BDAEOwRMBEIENQRABD0EMARCBDgEMgQ9BEsENQAA +BDIEMARABDgEMAQ9BEIESwAA lookup 1 subtable" nine.fitted nine.oldstyle nine.taboldstyle nine.numerator nine.denominator nine.superior nine.inferior
EndChar

StartChar: colon
Encoding: 58 58 27
Width: 233
Flags: MW
HStem: -8 166<105 146 105 147> 320 166<105 146 105 147>
VStem: 51 148<50.5 98 378 425.5>
LayerCount: 2
Fore
SplineSet
124 320 m 0
 83 320 51 354 51 402 c 0
 51 449 85 486 125 486 c 0
 167 486 199 453 199 402 c 0
 199 354 170 320 124 320 c 0
124 -8 m 0
 83 -8 51 26 51 75 c 0
 51 121 85 158 125 158 c 0
 167 158 199 125 199 75 c 0
 199 26 170 -8 124 -8 c 0
EndSplineSet
EndChar

StartChar: semicolon
Encoding: 59 59 28
Width: 233
Flags: MW
HStem: 320 166<109.5 151 109.5 152>
VStem: 56 148<378 425.5>
LayerCount: 2
Fore
SplineSet
91 -116 m 1
 11 -125 l 1
 40 -42 67 62 78 141 c 1
 207 151 l 1
 177 61 135 -44 91 -116 c 1
129 320 m 0
 88 320 56 354 56 402 c 0
 56 449 89 486 130 486 c 0
 172 486 204 453 204 402 c 0
 204 354 175 320 129 320 c 0
EndSplineSet
EndChar

StartChar: less
Encoding: 60 60 29
Width: 596
Flags: HMW
HStem: 0 532<538 538>
VStem: 58 480<0 297 0 297>
LayerCount: 2
Fore
SplineSet
58 235 m 1
 58 307 l 1
 518 532 l 1
 538 430 l 1
 196 266 l 1
 196 264 l 1
 538 101 l 1
 508 10 l 5
 58 235 l 1
EndSplineSet
EndChar

StartChar: equal
Encoding: 61 61 30
Width: 596
Flags: HMW
HStem: 133 82<40 556 40 556> 320 82<40 556 40 556>
VStem: 40 516<133 215 133 215 320 402 133 402>
LayerCount: 2
Fore
SplineSet
554.8671875 323.51953125 m 5
 407 330 238.052734375 329.813476562 39.021484375 326.163085938 c 1
 35 365 37 410 41.521484375 438.1328125 c 1
 235.012993096 442.452224433 391 436 557.366210938 425.489257812 c 5
 560 396 559.158439407 348.000000076 554.8671875 323.51953125 c 5
536.650390625 137.15234375 m 1
 60.728515625 128.534179688 l 1
 59.244140625 210.520507812 l 1
 535.166015625 219.138671875 l 1
 536.650390625 137.15234375 l 1
EndSplineSet
EndChar

StartChar: greater
Encoding: 62 62 31
Width: 596
Flags: HMW
HStem: 0 532<58 58>
VStem: 442 96<265 267 267 267>
LayerCount: 2
Fore
SplineSet
538 310 m 1
 538 212 l 5
 88 0 l 1
 58 99 l 1
 432 265 l 1
 432 267 l 1
 68 433 l 1
 98 522 l 1
 538 310 l 1
EndSplineSet
EndChar

StartChar: question
Encoding: 63 63 32
Width: 334
Flags: HMW
HStem: -8 21G<123.5 168> -8 162<144 165.5 144 168> 569 113<122.5 136.5>
VStem: 70 149<49 96.5> 87 112 182 134<493.5 525.5>
LayerCount: 2
Fore
SplineSet
199 204 m 1xa8
 88 211 l 5
 86 229 l 6xa8
 76.6829268293 312.853658537 90 322 139 396 c 4
 167.634644605 439.244157158 182 469 182 507 c 0
 182 562 176 569 116 569 c 0
 94 569 68 566 42 561 c 1
 20 670 l 1
 69 678 112 682 147 682 c 0
 269 682 316 678 316 528 c 0xa4
 316 459 276.928336337 403.049106954 242 352 c 4
 203 295 199 293 199 229 c 6
 199 204 l 1xa8
76 -8 m 0xb0
 87 148 l 0
 197 154 l 0x70
 213 0 l 0
 76 -8 l 0xb0
EndSplineSet
EndChar

StartChar: at
Encoding: 64 64 33
Width: 621
Flags: HMW
HStem: -98 46<236 310.5> 65 55<440 475 440 481.5> 65 69<268 269> 367 61<321.5 350.5> 547 45<278 411.5>
VStem: 31 55<116 301> 161 84<172.5 240.5 172.5 247.5> 360 62 537 54<253 384>
LayerCount: 2
Fore
SplineSet
358 232 m 2xbf80
 371 362 l 1
 364 366 346 367 335 367 c 0
 288 367 263 351 245 190 c 0
 241.1111852 155.216712067 256 134 280 134 c 0
 311 134 350 184 358 232 c 2xbf80
426 -6 m 1
 441 -58 l 1
 389 -88 339 -98 282 -98 c 0
 155 -98 31 3 31 201 c 0
 31 401 160 592 355 592 c 4
 515 592 591 469 591 334 c 0
 591 161 530 65 433 65 c 0xdf80
 383 65 367 82 370 150 c 1
 367 150 l 1
 343 67 290.984363894 63.8270836295 247 65 c 0xbf80
 172 67 155.873457698 111.177790848 161 185 c 0
 176 401 218 428 348 428 c 0
 381 428 439 419 461 407 c 1
 437 223 l 2
 424 151 425 130 455 130 c 0xdf80
 495 130 527 186 527 320 c 0
 527 448 479 517 344 517 c 0
 212 517 96 409 96 201 c 4
 96 31 176 -42 296 -42 c 0
 343 -42 386 -29 426 -6 c 1
EndSplineSet
Substitution2: "'case' +BCAENQQzBDgEQQRCBEAEPgQ3BDAEMgQ4BEEEOAQ8BEsENQAA +BEQEPgRABDwESwAA lookup 4 subtable" at.cap
Substitution2: "'aalt' +BBIEQQQ1 +BDAEOwRMBEIENQRABD0EMARCBDgEMgQ9BEsENQAA +BDIEMARABDgEMAQ9BEIESwAA lookup 0 subtable" at.cap
EndChar

StartChar: A
Encoding: 65 65 34
Width: 458
Flags: HMW
HStem: 0 21G<8 135 8 8 315 315 315 442> 154 102<178 274 178 286 165 274> 550 124<227 230 227 227>
VStem: 8 434<0 0>
LayerCount: 2
Fore
SplineSet
299 158 m 5
 162 154 l 5
 135 -5 l 5
 8 10 l 5
 8 10 114 500 128 565 c 5
 104 568 55.0771484375 567 55.0771484375 567 c 5
 55.0771484375 567 59 653 59 683 c 5
 188 690 345 674 345 674 c 5
 443 5 l 5
 319 -10 l 5
 299 158 l 5
178 256 m 5
 287 260 l 5
 255 556 l 5
 228 559 l 5
 178 256 l 5
EndSplineSet
Position2: "'cpsp' +BBgEPQRCBDUEQAQyBDAEOwAA +BD8EQAQ+BD8EOARBBD0ESwRF lookup 0 subtable" dx=10 dy=0 dh=20 dv=0
EndChar

StartChar: B
Encoding: 66 66 35
Width: 483
Flags: HMW
HStem: -5 101<212 236.5> 300 97<189 217 189 217> 579 98<216 238.5 178.5 250>
VStem: 58 131<98 300 397 575> 300 129<477 516.5> 315 136<167 230.5>
LayerCount: 2
Fore
SplineSet
65.1025390625 2.115234375 m 1xf4
 51.3134765625 663.971679688 l 1
 192.116210938 674.907226562 l 2
 385.394670911 689.918338869 419.475014891 677.089019806 429 507 c 4xf8
 436 382 399 367 331 360 c 1
 331 356 l 5
 433 342 456 315 451 195 c 4
 442.63060374 -5.86551024562 426.812075865 -15.795212505 207.279296875 -4.9248046875 c 6
 65.1025390625 2.115234375 l 1xf4
183.305664062 569.701171875 m 1
 187.846679688 399.758789062 l 5
 215.83984375 400.341796875 l 6
 290.82421875 401.904296875 302 400 300 492 c 4
 298.3046875 569.981445312 291.200195312 578.124023438 218.256835938 572.4296875 c 2
 183.305664062 569.701171875 l 1
189.8671875 302.779296875 m 1
 194.303710938 89.826171875 l 1
 223.296875 90.4296875 l 0
 309.278320312 92.220703125 315 84 315 187 c 0
 315 285 298.842773438 305.049804688 217.860351562 303.362304688 c 2xf4
 189.8671875 302.779296875 l 1
EndSplineSet
Position2: "'cpsp' +BBgEPQRCBDUEQAQyBDAEOwAA +BD8EQAQ+BD8EOARBBD0ESwRF lookup 0 subtable" dx=10 dy=0 dh=20 dv=0
EndChar

StartChar: C
Encoding: 67 67 36
Width: 395
Flags: HMW
HStem: -6 116<265 302> 565 115<268 319.5> 660 20G<231.5 320>
VStem: 25 139<253.5 417.5 253.5 454>
LayerCount: 2
Fore
SplineSet
358 120 m 1xd0
 371 10 l 1
 279 -3 l 2
 103.962353759 -27.7335804471 36 3 25 327 c 0
 12.9124887232 683.032150334 101.902528495 697.93999738 297 680 c 2xd0
 384 672 l 5xb0
 371 548 l 5
 305 555 l 2
 188.932209783 567.310220175 156 563 164 334 c 0
 171.471424788 120.130465443 177 91 295 110 c 2
 358 120 l 1xd0
EndSplineSet
Position2: "'cpsp' +BBgEPQRCBDUEQAQyBDAEOwAA +BD8EQAQ+BD8EOARBBD0ESwRF lookup 0 subtable" dx=10 dy=0 dh=20 dv=0
EndChar

StartChar: D
Encoding: 68 68 37
Width: 491
Flags: HMW
HStem: -5 107<208.5 213> 572 105<210.5 233.5 165 254.5>
VStem: 58 131<104 569 104 664 104 664> 330 136<277 410.5 277 419>
LayerCount: 2
Fore
SplineSet
58 2 m 6
 53 664 l 1
 191 672 l 2
 398.751099016 684.043541972 476 699 466 345 c 4
 457.355642564 38.9897467657 467.225305216 -24.5238623751 166 -5 c 6
 58 2 l 6
194 560 m 1
 189 93 l 1
 212 92 l 2
 326.218867925 87.0339622642 326.528112627 100.024109166 330 350 c 0
 333 566 318.112359551 571.820224719 215 562 c 2
 194 560 l 1
EndSplineSet
Position2: "'cpsp' +BBgEPQRCBDUEQAQyBDAEOwAA +BD8EQAQ+BD8EOARBBD0ESwRF lookup 0 subtable" dx=10 dy=0 dh=20 dv=0
EndChar

StartChar: E
Encoding: 69 69 38
Width: 394
Flags: HMW
HStem: 0 114<189 363 189 363> 296 109<189 343 189 343> 560 114<189 351 189 189>
VStem: 58 131<114 296 114 405 405 560>
LayerCount: 2
Fore
SplineSet
343 405 m 1
 343 286 l 1
 190.96875 286 l 1
 196.56640625 104.0859375 l 1
 359 108 l 1
 363 4 l 1
 68.826171875 -3.89453125 l 1
 48.09765625 669.787109375 l 1
 48.09765625 669.787109375 194 696 365 684 c 5
 366 646 364 601 361 560 c 5
 304 564 218 560 182.849609375 554.875 c 5
 187.30859375 404.943359375 l 1
 343 405 l 1
EndSplineSet
Position2: "'cpsp' +BBgEPQRCBDUEQAQyBDAEOwAA +BD8EQAQ+BD8EOARBBD0ESwRF lookup 0 subtable" dx=10 dy=0 dh=20 dv=0
EndChar

StartChar: F
Encoding: 70 70 39
Width: 392
Flags: HMW
HStem: 0 21G<58 58 58 189> 278 109<189 341 189 341> 560 114<189 351 189 189>
VStem: 58 131<0 278 387 560>
LayerCount: 2
Fore
SplineSet
58 -10 m 1
 54.0390625 679.676757812 l 1
 356.87890625 689.525390625 l 1
 360.909179688 565.590820312 l 1
 189 560 l 1
 189 397 l 1
 344.543945312 391.861328125 l 5
 338.6015625 273.009765625 l 5
 189 278 l 1
 189 -10 l 1
 58 -10 l 1
EndSplineSet
Position2: "'cpsp' +BBgEPQRCBDUEQAQyBDAEOwAA +BD8EQAQ+BD8EOARBBD0ESwRF lookup 0 subtable" dx=10 dy=0 dh=20 dv=0
EndChar

StartChar: G
Encoding: 71 71 40
Width: 472
Flags: HMW
HStem: -6 111<254.5 291 254.5 316.5> 271 107<251 311 251 432> 562 118<276.5 336.5 239.5 337.5> 660 20
VStem: 25 136 311 121<108 271 271 271>
LayerCount: 2
Fore
SplineSet
432 388 m 1xec
 422 8 l 1
 292 -6 l 2
 86.118386448 -26.5881613552 30 16 25 333 c 0
 20.1579199819 639.98787315 52.1881188119 705.881188119 311 680 c 2xec
 411 670 l 1xdc
 398 547 l 1
 321 552 l 2
 166.612025529 562.025193147 155.520760908 552.936346244 161 325 c 0
 166 117 194 84 285 95 c 2
 306 98 l 1
 311 271 l 1
 236 274 l 5
 241 393 l 1
 432 388 l 1xec
EndSplineSet
Position2: "'cpsp' +BBgEPQRCBDUEQAQyBDAEOwAA +BD8EQAQ+BD8EOARBBD0ESwRF lookup 0 subtable" dx=10 dy=0 dh=20 dv=0
EndChar

StartChar: H
Encoding: 72 72 41
Width: 515
Flags: HMW
HStem: 0 21G<58 189 58 58 326 457 326 326> 282 122<189 326 189 326> 654 20G<58 189 189 189 326 457 457 457>
VStem: 58 131<0 282 404 674> 326 131<0 282 282 282 404 674 0 674>
LayerCount: 2
Fore
SplineSet
51.6171875 671.405273438 m 1
 182.591796875 673.95703125 l 1
 187.850585938 404.0078125 l 1
 326.9765625 403.9921875 l 5
 331.317382812 683.958984375 l 5
 462.301757812 681.927734375 l 5
 451.54296875 -11.98828125 l 5
 320.55859375 -9.9580078125 l 5
 325.084960938 282.006835938 l 5
 190.2265625 282.03125 l 1
 195.719726562 0.0849609375 l 1
 64.744140625 -2.466796875 l 1
 51.6171875 671.405273438 l 1
EndSplineSet
Position2: "'cpsp' +BBgEPQRCBDUEQAQyBDAEOwAA +BD8EQAQ+BD8EOARBBD0ESwRF lookup 0 subtable" dx=10 dy=0 dh=20 dv=0
EndChar

StartChar: I
Encoding: 73 73 42
Width: 248
Flags: HMW
HStem: 0 21G<58 189 58 58> 654 20G<58 189 189 189>
VStem: 58 131<0 674 0 674>
LayerCount: 2
Fore
SplineSet
53 664 m 5
 194 664 l 5
 189 0 l 1
 58 0 l 1
 53 664 l 5
EndSplineSet
Position2: "'cpsp' +BBgEPQRCBDUEQAQyBDAEOwAA +BD8EQAQ+BD8EOARBBD0ESwRF lookup 0 subtable" dx=10 dy=0 dh=20 dv=0
EndChar

StartChar: J
Encoding: 74 74 43
Width: 296
Flags: HMW
HStem: -8 115<43.5 64 36.5 105> 654 20G<115 247 247 247>
VStem: 115 132<209 215 215 674>
LayerCount: 2
Fore
SplineSet
115 89 m 6
 111 674 l 1
 247 674 l 1
 247 95 l 6
 247 -129 219.969726562 -119.422851562 57 -128 c 6
 0 -131 l 5
 -8 -16 l 5
 45 -13 l 6
 114.005322924 -9.09403832505 115.635914458 -4.00248947379 115 89 c 6
EndSplineSet
Position2: "'cpsp' +BBgEPQRCBDUEQAQyBDAEOwAA +BD8EQAQ+BD8EOARBBD0ESwRF lookup 0 subtable" dx=10 dy=0 dh=20 dv=0
EndChar

StartChar: K
Encoding: 75 75 44
Width: 459
Flags: HMW
HStem: 0 21G<58 58 58 189 317 317 317 460> 654 20G<58 189 189 189 314 458 458 458>
VStem: 58 131<0 224 371 674>
LayerCount: 2
Fore
SplineSet
58 0 m 1
 58 654 l 5
 189 654 l 5
 189 371 l 1
 191 371 l 1
 324 684 l 1
 448 664 l 1
 308 354 l 1
 460 10 l 1
 317 -20 l 1
 189 334 l 1
 189 0 l 1
 58 0 l 1
EndSplineSet
Position2: "'cpsp' +BBgEPQRCBDUEQAQyBDAEOwAA +BD8EQAQ+BD8EOARBBD0ESwRF lookup 0 subtable" dx=10 dy=0 dh=20 dv=0
EndChar

StartChar: L
Encoding: 76 76 45
Width: 380
Flags: HMW
HStem: 0 111<189 362 189 362> 654 20G<58 189 189 189>
VStem: 58 131<111 674 111 674 111 674>
LayerCount: 2
Fore
SplineSet
58 -5 m 1
 58 674 l 1
 189 674 l 1
 189 102 l 5
 189 102 273 94 362 97 c 1
 362 -14 l 1
 198 -21 58 -5 58 -5 c 1
EndSplineSet
Position2: "'cpsp' +BBgEPQRCBDUEQAQyBDAEOwAA +BD8EQAQ+BD8EOARBBD0ESwRF lookup 0 subtable" dx=10 dy=0 dh=20 dv=0
EndChar

StartChar: M
Encoding: 77 77 46
Width: 637
Flags: HMW
HStem: 0 21G<33 146 33 33 482 599 482 482> 459 215<167 170 167 167 461 464 461 461> 654 20G<82 220 220 220 420 558 558 558>
VStem: 33 566<0 0>
LayerCount: 2
Fore
SplineSet
472 -10 m 1xb0
 450 409 l 1
 360 31 l 1
 267 31 l 1
 182 414 l 1
 179 414 l 1xd0
 156 0 l 1
 33 6 l 1
 82 664 l 1
 220 659 l 1
 317 244 l 5
 319 244 l 5
 420 684 l 1
 548 692 l 1
 599 0 l 1
 472 -10 l 1xb0
EndSplineSet
Position2: "'cpsp' +BBgEPQRCBDUEQAQyBDAEOwAA +BD8EQAQ+BD8EOARBBD0ESwRF lookup 0 subtable" dx=10 dy=0 dh=20 dv=0
EndChar

StartChar: N
Encoding: 78 78 47
Width: 516
Flags: HMW
HStem: 0 21G<58 173 58 58 338 338 338 458> 654 20G<58 178 178 178 343 458 458 458>
VStem: 58 115<0 152> 343 115<525 674 0 674>
LayerCount: 2
Fore
SplineSet
178 10 m 1
 63 7 l 1
 53 661 l 1
 183 664 l 1
 341 253 l 5
 343 253 l 5
 348 684 l 1
 463 681 l 1
 453 -3 l 1
 323 0 l 1
 171 429 l 1
 169 429 l 1
 178 10 l 1
EndSplineSet
Position2: "'cpsp' +BBgEPQRCBDUEQAQyBDAEOwAA +BD8EQAQ+BD8EOARBBD0ESwRF lookup 0 subtable" dx=10 dy=0 dh=20 dv=0
EndChar

StartChar: O
Encoding: 79 79 48
Width: 481
Flags: HMW
HStem: -8 114<216.5 270.5 216.5 302> 568 114<216 271.5>
VStem: 25 136<260.5 409.5 260.5 431> 319 137<274.5 402>
LayerCount: 2
Fore
SplineSet
247 682 m 4
 461 682 462 640 456 349 c 4
 449.197322129 19.0701232477 428 -8 238 -8 c 4
 52 -8 33.9106494565 27.1272690242 25 339 c 4
 16 654 42 682 247 682 c 4
242 558 m 4
 156 558 149 557 156 337 c 4
 163.377929688 105.1171875 164.001082963 97.0821769457 243 96 c 4
 316 95 316.125 101.127929688 324 343 c 4
 331 558 324 558 242 558 c 4
EndSplineSet
Position2: "'cpsp' +BBgEPQRCBDUEQAQyBDAEOwAA +BD8EQAQ+BD8EOARBBD0ESwRF lookup 0 subtable" dx=10 dy=0 dh=20 dv=0
EndChar

StartChar: P
Encoding: 80 80 49
Width: 457
Flags: HMW
HStem: 0 21G<58 58 58 189> 251 105<206 215 189 243> 571 106<215 234 170 251.5>
VStem: 58 131<0 251 0 358 358 566> 306 130<440.5 495.5>
LayerCount: 2
Fore
SplineSet
58 -10 m 5
 58 668 l 1
 195 677 l 2
 409.991883289 691.123554377 441 651 436 467 c 0
 429.588402232 231.053202153 398 231 215 231 c 2
 189 231 l 1
 189 -10 l 5
 58 -10 l 5
189 558 m 1
 189 327 l 1
 210 326 l 2
 293.097285068 322.042986425 302.633304645 337.043430772 306 456 c 0
 309 562 289.151016457 567.389157793 221 561 c 2
 189 558 l 1
EndSplineSet
Position2: "'cpsp' +BBgEPQRCBDUEQAQyBDAEOwAA +BD8EQAQ+BD8EOARBBD0ESwRF lookup 0 subtable" dx=10 dy=0 dh=20 dv=0
EndChar

StartChar: Q
Encoding: 81 81 50
Width: 481
Flags: HMW
HStem: -11 21G<487 487> -8 114<213 239> 568 114<215 271>
VStem: 25 136<340 403.5 340 429.5> 319 137<273 406>
LayerCount: 2
Fore
SplineSet
432 -62 m 5xb8
 408 -85 351 -118 318 -128 c 5xb8
 297 -90 262 -40 236 -8 c 1x78
 90 -8 34 23 25 339 c 1
 16.2598732513 645.8755614 37 692 248 692 c 1
 416 692 461.90895082 676.946770529 456 349 c 1
 452 127 450 51 380 14 c 1
 380 9 l 1
 396 -10 417 -36 432 -62 c 5xb8
242 96 m 0x78
 324 98 311.324849921 127.136404016 319 343 c 0
 327 568 314 568 242 568 c 0
 165 568 153 559 161 340 c 0
 169.578752975 105.156637315 176.019622418 94.390722498 242 96 c 0x78
EndSplineSet
Position2: "'cpsp' +BBgEPQRCBDUEQAQyBDAEOwAA +BD8EQAQ+BD8EOARBBD0ESwRF lookup 0 subtable" dx=10 dy=0 dh=20 dv=0
EndChar

StartChar: R
Encoding: 82 82 51
Width: 470
Flags: HMW
HStem: 0 21G<58 58 58 189 318 318 318 455> 269 101<189 208 189 212> 575 102<214.5 220>
VStem: 58 131<0 269 0 370 370 571> 302 132<451 503.5>
LayerCount: 2
Fore
SplineSet
58 10 m 1
 58 671 l 1
 201 677 l 2
 413.004393459 685.895289236 436 646 434 477 c 0
 432.212890625 326.006835938 413 324 330 308 c 1
 330 306 l 1
 419 288 428 290 455 10 c 1
 434 0 372 -9 338 -10 c 1
 302 264 293.967062769 254.638359832 222 259 c 2
 189 261 l 1
 189 10 l 1
 58 10 l 1
189 563 m 1
 189 359 l 1
 212 360 l 2
 290.850943396 363.428301887 309.028368063 363.964514137 312 465 c 0
 315 567 299.989637306 570.160621762 220 565 c 2
 189 563 l 1
EndSplineSet
Position2: "'cpsp' +BBgEPQRCBDUEQAQyBDAEOwAA +BD8EQAQ+BD8EOARBBD0ESwRF lookup 0 subtable" dx=10 dy=0 dh=20 dv=0
EndChar

StartChar: S
Encoding: 83 83 52
Width: 394
Flags: HMW
HStem: -6 114<135 185 135 219> 566 114<216 263>
VStem: 32 129<476 514 476 536> 246 130<162 208.5>
LayerCount: 2
Fore
SplineSet
44 11 m 1
 63 124 l 1
 91 115 131 108 164 108 c 0
 213 108 258 107 257 184 c 0
 256.36328125 232.99609375 235 246 159 294 c 0
 46.6135644702 364.98090665 30.1639213981 406.065886445 27 482 c 0
 20 650 73.9970760484 680 245 680 c 4
 283 680 331 673 364 666 c 5
 350 543 l 1
 318 551 270 557 239 557 c 4
 190 557 152 551 156 492 c 0
 158.706054688 452.091796875 178.229666842 443.809626141 254 391 c 0
 353 322 378.224229147 291.973681447 376 198 c 0
 372 29 341 -6 163 -6 c 0
 117 -6 72 2 44 11 c 1
EndSplineSet
Position2: "'cpsp' +BBgEPQRCBDUEQAQyBDAEOwAA +BD8EQAQ+BD8EOARBBD0ESwRF lookup 0 subtable" dx=10 dy=0 dh=20 dv=0
EndChar

StartChar: T
Encoding: 84 84 53
Width: 393
Flags: HMW
HStem: 0 21G<131 131 131 262> 553 121<12 131 12 382 262 262 262 382>
VStem: 131 131<0 553 0 553>
LayerCount: 2
Fore
SplineSet
141 -10 m 1
 141.157226562 555.033203125 l 5
 12.220703125 559.073242188 l 5
 16.3232421875 690.008789062 l 5
 386.141601562 678.421875 l 5
 382.0390625 547.486328125 l 5
 272.092773438 550.931640625 l 5
 272 -10 l 1
 141 -10 l 1
EndSplineSet
Position2: "'cpsp' +BBgEPQRCBDUEQAQyBDAEOwAA +BD8EQAQ+BD8EOARBBD0ESwRF lookup 0 subtable" dx=10 dy=0 dh=20 dv=0
EndChar

StartChar: U
Encoding: 85 85 54
Width: 500
Flags: HMW
HStem: -8 115<232 268 232 315> 654 20G<54 185 185 185 314 445 445 445>
VStem: 54 131<258 674> 314 131<236 259 259 674>
LayerCount: 2
Fore
SplineSet
54 664 m 1
 185 664 l 1
 185 226 l 6
 185 94 201 97 249 97 c 4
 315 97 314 124 314 226 c 6
 314 684 l 1
 445 684 l 1
 445 259 l 2
 445 33 431 -8 250 -8 c 0
 84 -8 54 13 54 258 c 2
 54 664 l 1
EndSplineSet
Position2: "'cpsp' +BBgEPQRCBDUEQAQyBDAEOwAA +BD8EQAQ+BD8EOARBBD0ESwRF lookup 0 subtable" dx=10 dy=0 dh=20 dv=0
EndChar

StartChar: V
Encoding: 86 86 55
Width: 452
Flags: HMW
HStem: 0 21G<152 299 152 152> 0 149<229 231 229 299 152 231> 654 20G<1 146 146 146 309 453 453 453>
VStem: 1 452<674 674>
LayerCount: 2
Fore
SplineSet
299 -10 m 5xb0
 152 0 l 1
 1 674 l 1
 146 684 l 1
 229 149 l 1
 231 149 l 1x70
 319 674 l 1
 453 664 l 1
 299 -10 l 5xb0
EndSplineSet
Position2: "'cpsp' +BBgEPQRCBDUEQAQyBDAEOwAA +BD8EQAQ+BD8EOARBBD0ESwRF lookup 0 subtable" dx=10 dy=0 dh=20 dv=0
EndChar

StartChar: W
Encoding: 87 87 56
Width: 679
Flags: HMW
HStem: 0 169<205 208 205 258 128 208 477 479> 654 20G<13 149 149 149 294 400 400 400 538 666 666 666>
VStem: 13 653<674 674>
LayerCount: 2
Fore
SplineSet
248 0 m 1
 128 -8 l 1
 13 659 l 1
 139 674 l 1
 205 209 l 5
 208 209 l 5
 294 624 l 1
 400 624 l 1
 477 219 l 1
 479 219 l 1
 535 684 l 1
 666 674 l 1
 547 0 l 1
 402 7 l 1
 342 392 l 1
 340 392 l 1
 248 0 l 1
EndSplineSet
Position2: "'cpsp' +BBgEPQRCBDUEQAQyBDAEOwAA +BD8EQAQ+BD8EOARBBD0ESwRF lookup 0 subtable" dx=10 dy=0 dh=20 dv=0
EndChar

StartChar: X
Encoding: 88 88 57
Width: 407
Flags: HMW
HStem: 0 21G<-3 127 -3 -3 276 411 276 276> 654 20G<2 139 139 139 273 404 404 404>
VStem: -3 414<0 0>
LayerCount: 2
Fore
SplineSet
411 5 m 1
 286 -15 l 1
 197 244 l 5
 195 244 l 5
 127 0 l 1
 2 15 l 1
 133 355 l 5
 2 674 l 1
 129 688 l 1
 209 461 l 5
 211 461 l 5
 273 674 l 1
 399 660 l 1
 268 349 l 5
 411 5 l 1
EndSplineSet
Position2: "'cpsp' +BBgEPQRCBDUEQAQyBDAEOwAA +BD8EQAQ+BD8EOARBBD0ESwRF lookup 0 subtable" dx=10 dy=0 dh=20 dv=0
EndChar

StartChar: Y
Encoding: 89 89 58
Width: 402
Flags: HMW
HStem: 0 21G<133 264 133 133> 654 20G<-15 125 125 125 279 415 415 415>
VStem: 133 131<0 258 258 258>
LayerCount: 2
Fore
SplineSet
264 -10 m 1
 133 -10 l 1
 133 258 l 1
 -15 664 l 1
 125 674 l 1
 202 370 l 5
 204 370 l 5
 279 688 l 1
 415 678 l 1
 264 263 l 1
 264 -10 l 1
EndSplineSet
Position2: "'cpsp' +BBgEPQRCBDUEQAQyBDAEOwAA +BD8EQAQ+BD8EOARBBD0ESwRF lookup 0 subtable" dx=10 dy=0 dh=20 dv=0
EndChar

StartChar: Z
Encoding: 90 90 59
Width: 387
Flags: HMW
HStem: 0 114<168 371 168 371> 560 114<31 224 31 372>
VStem: 11 361 224 148<557 674 560 674>
LayerCount: 2
Fore
SplineSet
19.484375 7.03515625 m 1xe0
 21.841796875 83.9990234375 l 1
 226.119140625 546.787109375 l 1
 226.119140625 546.787109375 227.022784869 549.784179688 225.989257812 549.784179688 c 0
 180 549.784179688 143 549 26.177734375 536.029296875 c 4
 17.8310546875 664.9140625 l 0
 146 682 238.81143613 683.852843109 368.50390625 680.05078125 c 0
 373.118164062 573.150390625 l 1xd0
 179.686523438 109.178710938 l 1
 179.594726562 106.180664062 l 1
 362.508789062 100.578125 l 1
 359.325195312 -3.373046875 l 1
 19.484375 7.03515625 l 1xe0
EndSplineSet
Position2: "'cpsp' +BBgEPQRCBDUEQAQyBDAEOwAA +BD8EQAQ+BD8EOARBBD0ESwRF lookup 0 subtable" dx=10 dy=0 dh=20 dv=0
EndChar

StartChar: bracketleft
Encoding: 91 91 60
Width: 258
Flags: HMW
HStem: -112 84<149 235 149 235> 598 84<149 235 149 149>
VStem: 50 99<-28 598 -28 682 -28 682>
LayerCount: 2
Fore
SplineSet
235 -112 m 1
 50 -112 l 1
 40 682 l 5
 235 682 l 1
 235 588 l 1
 149 588 l 1
 149 -28 l 1
 235 -28 l 1
 235 -112 l 1
EndSplineSet
Substitution2: "'case' +BCAENQQzBDgEQQRCBEAEPgQ3BDAEMgQ4BEEEOAQ8BEsENQAA +BEQEPgRABDwESwAA lookup 4 subtable" bracketleft.cap
Substitution2: "'aalt' +BBIEQQQ1 +BDAEOwRMBEIENQRABD0EMARCBDgEMgQ9BEsENQAA +BDIEMARABDgEMAQ9BEIESwAA lookup 0 subtable" bracketleft.cap
EndChar

StartChar: backslash
Encoding: 92 92 61
Width: 233
Flags: HMW
HStem: 662 20G<-17 68 68 68>
VStem: -17 272
LayerCount: 2
Fore
SplineSet
255 -40 m 1
 170 -50 l 5
 -17 682 l 1
 78 692 l 1
 255 -40 l 1
EndSplineSet
EndChar

StartChar: bracketright
Encoding: 93 93 62
Width: 258
Flags: HMW
HStem: -112 84<23 109 23 208 23 109> 602 84<23 109 23 208>
VStem: 109 99<-28 602 602 602>
LayerCount: 2
Fore
SplineSet
23 696 m 1
 218 696 l 5
 208 -112 l 1
 23 -112 l 1
 23 -28 l 1
 109 -28 l 1
 109 602 l 1
 23 602 l 1
 23 696 l 1
EndSplineSet
Substitution2: "'case' +BCAENQQzBDgEQQRCBEAEPgQ3BDAEMgQ4BEEEOAQ8BEsENQAA +BEQEPgRABDwESwAA lookup 4 subtable" bracketright.cap
Substitution2: "'aalt' +BBIEQQQ1 +BDAEOwRMBEIENQRABD0EMARCBDgEMgQ9BEsENQAA +BDIEMARABDgEMAQ9BEIESwAA lookup 0 subtable" bracketright.cap
EndChar

StartChar: asciicircum
Encoding: 94 94 63
Width: 596
Flags: HMW
HStem: 538 112<295 300 295 295>
VStem: 44 508<177 177>
LayerCount: 2
Fore
SplineSet
552 197 m 1
 452 167 l 1
 298 534 l 5
 293 534 l 5
 133 177 l 1
 44 197 l 1
 254 644 l 1
 340 650 l 1
 552 197 l 1
EndSplineSet
EndChar

StartChar: underscore
Encoding: 95 95 64
Width: 500
Flags: HMW
HStem: -125 50<0 500 0 500>
VStem: 0 500<-125 -75 -125 -75>
LayerCount: 2
Fore
SplineSet
0 -75 m 1
 194.000037627 -66.4647386962 306.000030058 -67.5552660954 500 -75 c 1
 504 -83 502 -126 500 -135 c 5
 314 -134 213.4140625 -136.2109375 0 -145 c 5
 2 -129 3 -89 0 -75 c 1
EndSplineSet
EndChar

StartChar: quoteleft
Encoding: 8216 8216 65
Width: 190
Flags: MW
HStem: 662 20G<188 188>
VStem: 8 180
LayerCount: 2
Fore
SplineSet
121 431 m 1
 8 421 l 1
 35 511 78 602 120 675 c 1
 188 682 l 1
 159 599 132 511 121 431 c 1
EndSplineSet
EndChar

StartChar: a
Encoding: 97 97 66
Width: 422
Flags: HMW
HStem: -8 21G<111 169.5> -8 96<111 200.5> 0 21G<265 383 265 265> 238 85<243 247> 400 97<168 197>
VStem: 19 124<130.5 189 130.5 205> 247 128<153 238 238 238>
LayerCount: 2
Fore
SplineSet
393 20 m 1x3e
 356 7 306 0 265 0 c 1x3e
 261 12 259.209960938 22.2099609375 256 38 c 1
 227 6 217 -8 148 -8 c 0x9e
 34.9823022708 -8 17.2832290823 54.0169401687 19 141 c 0
 22 293 70 324 243 323 c 1
 243 334 l 2
 243 391 235 405 186 405 c 0
 139.826171875 405 112 400 74 392 c 5
 67 424 61 468 60 497 c 1
 107 505 142.638671875 514.426757812 202 514 c 0
 341 513 375 474 375 294 c 2
 375 152 l 2
 375 113 381 70 393 20 c 1x3e
247 153 m 2x5e
 247 238 l 1
 168 237 143 223 143 155 c 0
 143 106 151.014632017 82.8871648547 190 88 c 0
 251 96 247 113.273386067 247 153 c 2x5e
EndSplineSet
Substitution2: "'sups' +BBIENQRABEUEPQQ4BDkA +BDgEPQQ0BDUEOgRB lookup 12 subtable" a.superior
Substitution2: "'ordn' Ordinals lookup 11 subtable" a.superior
AlternateSubs2: "'aalt' +BBIEQQQ1 +BDAEOwRMBEIENQRABD0EMARCBDgEMgQ9BEsENQAA +BDIEMARABDgEMAQ9BEIESwAA lookup 1 subtable" ordfeminine a.superior
EndChar

StartChar: b
Encoding: 98 98 67
Width: 447
Flags: HMW
HStem: -8 107<238.5 248 218 304.5> 0 99<41 248> 387 110<215 327.5> 672 20G<45 176 176 176>
VStem: 45 131<169 175 175 312 440 692> 288 130<201 290>
LayerCount: 2
Fore
SplineSet
153 10 m 1x7c
 35 20 l 1x7c
 44 91 45 168 45 215 c 2
 45 692 l 1
 176 692 l 1
 176 470 l 1
 178 470 l 1
 196 487 233 497 280 497 c 0
 375 497 418 475 418 258 c 0
 418 9 378 -8 259 -8 c 4
 218 -8 177 -11 163 38 c 5
 160 38 l 1xbc
 153 10 l 1x7c
176 312 m 2
 176 165 l 2
 176 98 203.354376381 89 226 89 c 0xbc
 270 89 288 90 288 248 c 4
 288 367 289 387 225 387 c 0
 196.991790334 387 176 381 176 312 c 2
EndSplineSet
EndChar

StartChar: c
Encoding: 99 99 68
Width: 323
Flags: HMW
HStem: -6 107<226.5 252.5> 389 107<227.5 268.5 185.5 270>
VStem: 29 130<199.5 286.5 199.5 315.5>
LayerCount: 2
Fore
SplineSet
306 96 m 1
 312 1 l 1
 294 -4 252 -6 234 -6 c 0
 68 -6 37.2914868077 17.972408817 29 240 c 4
 20 481 70 496 253 496 c 0
 268 496 304 493 325 488 c 1
 313 383 l 1
 299 387 273 389 259 389 c 0
 196 389 154 388 159 244 c 4
 163.823482091 105.083715784 178 91 257 91 c 4
 266 91 294 92 306 96 c 1
EndSplineSet
EndChar

StartChar: d
Encoding: 100 100 69
Width: 447
Flags: HMW
HStem: -8 107<202.5 203.5> 0 21G<292 405 292 292> 387 110<199 207.5 144.5 235> 672 20G<270 401 401 401>
VStem: 29 130<194.5 280.5 194.5 329> 270 131<172 301 301 305.5 448 692>
LayerCount: 2
Fore
SplineSet
270 702 m 5x7c
 401 702 l 5
 401 195 l 2
 401 148 403 60 405 15 c 1
 287 10 l 1x7c
 285 45 l 1
 283 45 l 1
 265 11 226 -8 181 -8 c 0xbc
 36 -8 29 22 29 244 c 0
 29 482 56 497 186 497 c 0
 229 497 246 493 268 468 c 1
 270 468 l 1
 270 702 l 5x7c
270 162 m 2xbc
 270 301 l 2
 270 382 257.460558341 387 222 387 c 0
 176 387 159 376 159 231 c 0
 159 85 184 89 221 89 c 0
 244.848632812 89 270 90 270 162 c 2xbc
EndSplineSet
EndChar

StartChar: e
Encoding: 101 101 70
Width: 419
Flags: HMW
HStem: -6 100<230 260> 198 92<156 272 156 387 155 272> 402 95<195.5 236.5>
VStem: 29 126<198 198 198 317> 272 119<290 321.5>
LayerCount: 2
Fore
SplineSet
387 198 m 1
 155 188 l 1
 157 112 164 84 259 84 c 0
 279 84 318 85 342 90 c 1
 358 3 l 1
 323 -3 257 -6 235 -6 c 0
 62 -6 36.7127141856 17.1158242554 29 235 c 0
 21 461 36.0021758274 495.650015542 225 497 c 0
 365 498 404.5 495.5 391 266 c 2
 387 198 l 1
156 280 m 1
 282 290 l 5
 291 391 276.538085938 394.227539062 217 392 c 4
 153.97265625 389.641601562 156 373 156 280 c 1
EndSplineSet
EndChar

StartChar: f
Encoding: 102 102 71
Width: 286
Flags: HMW
HStem: 0 21G<69 200 69 69> 396 93<3 69 3 69 200 285> 593 107<238 253 213 268>
VStem: 69 131<0 396 489 509 509 512>
LayerCount: 2
Fore
SplineSet
200 -10 m 1
 69 -10 l 1
 68.9013671875 382.333984375 l 1
 2.9130859375 381.071289062 l 5
 3.1201171875 481.853515625 l 1
 69.1083984375 480.622070312 l 1
 69 509 l 2
 68.3582804669 676.99754875 115.98969149 700 236 700 c 0
 248 700 294 698 315 693 c 1
 300 581 l 1
 288 583 276 583 260 583 c 0
 216 583 200 555 200 512 c 2
 200.0859375 478.178710938 l 1
 285.071289062 476.592773438 l 1
 284.861328125 388.467773438 l 1
 199.876953125 386.840820312 l 1
 200 -10 l 1
EndSplineSet
EndChar

StartChar: g
Encoding: 103 103 72
Width: 447
Flags: HMW
HStem: -200 103<161.5 213 161 220> 3 103<127 230.5> 387 102<201.5 407> 387 110<201.5 213.5 148.5 236>
VStem: 29 130<197.5 283 197.5 321.5> 272 130<22 52 52 52 180 311 311 317.5>
LayerCount: 2
Fore
SplineSet
293 489 m 1xec
 407 479 l 1xec
 405 435 402 393 402 334 c 2
 402 55 l 2
 402 -206 356 -200 184 -200 c 0
 157 -200 115 -197 82 -190 c 1
 96 -96 l 1
 122 -104 156 -107 180 -107 c 0
 270 -107 272 -95 272 22 c 2
 272 32 l 5
 270 32 l 5
 264 6 227 3 182 3 c 0
 52 3 29 7 29 240 c 0
 29 487 60 497 194 497 c 0
 233 497 265 497 284 460 c 1
 286 460 l 1xdc
 293 489 l 1xec
272 311 m 0
 272 374 260.517683996 377 225 377 c 0xdc
 172 377 159 377 159 243 c 0
 159 110 162 106 222 106 c 0
 282 106 272 110 272 311 c 0
EndSplineSet
EndChar

StartChar: h
Encoding: 104 104 73
Width: 458
Flags: HMW
HStem: 0 21G<46 46 46 177 281 281 281 412> 387 110<222 332> 477 20G<275 332> 672 20G<46 177 177 177>
VStem: 46 131<0 304 438 692> 281 131<0 297 0 321>
LayerCount: 2
Fore
SplineSet
51.591796875 -1.787109375 m 5xbc
 40.9794921875 700.1328125 l 5
 171.96484375 702.11328125 l 5
 175.8046875 448.142578125 l 5
 177.8046875 448.172851562 l 5
 197.106445312 494.469726562 239.24609375 498.80078125 290.579101562 498.052734375 c 0
 400.567382812 496.44921875 415.536132812 494.23046875 412.650390625 296.251953125 c 2
 408.466796875 9.2822265625 l 1
 277.481445312 11.19140625 l 1
 282.1015625 328.158203125 l 2
 282.801757812 376.153320312 272 387 233 387 c 0
 200.271222697 387 176.813476562 381.43359375 177.528320312 334.155273438 c 6xdc
 182.577148438 0.193359375 l 5
 51.591796875 -1.787109375 l 5xbc
EndSplineSet
EndChar

StartChar: i
Encoding: 105 105 74
Width: 223
Flags: HMW
HStem: 0 21G<46 177 46 46> 469 20G<46 177 177 177> 548 142<92 128>
VStem: 46 131<0 489>
LayerCount: 2
Fore
SplineSet
35 700 m 5
 168 700 l 5
 168 568 l 5
 35 568 l 5
 35 700 l 5
177 10 m 1
 46 10 l 1
 46 489 l 1
 177 489 l 1
 177 10 l 1
EndSplineSet
Substitution2: "'locl' Localized Forms in Latin lookup 2 subtable" i.dot
Substitution2: "'aalt' +BBIEQQQ1 +BDAEOwRMBEIENQRABD0EMARCBDgEMgQ9BEsENQAA +BDIEMARABDgEMAQ9BEIESwAA lookup 0 subtable" i.dot
EndChar

StartChar: j
Encoding: 106 106 75
Width: 224
Flags: HMW
HStem: -200 21G<-29 -5.5> 469 20G<47 179 179 179> 548 142<94.5 130.5>
VStem: 47 132<60 489>
LayerCount: 2
Fore
SplineSet
47 710 m 1
 178 710 l 1
 178 569 l 1
 47 569 l 1
 47 710 l 1
-29 -210 m 1
 -49 -96 l 5
 47 -74 47 -70 47 60 c 2
 47 489 l 1
 179 489 l 1
 179 35 l 2
 179 -176 168 -180 -29 -210 c 1
EndSplineSet
EndChar

StartChar: k
Encoding: 107 107 76
Width: 413
Flags: HMW
HStem: 0 21G<45 176 45 45 268 414 268 268> 469 20G<266 407 407 407> 672 20G<45 176 176 176>
VStem: 45 131<0 159 275 692>
LayerCount: 2
Fore
SplineSet
176 692 m 1
 176 275 l 1
 178 275 l 1
 286 499 l 1
 379 461 l 5
 289 284 l 1
 414 10 l 1
 278 -20 l 1
 176 249 l 1
 176 0 l 1
 45 0 l 1
 45 692 l 1
 176 692 l 1
EndSplineSet
EndChar

StartChar: l
Encoding: 108 108 77
Width: 225
Flags: HMW
HStem: 0 21G<46 46 46 177> 672 20G<46 177 177 177>
VStem: 46 131<0 692 0 692>
LayerCount: 2
Fore
SplineSet
39.2275390625 -8.865234375 m 5
 50.576171875 595.026367188 l 1
 10.6982421875 601.7890625 l 1
 22.6455078125 703.580078125 l 1
 183.443359375 691.505859375 l 1
 170.204101562 -11.3681640625 l 5
 39.2275390625 -8.865234375 l 5
EndSplineSet
EndChar

StartChar: m
Encoding: 109 109 78
Width: 680
Flags: HMW
HStem: 0 21G<46 46 46 176 275 275 275 405 504 504 504 634> 389 100<42 250.5> 389 108<220 308.5>
VStem: 46 130<0 308 0 342 0 369> 275 130<0 307 307 310 0 324.5> 504 130<0 288 288 310 0 316>
CounterMasks: 1 1c
LayerCount: 2
Fore
SplineSet
56 0 m 1xbc
 46 302 l 2
 46 356 43 443 42 489 c 1
 156 499 l 1xdc
 162 442 l 1
 164 442 l 1
 190 498 230.00430035 496.337718186 281 497 c 0
 358 498 372 496 388 441 c 1
 390 441 l 1
 430 498 450.956742658 496.554349552 508 497 c 0
 636 498 639.445596062 482.080835568 634 310 c 2
 624 -6 l 1
 494 0 l 1
 504 278 l 6
 507.198242188 370.09765625 510 380 458 379 c 4
 425.1328125 378.368164062 405 358 405 300 c 6
 405 -10 l 1
 275 -10 l 1
 275 307 l 2
 275 370 278 390 230 389 c 0
 198.229376884 388.338112018 173.136514983 393.904550499 176 308 c 2
 186 8 l 1
 56 0 l 1xbc
EndSplineSet
EndChar

StartChar: n
Encoding: 110 110 79
Width: 458
Flags: HMW
HStem: 0 21G<46 46 46 177 281 281 281 412> 387 110<222 328.5> 469 20G<42 155 155 155>
VStem: 46 131<0 298 0 342 0 369> 281 131<0 306 306 314 0 327>
LayerCount: 2
Fore
SplineSet
46 0 m 1xb8
 46 342 l 2
 46 396 43 423 42 469 c 1
 155 479 l 1xb8
 161 443 l 1
 163 443 l 1
 189 482 231 497 282 497 c 0
 400 497 412 474 412 314 c 2
 412 10 l 1
 281 10 l 1
 281 296 l 6
 281 367 286 378 233 377 c 4
 197.061523438 376.322265625 177 374 177 288 c 6xd8
 177 0 l 1
 46 0 l 1xb8
EndSplineSet
EndChar

StartChar: o
Encoding: 111 111 80
Width: 431
Flags: HMW
HStem: -8 100<195.5 240 195.5 253> 398 99<193 239>
VStem: 29 130<204 279.5 204 331> 272 131<210 279.5>
LayerCount: 2
Fore
SplineSet
218 497 m 4
 333 497 403 484 403 246 c 4
 403 42 396 -8 216 -8 c 4
 99 -8 29 12 29 243 c 4
 29 419 42 497 218 497 c 4
217 388 m 4
 160 388 159 370 159 236 c 4
 159 92 172 82 219 82 c 4
 261 82 272 90 272 236 c 4
 272 376 269 388 217 388 c 4
EndSplineSet
Substitution2: "'sups' +BBIENQRABEUEPQQ4BDkA +BDgEPQQ0BDUEOgRB lookup 12 subtable" o.superior
Substitution2: "'ordn' Ordinals lookup 11 subtable" o.superior
AlternateSubs2: "'aalt' +BBIEQQQ1 +BDAEOwRMBEIENQRABD0EMARCBDgEMgQ9BEsENQAA +BDIEMARABDgEMAQ9BEIESwAA lookup 1 subtable" ordmasculine o.superior
EndChar

StartChar: p
Encoding: 112 112 81
Width: 447
Flags: HMW
HStem: -192 21G<45 45 45 176> -8 107<239 248 217.5 300> 387 102<41 245.5> 387 110<243.5 245.5>
VStem: 45 131<-192 40 170.5 179 179 310> 287 131<205.5 290.5>
LayerCount: 2
Fore
SplineSet
52.123046875 -194.125 m 1xdc
 42.919921875 331.794921875 l 2
 41.88671875 390.78515625 38.837890625 460.741210938 36.033203125 506.69921875 c 1
 150.840820312 515.692382812 l 5xec
 157.819335938 452.823242188 l 1
 159.819335938 452.858398438 l 1
 179.116210938 493.202148438 230.014648438 500.02734375 274.989257812 498.505859375 c 0
 408.912109375 493.974609375 426.361328125 477.375 418.380859375 241.509765625 c 0
 410.366210938 4.6455078125 382.840820312 -10.4326171875 250.916015625 -5.96875 c 0
 210.939453125 -4.6162109375 195.793945312 -2.58203125 181.393554688 20.169921875 c 1
 179.393554688 20.134765625 l 1
 183.102539062 -191.833007812 l 1
 52.123046875 -194.125 l 1xdc
174.494140625 300.091796875 m 2xdc
 176.786132812 169.112304688 l 2
 178.01171875 99.123046875 197.212890625 89 225 89 c 0
 271 89 282.349609375 95.025390625 287.083984375 234.9453125 c 0
 291.716796875 371.8671875 284 377 226 377 c 0
 193.96484375 377 173.19921875 374.080078125 174.494140625 300.091796875 c 2xdc
EndSplineSet
EndChar

StartChar: q
Encoding: 113 113 82
Width: 447
Flags: HMW
HStem: -192 21G<271 271 271 402> -8 107<129 230.5> 387 102<201.5 406> 387 110<201.5 210 147.5 232>
VStem: 29 131<199.5 288.5 199.5 316.5> 271 131<-192 42 42 42 174 310 310 314.5>
LayerCount: 2
Fore
SplineSet
271 -202 m 1xdc
 271 32 l 1
 269 32 l 1
 249 3 218 -8 176 -8 c 4
 42 -8 29 0 29 234 c 4
 29 477 55 497 194 497 c 0
 226 497 263 493 284 448 c 1
 286 447 l 1xdc
 293 469 l 1
 406 462 l 1xec
 404 418 402 272 402 214 c 2
 402 -202 l 1
 271 -202 l 1xdc
271 164 m 2
 271 310 l 2
 271 349.841675382 271 387 222 387 c 0
 171 387 160 368 160 234 c 0
 160 90 182 89 222 89 c 0
 270 89 271 123.920898438 271 164 c 2
EndSplineSet
EndChar

StartChar: r
Encoding: 114 114 83
Width: 294
Flags: HMW
HStem: 0 21G<45 45 45 177> 367 130<248 267.5> 469 20G<41 155 155 155> 477 20G<244 268.5>
VStem: 45 132<0 248 0 342 0 366.5>
LayerCount: 2
Fore
SplineSet
45 -7 m 1x98
 35 342 l 2
 35 391 33 424 31 469 c 1
 151 479 l 1xa8
 155 438 l 1
 158 438 l 1
 170 519 210 509 291 495 c 5
 294 448 290 388 284 365 c 5
 168 381 162.204532173 366.927602104 167 248 c 6
 177 0 l 1
 45 -7 l 1x98
EndSplineSet
EndChar

StartChar: s
Encoding: 115 115 84
Width: 324
Flags: HMW
HStem: -6 98<113.5 147 113.5 180.5> 399 98<179.5 208.5 139 209> 477 20G<139 208.5>
VStem: 27 120<346 368 346 387> 183 120<121.5 148.5>
LayerCount: 2
Fore
SplineSet
28 12 m 1xd8
 52 102 l 1
 79 90 114 86 130 86 c 4
 182 86 193 87 193 132 c 4
 193 157 159 167 116 192 c 0
 36 237 17 298 17 343 c 0
 17 495 59 497 188 497 c 0xd8
 208 497 266 492 297 485 c 1xb8
 274 382 l 1
 254 386 211 389 196 389 c 0
 163 389 137 394 137 347 c 0
 137 325 148 313 194 286 c 0
 266 245 303 200 303 144 c 0
 303 0 276 -6 130 -6 c 0
 113 -6 55 0 28 12 c 1xd8
EndSplineSet
EndChar

StartChar: t
Encoding: 116 116 85
Width: 311
Flags: HMW
HStem: -6 108<186 256.5> 396 93<11 69 11 69 200 296>
VStem: 69 131<165 173 173 396 489 590 590 590>
LayerCount: 2
Fore
SplineSet
69 620 m 1
 200 621 l 1
 199.749023438 501.354492188 l 5
 295.668945312 505.2578125 l 5
 296 396 l 1
 200 396 l 1
 200 173 l 2
 200 86 204 91 284 85 c 1
 275 -27 l 1
 76 -26 69 7 69 165 c 2
 69 396 l 1
 11 396 l 1
 10.9052734375 493.668945312 l 5
 68.857421875 496.02734375 l 5
 69 620 l 1
EndSplineSet
EndChar

StartChar: u
Encoding: 117 117 86
Width: 452
Flags: HMW
HStem: -8 110<126.5 234> 0 102<204.5 408 204.5 295> 469 20G<42 174 174 174 273 404 404 404>
VStem: 42 132<193 207 207 489> 273 131<177 489>
LayerCount: 2
Fore
SplineSet
404 479 m 5xb8
 404 179 l 2
 404 127 406 56 408 10 c 1
 295 0 l 1x78
 288 32 l 1
 286 32 l 1
 262 -16 223 -18 173 -18 c 0
 54 -18 42 0 42 183 c 2
 42 489 l 1
 174 489 l 1
 174 187 l 2
 174 88 186 82 223 82 c 0
 258.946289062 82 273 84 273 157 c 2
 273 479 l 5
 404 479 l 5xb8
EndSplineSet
EndChar

StartChar: v
Encoding: 118 118 87
Width: 395
Flags: HMW
HStem: 0 21G<138 259 138 138> 0 134<202 204 202 259 138 204> 469 20G<5 144 144 144 261 390 390 390>
VStem: 5 385<489 489>
LayerCount: 2
Fore
SplineSet
5 489 m 1xb0
 136 509 l 1
 202 144 l 5
 204 144 l 5x70
 261 489 l 1
 390 479 l 1
 259 0 l 1
 138 0 l 1
 5 489 l 1xb0
EndSplineSet
EndChar

StartChar: w
Encoding: 119 119 88
Width: 616
Flags: HMW
HStem: 0 130<188 191 188 237 125 191 429 432> 324 165<307 309 307 307> 469 20G<5 145 145 145 261 362 362 362 479 608 608 608>
VStem: 5 603<489 489>
LayerCount: 2
Fore
SplineSet
5 479 m 1xb0
 145 489 l 1
 198 180 l 1
 201 180 l 1
 251 463 l 1
 352 469 l 1
 416 190 l 5
 419 190 l 5
 483 499 l 1
 608 489 l 1
 482 0 l 1
 371 8 l 1
 299 304 l 1
 297 304 l 1xd0
 237 0 l 1
 125 -9 l 1
 5 479 l 1xb0
EndSplineSet
EndChar

StartChar: x
Encoding: 120 120 89
Width: 396
Flags: HMW
HStem: 0 21G<6 137 6 6 248 391 248 248> 469 20G<7 149 149 149 257 389 389 389>
VStem: 6 385<0 0>
LayerCount: 2
Fore
SplineSet
7 489 m 1
 143 509 l 1
 200 334 l 1
 202 334 l 1
 257 489 l 1
 379 469 l 1
 278 259 l 1
 391 0 l 1
 255 -20 l 1
 205 153 l 5
 203 153 l 5
 137 0 l 1
 16 20 l 1
 125 233 l 1
 7 489 l 1
EndSplineSet
EndChar

StartChar: y
Encoding: 121 121 90
Width: 391
Flags: HMW
HStem: 469 20G<5 146 146 146 262 390 390 390>
VStem: 5 385<489 489>
LayerCount: 2
Fore
SplineSet
15 469 m 1
 146 489 l 1
 207 163 l 5
 209 163 l 5
 272 509 l 1
 390 489 l 1
 290 112 l 2
 217.780370607 -160.268002813 220 -167 70 -215 c 1
 30 -102 l 1
 106 -85 145 -78 143 18 c 0
 142.875027118 23.9986983404 141 30 139 36 c 2
 15 469 l 1
EndSplineSet
EndChar

StartChar: z
Encoding: 122 122 91
Width: 351
Flags: HMW
HStem: 0 107<163 331 163 331> 382 107<33 184 33 327>
VStem: 18 313<0 82 82 82> 33 294<400 489 400 489 400 489>
LayerCount: 2
Fore
SplineSet
38 0 m 1xe0
 28 82 l 1xe0
 194 379 l 1
 194 382 l 1
 194 382 110 395 21 392 c 1
 16 425 19 474 25 499 c 1
 174 512 327 479 327 479 c 1
 327 380 l 1xd0
 163 110 l 1
 163 107 l 1
 321 107 l 1
 311 0 l 5
 38 0 l 1xe0
EndSplineSet
EndChar

StartChar: braceleft
Encoding: 123 123 92
Width: 258
Flags: HMW
HStem: -112 81<173 235 222 235 222 235> 248 79<10 37> 605 80<216 220 220 235>
VStem: 10 88<288 290 288 327 288 327> 64 102<20.5 46 526 555> 76 98<179 198 154 204 379 396.5>
LayerCount: 2
Fore
SplineSet
16 218 m 1xf0
 10 307 l 1
 64 307 76 336 76 363 c 0xe4
 76 417.862304688 70.1788555104 485.214147808 64 540 c 0
 49 673 118.612716763 668.01734104 216 683 c 2
 229 685 l 1
 235 602 l 1
 220 600 l 2
 134.565435656 588.608724754 149.900394767 585.987715068 174 391 c 0xe8
 185 302 182 302 108 270 c 1
 108 268 l 1
 186 258 184 241 174 144 c 0xf0
 159.153004555 -0.0158558154598 143.529411765 -15.8823529412 212 -33 c 6
 228 -37 l 5
 223 -114 l 5
 204 -112 l 6
 115.506849315 -102.684931507 72 -98 78 31 c 0xe8
 81.7215551879 111.01343654 86 118.217773438 86 172 c 0xe4
 86 196 70 218 16 218 c 1xf0
EndSplineSet
Substitution2: "'case' +BCAENQQzBDgEQQRCBEAEPgQ3BDAEMgQ4BEEEOAQ8BEsENQAA +BEQEPgRABDwESwAA lookup 4 subtable" braceleft.cap
Substitution2: "'aalt' +BBIEQQQ1 +BDAEOwRMBEIENQRABD0EMARCBDgEMgQ9BEsENQAA +BDIEMARABDgEMAQ9BEIESwAA lookup 0 subtable" braceleft.cap
EndChar

StartChar: bar
Encoding: 124 124 93
Width: 218
Flags: HMW
HStem: -250 1000<61 158 61 158>
VStem: 61 97<-250 750 -250 750>
LayerCount: 2
Fore
SplineSet
55 750 m 1
 162 760 l 5
 158 -240 l 5
 61 -250 l 1
 55 750 l 1
EndSplineSet
EndChar

StartChar: braceright
Encoding: 125 125 94
Width: 258
Flags: MW
HStem: -112 81<23 36 23 44 23 36> 248 79<221 248> 605 80<23 38 23 41>
VStem: 84 98<179 198 379 396.5> 92 102<20.5 46 -21.5 49.5 526 555> 160 88<288 290 290 290>
LayerCount: 2
Fore
SplineSet
248 327 m 1xe4
 248 248 l 1
 194 248 182 216 182 192 c 0xf0
 182 166 185 139 188 113 c 0
 191 86 194 60 194 32 c 0
 194 -75 126 -112 44 -112 c 2
 23 -112 l 1
 23 -31 l 1
 36 -31 l 1
 82 -27 92 2 92 39 c 0
 92 60 90 81 88 101 c 0
 86 123 84 144 84 164 c 0xe8
 84 232 110 272 160 288 c 1
 160 290 l 1
 110 306 84 347 84 411 c 0xe4
 84 431 86 450 88 471 c 0
 90 491 92 513 92 536 c 0
 92 574 76 601 38 605 c 1
 23 605 l 1
 23 685 l 1
 41 685 l 2
 136 685 194 636 194 540 c 0xe8
 194 512 191 486 188 460 c 0
 185 435 182 410 182 383 c 0xf0
 182 356 194 327 248 327 c 1xe4
EndSplineSet
Substitution2: "'case' +BCAENQQzBDgEQQRCBEAEPgQ3BDAEMgQ4BEEEOAQ8BEsENQAA +BEQEPgRABDwESwAA lookup 4 subtable" braceright.cap
Substitution2: "'aalt' +BBIEQQQ1 +BDAEOwRMBEIENQRABD0EMARCBDgEMgQ9BEsENQAA +BDIEMARABDgEMAQ9BEIESwAA lookup 0 subtable" braceright.cap
EndChar

StartChar: asciitilde
Encoding: 126 126 95
Width: 596
Flags: HMW
HStem: 191 88<402.5 427.5 402.5 458> 284 86<173.5 198>
VStem: 57 84<201 233> 456 83<332.5 361>
LayerCount: 2
Fore
SplineSet
141 201 m 1
 57 211 l 1
 86 383 118 380 182 380 c 0x70
 228 380 251 366 325 320 c 4
 385.155545657 282.606012159 402 269 423 269 c 4
 445 269 445 282 456 361 c 1
 539 351 l 1
 516 202 509 191 427 191 c 0xb0
 383 191 363.70263469 191.488456824 286 237 c 0
 216 278 199 284 177 284 c 0
 160 284 154 276 141 201 c 1
EndSplineSet
EndChar

StartChar: exclamdown
Encoding: 161 161 96
Width: 236
Flags: HMW
HStem: -192 21G<47 190 47 47> 332 162<98 139.5 98 141.5> 474 20G<98 139.5>
VStem: 43 150<389 436.5> 54.5 127.5
LayerCount: 2
Fore
SplineSet
190 -212 m 1xa8
 47 -212 l 1
 62 261 l 1
 174 261 l 1
 190 -212 l 1xa8
184 495 m 0xb0
 175 333 l 0
 47 333 l 4xd0
 35 494 l 0
 184 495 l 0xb0
EndSplineSet
Substitution2: "'case' +BCAENQQzBDgEQQRCBEAEPgQ3BDAEMgQ4BEEEOAQ8BEsENQAA +BEQEPgRABDwESwAA lookup 4 subtable" exclamdown.cap
Substitution2: "'aalt' +BBIEQQQ1 +BDAEOwRMBEIENQRABD0EMARCBDgEMgQ9BEsENQAA +BDIEMARABDgEMAQ9BEIESwAA lookup 0 subtable" exclamdown.cap
EndChar

StartChar: cent
Encoding: 162 162 97
Width: 426
Flags: HMW
HStem: 90 98<296 296> 461 195<248 290.5>
VStem: 55 130<289 361 281 383> 212 84<-7 90>
LayerCount: 2
Fore
SplineSet
296 -7 m 1
 202 -7 l 1
 202 93 l 1xd0
 105.43752004 104.141824611 55 135 55 324 c 0xf0
 55 526 108 543 204 555 c 1
 204 656 l 1
 298 656 l 1
 298 562 l 1
 332 561 361 554 378 545 c 1
 362 445 l 1xd0
 336 458 294 461 267 461 c 0
 209 461 185 446 185 322 c 0
 185 206 191 188 273 188 c 0xf0
 290 188 326 191 352 198 c 5
 362 100 l 5
 343 94 321 91 296 90 c 5
 296 -7 l 1
EndSplineSet
Substitution2: "'onum' Oldstyle Figures lookup 14 subtable" cent.taboldstyle
Substitution2: "'subs' +BB0EOAQ2BD0EOAQ5 +BDgEPQQ0BDUEOgRB lookup 13 subtable" cent.inferior
Substitution2: "'sups' +BBIENQRABEUEPQQ4BDkA +BDgEPQQ0BDUEOgRB lookup 12 subtable" cent.superior
Substitution2: "'dnom' Denominators lookup 6 subtable" cent.denominator
Substitution2: "'numr' Numerators lookup 5 subtable" cent.numerator
AlternateSubs2: "'aalt' +BBIEQQQ1 +BDAEOwRMBEIENQRABD0EMARCBDgEMgQ9BEsENQAA +BDIEMARABDgEMAQ9BEIESwAA lookup 1 subtable" cent.numerator cent.denominator cent.superior cent.inferior cent.taboldstyle
EndChar

StartChar: sterling
Encoding: 163 163 98
Width: 426
Flags: HMW
HStem: 0 110<185 384 185 384> 281 87<43 108 43 122 43 108 244 244 244 336> 548 110<266 301.5>
VStem: 97 124<450 491 450 518> 125 119<200.5 281>
LayerCount: 2
Fore
SplineSet
377 -10 m 1xf0
 40 0 l 5
 36 82 l 1
 110.867627162 111.947050865 137.587890625 194.864257812 122 278 c 1
 48 275 l 1
 43 362 l 1xe8
 108 365 l 1
 62 568 43 658 282 658 c 0
 304 658 337 656 365 651 c 1
 345 543 l 1
 331 546 314 548 289 548 c 0
 141 548 219.262695312 441.0546875 232 371 c 1xf0
 336 374 l 1
 340 287 l 1
 244 284 l 1
 248.704101562 208.73828125 228.86165097 152.487677818 185 112 c 1
 185 110 l 1xe8
 384 100 l 1
 377 -10 l 1xf0
EndSplineSet
Substitution2: "'onum' Oldstyle Figures lookup 14 subtable" sterling.taboldstyle
Substitution2: "'aalt' +BBIEQQQ1 +BDAEOwRMBEIENQRABD0EMARCBDgEMgQ9BEsENQAA +BDIEMARABDgEMAQ9BEIESwAA lookup 0 subtable" sterling.taboldstyle
EndChar

StartChar: fraction
Encoding: 8260 8260 99
Width: 117
Flags: MW
HStem: -8 21G<-150 -81 -150 -150> 638 20G<199 267 267 267>
VStem: -150 417
LayerCount: 2
Fore
SplineSet
-81 -8 m 1
 -150 -8 l 1
 199 658 l 1
 267 658 l 1
 -81 -8 l 1
EndSplineSet
EndChar

StartChar: yen
Encoding: 165 165 100
Width: 426
Flags: HMW
HStem: 0 21G<152 272 152 152> 165 67<22 152 22 152 272 403> 291 67<22 124 22 152 22 124 300 403> 630 20G<6 135 135 135 300 421 421 421>
VStem: 152 120<0 165 232 291>
LayerCount: 2
Fore
SplineSet
272 0 m 1
 152 -5 l 5
 152.719726562 138.379882812 l 1
 25.1796875 127.454101562 l 1
 19.5498046875 194.217773438 l 1
 152.08984375 205.142578125 l 1
 152 281 l 1
 22 281 l 1
 22 358 l 1
 124 358 l 1
 6 650 l 1
 125 670 l 1
 221 381 l 1
 223 381 l 1
 310 660 l 1
 421 640 l 1
 300 358 l 1
 403 358 l 1
 403 281 l 1
 272 281 l 1
 271.665039062 215.227539062 l 1
 399.201171875 226.236328125 l 1
 404.83203125 159.473632812 l 1
 272.295898438 148.463867188 l 1
 272 0 l 1
EndSplineSet
Substitution2: "'onum' Oldstyle Figures lookup 14 subtable" yen.taboldstyle
Substitution2: "'aalt' +BBIEQQQ1 +BDAEOwRMBEIENQRABD0EMARCBDgEMgQ9BEsENQAA +BDIEMARABDgEMAQ9BEIESwAA lookup 0 subtable" yen.taboldstyle
EndChar

StartChar: florin
Encoding: 402 402 101
Width: 426
Flags: MW
HStem: -80 102<62.5 75 56 138> 301 101<76 148 76 141 272 363> 555 103<328.5 356.5 284.5 358.5>
VStem: 5 402 150 124.5
LayerCount: 2
Fore
SplineSet
76 301 m 1xf0
 76 402 l 1
 148 402 l 1
 152 448 l 2
 163 567 225 658 344 658 c 0
 369 658 392 653 407 646 c 1
 390 549 l 1
 378 553 365 555 352 555 c 0
 305 555 284 510 277 450 c 2
 272 402 l 1
 363 402 l 1
 363 301 l 1
 265 301 l 1
 247 117 l 2xe8
 237 11 200 -80 76 -80 c 0
 49 -80 22 -74 5 -64 c 1
 23 30 l 1
 35 25 51 22 61 22 c 0
 89 22 115 41 123 121 c 2
 141 301 l 1
 76 301 l 1xf0
EndSplineSet
Substitution2: "'onum' Oldstyle Figures lookup 14 subtable" florin.taboldstyle
Substitution2: "'aalt' +BBIEQQQ1 +BDAEOwRMBEIENQRABD0EMARCBDgEMgQ9BEsENQAA +BDIEMARABDgEMAQ9BEIESwAA lookup 0 subtable" florin.taboldstyle
EndChar

StartChar: section
Encoding: 167 167 102
Width: 431
Flags: HMW
HStem: -50 85<170 216.5 170 246.5> 597 85<224 260.5>
VStem: 33 94<338.5 350> 69 108<533 565.5 533 578.5> 266 107<70.5 104> 306 92<290.5 301.5>
LayerCount: 2
Fore
SplineSet
140 333 m 0xe4
 139 298 198 280 281 234 c 1
 293 243 306 277 306 298 c 0
 306 340 241 357 172 396 c 1
 156 386 140.627929688 354.991210938 140 333 c 0xe4
356 667 m 5
 336 575 l 1
 216 605 177 619.3822168 177 551 c 0
 177 515 188 513 252 481 c 0
 392.82045306 410.58977347 398 381 398 316 c 0xd4
 398 265 360 210 341 189 c 1
 354 177 374.413258494 145.975025959 373 106 c 0
 366 -92 270 -110 79 -25 c 1
 102 50 l 1
 224 0 266 -1.752838228 266 88 c 0
 266 120 252 133 173 169 c 0
 37.2646893197 230.854065626 33 248 33 329 c 0xe8
 33 375 88 432 102 449 c 1
 84 469 66.5122687322 498.076391802 69 532 c 4xd8
 80 682 98 731 356 667 c 5
EndSplineSet
EndChar

StartChar: currency
Encoding: 164 164 103
Width: 426
Flags: HMW
HStem: 116 91<193 226.5> 445 91<196.5 232.5>
VStem: 45 111<300.5 345.5> 264 112<305.5 349 305.5 354.5>
LayerCount: 2
Fore
SplineSet
214 536 m 4
 266 536 289 522 313 500 c 1
 378 575 l 1
 432 519 l 1
 354 443 l 1
 369 409 376 394 376 328 c 4
 376 259 368 244 353 213 c 1
 431 132 l 1
 377 77 l 1
 310 154 l 1
 282 129 247 116 210 116 c 0
 155 116 138 129 112 152 c 1
 50 77 l 1
 -4 132 l 1
 69 207 l 1
 53 239 45 258 45 322 c 4
 45 391 55 410 72 443 c 1
 4 503 l 1
 60 561 l 1
 114 497 l 1
 142 523 162 536 214 536 c 4
211 445 m 0
 170 445 156 415 156 324 c 4
 156 230 175 207 211 207 c 0
 253 207 264 232 264 326 c 4
 264 419 254 445 211 445 c 0
EndSplineSet
EndChar

StartChar: quotesingle
Encoding: 39 39 104
Width: 170
Flags: HMW
HStem: 422 260<53 118 53 53> 662 20G<33 138 138 138>
VStem: 33 105<682 682>
LayerCount: 2
Fore
SplineSet
23 682 m 1x60
 138 682 l 1
 128 422 l 5
 43 422 l 1xa0
 23 682 l 1x60
EndSplineSet
EndChar

StartChar: quotedblleft
Encoding: 8220 8220 105
Width: 337
Flags: MW
HStem: 426 256
VStem: 4 335<421 682>
LayerCount: 2
Fore
SplineSet
117 431 m 1
 4 421 l 1
 31 511 74 602 116 675 c 1
 184 682 l 1
 155 599 128 511 117 431 c 1
272 431 m 1
 159 421 l 1
 187 511 229 602 272 675 c 1
 339 682 l 1
 311 599 284 511 272 431 c 1
EndSplineSet
EndChar

StartChar: guillemotleft
Encoding: 171 171 106
Width: 383
Flags: HMW
HStem: 67 370<121 216 121 216 282 282 282 376>
VStem: 16 360<67 252>
LayerCount: 2
Fore
SplineSet
196 447 m 1
 113 259 l 1
 211 77 l 1
 131 57 l 1
 16 252 l 1
 101 467 l 1
 196 447 l 1
366 427 m 1
 278 243 l 1
 351 87 l 5
 272 67 l 5
 186 252 l 1
 271 447 l 1
 366 427 l 1
EndSplineSet
Substitution2: "'case' +BCAENQQzBDgEQQRCBEAEPgQ3BDAEMgQ4BEEEOAQ8BEsENQAA +BEQEPgRABDwESwAA lookup 4 subtable" guillemotleft.cap
Substitution2: "'aalt' +BBIEQQQ1 +BDAEOwRMBEIENQRABD0EMARCBDgEMgQ9BEsENQAA +BDIEMARABDgEMAQ9BEIESwAA lookup 0 subtable" guillemotleft.cap
EndChar

StartChar: guilsinglleft
Encoding: 8249 8249 107
Width: 221
Flags: MW
HStem: 67 370<121 216 121 216>
VStem: 16 200<67 252>
LayerCount: 2
Fore
SplineSet
216 437 m 1
 108 252 l 1
 216 67 l 1
 121 67 l 1
 16 252 l 1
 121 437 l 1
 216 437 l 1
EndSplineSet
Substitution2: "'case' +BCAENQQzBDgEQQRCBEAEPgQ3BDAEMgQ4BEEEOAQ8BEsENQAA +BEQEPgRABDwESwAA lookup 4 subtable" guilsinglleft.cap
Substitution2: "'aalt' +BBIEQQQ1 +BDAEOwRMBEIENQRABD0EMARCBDgEMgQ9BEsENQAA +BDIEMARABDgEMAQ9BEIESwAA lookup 0 subtable" guilsinglleft.cap
EndChar

StartChar: guilsinglright
Encoding: 8250 8250 108
Width: 221
Flags: MW
HStem: 67 370<5 99 5 100 5 99>
VStem: 5 200<67 252 252 437>
LayerCount: 2
Fore
SplineSet
113 252 m 1
 5 437 l 1
 99 437 l 1
 205 252 l 1
 100 67 l 1
 5 67 l 1
 113 252 l 1
EndSplineSet
Substitution2: "'case' +BCAENQQzBDgEQQRCBEAEPgQ3BDAEMgQ4BEEEOAQ8BEsENQAA +BEQEPgRABDwESwAA lookup 4 subtable" guilsinglright.cap
Substitution2: "'aalt' +BBIEQQQ1 +BDAEOwRMBEIENQRABD0EMARCBDgEMgQ9BEsENQAA +BDIEMARABDgEMAQ9BEIESwAA lookup 0 subtable" guilsinglright.cap
EndChar

StartChar: fi
Encoding: 64257 64257 109
Width: 489
Flags: MW
HStem: 0 21G<69 200 69 69 312 312 312 444> 396 93<3 69 3 69 200 312> 593 107<255.5 309.5 197 311> 680 20
VStem: 69 131<0 396 489 507> 312 132<0 396 396 396>
LayerCount: 2
Fore
SplineSet
200 0 m 1xec
 69 0 l 1
 69 396 l 1
 3 396 l 1
 3 489 l 1
 69 489 l 1
 69 515 l 2
 69 578 108 700 286 700 c 0xec
 333 700 375 692 402 680 c 1xdc
 383 577 l 1
 361 585 331 593 291 593 c 0
 220 593 200 553 200 507 c 2
 200 489 l 1
 444 489 l 1
 444 0 l 1
 312 0 l 1
 312 396 l 1
 200 396 l 1
 200 0 l 1xec
EndSplineSet
EndChar

StartChar: fl
Encoding: 64258 64258 110
Width: 489
Flags: MW
HStem: 0 21G<69 200 69 69 312 312 312 444> 396 93<3 69 3 69 200 271> 597 103<248.5 279.5>
VStem: 69 131<0 396 489 508 508 514> 312 132<0 591 591 591>
LayerCount: 2
Fore
SplineSet
200 0 m 1
 69 0 l 1
 69 396 l 1
 3 396 l 1
 3 489 l 1
 69 489 l 1
 69 508 l 2
 69 544 85 610 129 649 c 0
 162 678 209 700 288 700 c 0
 349 700 409 687 444 674 c 1
 444 0 l 1
 312 0 l 1
 312 591 l 1
 302 595 289 597 270 597 c 0
 219 597 200 557 200 514 c 2
 200 489 l 1
 271 489 l 1
 271 396 l 1
 200 396 l 1
 200 0 l 1
EndSplineSet
EndChar

StartChar: endash
Encoding: 8211 8211 111
Width: 500
Flags: MW
HStem: 215 90<30 470 30 470>
VStem: 30 440<215 305 215 305>
LayerCount: 2
Fore
SplineSet
30 305 m 1
 470 305 l 1
 470 215 l 1
 30 215 l 1
 30 305 l 1
EndSplineSet
Substitution2: "'case' +BCAENQQzBDgEQQRCBEAEPgQ3BDAEMgQ4BEEEOAQ8BEsENQAA +BEQEPgRABDwESwAA lookup 4 subtable" endash.cap
Substitution2: "'aalt' +BBIEQQQ1 +BDAEOwRMBEIENQRABD0EMARCBDgEMgQ9BEsENQAA +BDIEMARABDgEMAQ9BEIESwAA lookup 0 subtable" endash.cap
EndChar

StartChar: dagger
Encoding: 8224 8224 112
Width: 425
Flags: MW
HStem: 387 101 654 20G<157 268 268 268>
VStem: 160 105
LayerCount: 2
Fore
SplineSet
157 674 m 1
 268 674 l 1
 262 485 l 1
 393 491 l 1
 393 384 l 1
 262 390 l 1
 268 -51 l 1
 157 -51 l 1
 163 390 l 1
 32 384 l 1
 32 491 l 1
 163 485 l 1
 157 674 l 1
EndSplineSet
EndChar

StartChar: daggerdbl
Encoding: 8225 8225 113
Width: 425
Flags: MW
HStem: 130 101 396 101 654 20G<157 268 268 268>
VStem: 159.5 105.5 163 99<228 399>
LayerCount: 2
Fore
SplineSet
157 674 m 1xf0
 268 674 l 1
 262 494 l 1xf0
 393 500 l 1
 393 393 l 1
 262 399 l 1
 262 228 l 1xe8
 393 234 l 1
 393 127 l 1
 262 133 l 1
 268 -50 l 1
 157 -50 l 1
 162 133 l 1xf0
 32 127 l 1
 32 234 l 1
 163 228 l 1
 163 399 l 1xe8
 32 393 l 1
 32 500 l 1
 163 494 l 1
 157 674 l 1xf0
EndSplineSet
EndChar

StartChar: periodcentered
Encoding: 183 183 114
Width: 233
Flags: HMW
HStem: 183 173<97 138 97 139.5>
VStem: 41 152<243 294.5>
LayerCount: 2
Fore
SplineSet
117 183 m 4
 45 192 43.5031189813 217.060281139 41 269 c 4
 37 352 48 363 117 356 c 4
 188.639233899 348.732251633 202 339 193 269 c 4
 186.368869388 217.424539684 191.235384472 173.720576941 117 183 c 4
EndSplineSet
Substitution2: "'case' +BCAENQQzBDgEQQRCBEAEPgQ3BDAEMgQ4BEEEOAQ8BEsENQAA +BEQEPgRABDwESwAA lookup 4 subtable" periodcentered.cap
Substitution2: "'aalt' +BBIEQQQ1 +BDAEOwRMBEIENQRABD0EMARCBDgEMgQ9BEsENQAA +BDIEMARABDgEMAQ9BEIESwAA lookup 0 subtable" periodcentered.cap
EndChar

StartChar: paragraph
Encoding: 182 182 115
Width: 431
Flags: HMW
HStem: 601 73<242 291.5 175.5 300 242 242>
VStem: 170 72<-50 264 264 264> 300 72<-50 601 601 601>
LayerCount: 2
Fore
SplineSet
242 -70 m 5
 170 -70 l 5
 170 264 l 1
 163 264 l 2
 78 264 21 315 21 452 c 0
 21 564 57 674 234 674 c 0
 289 674 341 671 372 666 c 1
 372 -30 l 1
 300 -30 l 1
 300 601 l 1
 242 601 l 1
 242 -70 l 5
EndSplineSet
EndChar

StartChar: bullet
Encoding: 8226 8226 116
Width: 287
Flags: MW
HStem: 158 219<114 173 114 174>
VStem: 38 211<234 300>
LayerCount: 2
Fore
SplineSet
143 158 m 0
 84 158 38 201 38 266 c 0
 38 334 84 377 144 377 c 0
 202 377 249 336 249 267 c 0
 249 201 205 158 143 158 c 0
EndSplineSet
EndChar

StartChar: quotesinglbase
Encoding: 8218 8218 117
Width: 190
Flags: MW
HStem: -109 260<4 184>
VStem: 4 180
LayerCount: 2
Fore
SplineSet
71 -100 m 1
 4 -109 l 1
 33 -26 60 62 71 141 c 1
 184 151 l 1
 156 61 114 -28 71 -100 c 1
EndSplineSet
EndChar

StartChar: quotedblbase
Encoding: 8222 8222 118
Width: 337
Flags: MW
HStem: -109 260<0 180 155 180>
VStem: 0 335<-109 151>
LayerCount: 2
Fore
SplineSet
68 -100 m 1
 0 -109 l 1
 29 -26 56 62 67 141 c 1
 180 151 l 1
 153 61 110 -28 68 -100 c 1
223 -100 m 1
 155 -109 l 1
 184 -26 211 62 222 141 c 1
 335 151 l 1
 308 61 266 -28 223 -100 c 1
EndSplineSet
EndChar

StartChar: quotedblright
Encoding: 8221 8221 119
Width: 337
Flags: MW
HStem: 425.5 256.5 662 20G<180 180 335 335>
VStem: 0 335<421 682>
LayerCount: 2
Fore
SplineSet
67 674 m 1x60
 180 682 l 1
 153 592 110 502 68 430 c 1
 0 421 l 1xa0
 29 504 56 595 67 674 c 1x60
222 674 m 1
 335 682 l 1
 308 592 266 502 223 430 c 1
 155 421 l 1
 184 504 211 595 222 674 c 1
EndSplineSet
EndChar

StartChar: guillemotright
Encoding: 187 187 120
Width: 383
Flags: HMW
HStem: 67 370<6 100 6 102 6 100 6 167 167 261 6 262>
VStem: 6 361<67 252 252 437>
LayerCount: 2
Fore
SplineSet
114 252 m 1
 16 417 l 1
 100 437 l 1
 206 252 l 1
 102 47 l 5
 16 67 l 5
 114 252 l 1
275 252 m 1
 187 447 l 1
 271 467 l 1
 367 252 l 1
 262 67 l 1
 177 87 l 1
 275 252 l 1
EndSplineSet
Substitution2: "'case' +BCAENQQzBDgEQQRCBEAEPgQ3BDAEMgQ4BEEEOAQ8BEsENQAA +BEQEPgRABDwESwAA lookup 4 subtable" guillemotright.cap
Substitution2: "'aalt' +BBIEQQQ1 +BDAEOwRMBEIENQRABD0EMARCBDgEMgQ9BEsENQAA +BDIEMARABDgEMAQ9BEIESwAA lookup 0 subtable" guillemotright.cap
EndChar

StartChar: ellipsis
Encoding: 8230 8230 121
Width: 1000
Flags: MW
HStem: -8 174<146.5 188 146.5 189 480.5 522 814.5 856>
VStem: 90 153<52.5 104> 424 153<52.5 104> 758 153<52.5 104>
LayerCount: 2
Fore
SplineSet
166 -8 m 0
 125 -8 90 26 90 79 c 0
 90 129 126 166 167 166 c 0
 209 166 243 133 243 79 c 0
 243 26 212 -8 166 -8 c 0
500 -8 m 0
 458 -8 424 26 424 79 c 0
 424 129 460 166 501 166 c 0
 543 166 577 133 577 79 c 0
 577 26 546 -8 500 -8 c 0
834 -8 m 0
 792 -8 758 26 758 79 c 0
 758 129 794 166 835 166 c 0
 877 166 911 133 911 79 c 0
 911 26 880 -8 834 -8 c 0
EndSplineSet
EndChar

StartChar: perthousand
Encoding: 8240 8240 122
Width: 958
Flags: MW
HStem: -6 70<494.5 525 494.5 543 795.5 826> 259 70<133.5 164.5 133.5 182> 323 69<495.5 526 796 827> 589 69<134.5 165>
VStem: 18 88<459 500 459 509> 190 88<417.5 496> 379 88<194 235 194 243.5> 551 88<152.5 231> 680 88<194 235 194 243.5> 852 88<152.5 231>
LayerCount: 2
Fore
SplineSet
511 392 m 0xbfc0
 608 392 639 285 639 196 c 0
 639 58 576 -6 510 -6 c 0
 419 -6 379 94 379 191 c 0
 379 296 426 392 511 392 c 0xbfc0
510 323 m 0
 481 323 467 276 467 194 c 0
 466 110 479 64 510 64 c 0
 540 64 551 112 551 193 c 0
 551 269 542 323 510 323 c 0
812 392 m 0
 909 392 940 285 940 196 c 0
 940 58 877 -6 811 -6 c 0
 720 -6 680 94 680 191 c 0
 680 296 727 392 812 392 c 0
811 323 m 0
 781 323 768 276 768 194 c 0
 767 110 780 64 811 64 c 0
 841 64 852 112 852 193 c 0
 852 269 843 323 811 323 c 0
150 658 m 0
 247 658 278 551 278 461 c 0
 278 323 215 259 149 259 c 0x4c
 58 259 18 358 18 456 c 0
 18 562 65 658 150 658 c 0
149 589 m 0
 120 589 106 541 106 459 c 0
 105 375 118 329 149 329 c 0x4c
 180 329 190 377 190 458 c 0
 190 534 181 589 149 589 c 0
188 -8 m 1
 119 -8 l 1
 469 658 l 1
 537 658 l 1
 188 -8 l 1
EndSplineSet
EndChar

StartChar: questiondown
Encoding: 191 191 123
Width: 334
Flags: MW
HStem: -195 113<198 212> 332 162<171.5 213.5 171.5 215.5>
VStem: 19 133<-39.5 -7.5> 117 149<389.5 437.5> 135 112
LayerCount: 2
Fore
SplineSet
192 494 m 0xd0
 235 494 266 462 266 413 c 0
 266 366 238 332 193 332 c 0
 149 332 117 366 117 413 c 0
 117 462 151 494 192 494 c 0xd0
135 271 m 1xc8
 246 271 l 1
 248 253 l 2xc8
 255 193 232 145 195 87 c 0
 167 43 152 18 152 -21 c 0
 152 -58 177 -82 219 -82 c 0
 240 -82 264 -78 283 -65 c 1
 304 -166 l 1
 283 -180 236 -195 188 -195 c 0
 56 -195 19 -109 19 -42 c 0xe0
 19 27 57 80 92 131 c 0
 120 172 136 203 135 249 c 2
 135 271 l 1xc8
EndSplineSet
Substitution2: "'case' +BCAENQQzBDgEQQRCBEAEPgQ3BDAEMgQ4BEEEOAQ8BEsENQAA +BEQEPgRABDwESwAA lookup 4 subtable" questiondown.cap
Substitution2: "'aalt' +BBIEQQQ1 +BDAEOwRMBEIENQRABD0EMARCBDgEMgQ9BEsENQAA +BDIEMARABDgEMAQ9BEIESwAA lookup 0 subtable" questiondown.cap
EndChar

StartChar: grave
Encoding: 96 96 124
Width: 300
Flags: HMW
HStem: 549 140<129 143 29 212 129 129>
VStem: 29 183<549 689>
LayerCount: 2
Fore
SplineSet
19 669 m 5
 143 689 l 5
 226 564 l 1
 143 559 l 1
 19 669 l 5
EndSplineSet
Substitution2: "'case' +BCAENQQzBDgEQQRCBEAEPgQ3BDAEMgQ4BEEEOAQ8BEsENQAA +BEQEPgRABDwESwAA lookup 4 subtable" grave.cap
Substitution2: "'aalt' +BBIEQQQ1 +BDAEOwRMBEIENQRABD0EMARCBDgEMgQ9BEsENQAA +BDIEMARABDgEMAQ9BEIESwAA lookup 0 subtable" grave.cap
EndChar

StartChar: acute
Encoding: 180 180 125
Width: 300
Flags: HMW
HStem: 549 140<173 186 104 287>
VStem: 104 183<549 689>
LayerCount: 2
Fore
SplineSet
173 689 m 1
 287 669 l 1
 166 549 l 5
 84 569 l 5
 173 689 l 1
EndSplineSet
Substitution2: "'case' +BCAENQQzBDgEQQRCBEAEPgQ3BDAEMgQ4BEEEOAQ8BEsENQAA +BEQEPgRABDwESwAA lookup 4 subtable" acute.cap
Substitution2: "'aalt' +BBIEQQQ1 +BDAEOwRMBEIENQRABD0EMARCBDgEMgQ9BEsENQAA +BDIEMARABDgEMAQ9BEIESwAA lookup 0 subtable" acute.cap
EndChar

StartChar: circumflex
Encoding: 710 710 126
Width: 300
Flags: HMW
HStem: 549 140<105 110 19 196 192 196 105 282 192 192>
VStem: 19 263<549 549>
LayerCount: 2
Fore
SplineSet
105 685 m 5
 196 688 l 5
 282 579 l 1
 192 549 l 1
 149 617 l 1
 147 617 l 1
 110 549 l 1
 19 559 l 1
 105 685 l 5
EndSplineSet
Substitution2: "'case' +BCAENQQzBDgEQQRCBEAEPgQ3BDAEMgQ4BEEEOAQ8BEsENQAA +BEQEPgRABDwESwAA lookup 4 subtable" circumflex.cap
Substitution2: "'aalt' +BBIEQQQ1 +BDAEOwRMBEIENQRABD0EMARCBDgEMgQ9BEsENQAA +BDIEMARABDgEMAQ9BEIESwAA lookup 0 subtable" circumflex.cap
EndChar

StartChar: tilde
Encoding: 732 732 127
Width: 300
Flags: HMW
HStem: 557 118<74.5 88 28 111> 564 114<215 224>
VStem: 28 60<557 570 557 589.5> 215 58<638 678>
LayerCount: 2
Fore
SplineSet
88 557 m 1xb0
 28 567 l 1
 41 660 50 675 99 675 c 0xb0
 139.344992352 675 150.077221868 651.396666778 183 641 c 0
 202 635 209 625 215 668 c 5
 273 658 l 5
 259 576 244.862620021 560.605733512 203 564 c 4x70
 166 567 152.602458522 588.381147676 121 597 c 0
 99 603 92 584 88 557 c 1xb0
EndSplineSet
Substitution2: "'case' +BCAENQQzBDgEQQRCBEAEPgQ3BDAEMgQ4BEEEOAQ8BEsENQAA +BEQEPgRABDwESwAA lookup 4 subtable" tilde.cap
Substitution2: "'aalt' +BBIEQQQ1 +BDAEOwRMBEIENQRABD0EMARCBDgEMgQ9BEsENQAA +BDIEMARABDgEMAQ9BEIESwAA lookup 0 subtable" tilde.cap
EndChar

StartChar: macron
Encoding: 175 175 128
Width: 300
Flags: HMW
HStem: 582 74<44 257 44 257>
VStem: 44 213<582 656 582 656>
LayerCount: 2
Fore
SplineSet
44 666 m 1
 257 661 l 1
 252 577 l 5
 44 582 l 1
 44 666 l 1
EndSplineSet
Substitution2: "'case' +BCAENQQzBDgEQQRCBEAEPgQ3BDAEMgQ4BEEEOAQ8BEsENQAA +BEQEPgRABDwESwAA lookup 4 subtable" macron.cap
Substitution2: "'aalt' +BBIEQQQ1 +BDAEOwRMBEIENQRABD0EMARCBDgEMgQ9BEsENQAA +BDIEMARABDgEMAQ9BEIESwAA lookup 0 subtable" macron.cap
EndChar

StartChar: breve
Encoding: 728 728 129
Width: 300
Flags: HMW
HStem: 552 74<134.5 167.5 134.5 184.5>
VStem: 31 65<679 679>
LayerCount: 2
Fore
SplineSet
31 671 m 5
 96 679 l 1
 100 645 106 626 149 626 c 0
 199 626 204 639 205 667 c 1
 279 659 l 1
 281 587 250 552 148 552 c 0
 77 552 31 569 31 671 c 5
EndSplineSet
Substitution2: "'case' +BCAENQQzBDgEQQRCBEAEPgQ3BDAEMgQ4BEEEOAQ8BEsENQAA +BEQEPgRABDwESwAA lookup 4 subtable" breve.cap
Substitution2: "'aalt' +BBIEQQQ1 +BDAEOwRMBEIENQRABD0EMARCBDgEMgQ9BEsENQAA +BDIEMARABDgEMAQ9BEIESwAA lookup 0 subtable" breve.cap
EndChar

StartChar: dotaccent
Encoding: 729 729 130
Width: 300
Flags: MW
HStem: 560 128<134 167 134 167.5>
VStem: 90 120<605.5 642.5>
LayerCount: 2
Fore
SplineSet
150 560 m 0
 117 560 90 587 90 624 c 0
 90 661 118 688 150 688 c 0
 184 688 210 662 210 624 c 0
 210 587 185 560 150 560 c 0
EndSplineSet
Substitution2: "'case' +BCAENQQzBDgEQQRCBEAEPgQ3BDAEMgQ4BEEEOAQ8BEsENQAA +BEQEPgRABDwESwAA lookup 4 subtable" dotaccent.cap
Substitution2: "'aalt' +BBIEQQQ1 +BDAEOwRMBEIENQRABD0EMARCBDgEMgQ9BEsENQAA +BDIEMARABDgEMAQ9BEIESwAA lookup 0 subtable" dotaccent.cap
EndChar

StartChar: dieresis
Encoding: 168 168 131
Width: 300
Flags: HMW
HStem: 560 128<44.5 78 44.5 78.5 222.5 255.5>
VStem: 1 120<605.5 642.5> 178 120<605.5 642.5>
LayerCount: 2
Fore
SplineSet
4 581 m 0
 0 682 l 0
 121 686 l 0
 126 585 l 0
 4 581 l 0
174 586 m 4
 177 692 l 0
 296 687 l 0
 290 581 l 4
 174 586 l 4
EndSplineSet
Substitution2: "'case' +BCAENQQzBDgEQQRCBEAEPgQ3BDAEMgQ4BEEEOAQ8BEsENQAA +BEQEPgRABDwESwAA lookup 4 subtable" dieresis.cap
Substitution2: "'aalt' +BBIEQQQ1 +BDAEOwRMBEIENQRABD0EMARCBDgEMgQ9BEsENQAA +BDIEMARABDgEMAQ9BEIESwAA lookup 0 subtable" dieresis.cap
EndChar

StartChar: ring
Encoding: 730 730 132
Width: 300
Flags: HMW
HStem: 538 44<100 131.5 100 149.5> 677 44<99.5 131.5>
VStem: 13 63<619.5 638.5 619.5 653> 157 62<619.5 640.5>
LayerCount: 2
Fore
SplineSet
117 538 m 0
 48 538 20 540 13 627 c 0
 8.82956939063 678.832494716 16 721 118 721 c 0
 210 721 221.88444102 681.919938367 219 630 c 0
 214 540 182 538 117 538 c 0
115 572 m 0
 148 572 157 599 157 620 c 0
 157 641 158 667 114 667 c 4
 76 667 76 639 76 618 c 0
 76 601 85 572 115 572 c 0
EndSplineSet
Substitution2: "'case' +BCAENQQzBDgEQQRCBEAEPgQ3BDAEMgQ4BEEEOAQ8BEsENQAA +BEQEPgRABDwESwAA lookup 4 subtable" ring.cap
Substitution2: "'aalt' +BBIEQQQ1 +BDAEOwRMBEIENQRABD0EMARCBDgEMgQ9BEsENQAA +BDIEMARABDgEMAQ9BEIESwAA lookup 0 subtable" ring.cap
EndChar

StartChar: cedilla
Encoding: 184 184 133
Width: 300
Flags: HMW
HStem: -204 60<120.5 137 120.5 160.5> -44 49<176 176>
VStem: 160 83<-128 -109>
LayerCount: 2
Fore
SplineSet
131 5 m 1
 200 5 l 1
 176 -44 l 5
 216 -62 237 -76 243 -117 c 0
 255.74232785 -204.072573644 189 -204 132 -204 c 0
 120 -204 86 -197 67 -187 c 5
 86 -131 l 5
 102 -139 117 -144 129 -144 c 0
 157 -144 164.169169492 -136.510511864 160 -119 c 0
 155 -98 131 -90 92 -82 c 5
 131 5 l 1
EndSplineSet
Substitution2: "'case' +BCAENQQzBDgEQQRCBEAEPgQ3BDAEMgQ4BEEEOAQ8BEsENQAA +BEQEPgRABDwESwAA lookup 4 subtable" cedilla.cap
Substitution2: "'aalt' +BBIEQQQ1 +BDAEOwRMBEIENQRABD0EMARCBDgEMgQ9BEsENQAA +BDIEMARABDgEMAQ9BEIESwAA lookup 0 subtable" cedilla.cap
EndChar

StartChar: hungarumlaut
Encoding: 733 733 134
Width: 300
Flags: MW
HStem: 549 140<49 216 49 216 187 187 187 216 121 254>
VStem: 49 305<549 689>
LayerCount: 2
Fore
SplineSet
121 689 m 1
 216 689 l 1
 116 549 l 1
 49 549 l 1
 121 689 l 1
259 689 m 1
 354 689 l 1
 254 549 l 1
 187 549 l 1
 259 689 l 1
EndSplineSet
Substitution2: "'case' +BCAENQQzBDgEQQRCBEAEPgQ3BDAEMgQ4BEEEOAQ8BEsENQAA +BEQEPgRABDwESwAA lookup 4 subtable" hungarumlaut.cap
Substitution2: "'aalt' +BBIEQQQ1 +BDAEOwRMBEIENQRABD0EMARCBDgEMgQ9BEsENQAA +BDIEMARABDgEMAQ9BEIESwAA lookup 0 subtable" hungarumlaut.cap
EndChar

StartChar: ogonek
Encoding: 731 731 135
Width: 300
Flags: MW
HStem: -205 84<122.5 196.5>
VStem: 57 91<-90.5 -85.5>
LayerCount: 2
Fore
SplineSet
94 5 m 1
 174 5 l 1
 160 -20 148 -53 148 -78 c 0
 148 -103 166 -121 188 -121 c 0
 205 -121 217 -118 227 -114 c 1
 243 -181 l 1
 214 -201 181 -205 155 -205 c 0
 90 -205 57 -167 57 -110 c 0
 57 -61 83 -14 94 5 c 1
EndSplineSet
Substitution2: "'case' +BCAENQQzBDgEQQRCBEAEPgQ3BDAEMgQ4BEEEOAQ8BEsENQAA +BEQEPgRABDwESwAA lookup 4 subtable" ogonek.cap
Substitution2: "'aalt' +BBIEQQQ1 +BDAEOwRMBEIENQRABD0EMARCBDgEMgQ9BEsENQAA +BDIEMARABDgEMAQ9BEIESwAA lookup 0 subtable" ogonek.cap
EndChar

StartChar: caron
Encoding: 711 711 136
Width: 300
Flags: HMW
HStem: 549 140<104 108 191 196 104 104>
VStem: 19 263<689 689>
LayerCount: 2
Fore
SplineSet
196 543 m 1
 104 549 l 1
 20 683 l 1
 108 692 l 1
 148 617 l 1
 150 617 l 1
 191 689 l 1
 282 669 l 1
 196 543 l 1
EndSplineSet
Substitution2: "'case' +BCAENQQzBDgEQQRCBEAEPgQ3BDAEMgQ4BEEEOAQ8BEsENQAA +BEQEPgRABDwESwAA lookup 4 subtable" caron.cap
Substitution2: "'aalt' +BBIEQQQ1 +BDAEOwRMBEIENQRABD0EMARCBDgEMgQ9BEsENQAA +BDIEMARABDgEMAQ9BEIESwAA lookup 0 subtable" caron.cap
EndChar

StartChar: emdash
Encoding: 8212 8212 137
Width: 1000
Flags: MW
HStem: 215 90<30 970 30 970>
VStem: 30 940<215 305 215 305>
LayerCount: 2
Fore
SplineSet
30 305 m 1
 970 305 l 1
 970 215 l 1
 30 215 l 1
 30 305 l 1
EndSplineSet
Substitution2: "'case' +BCAENQQzBDgEQQRCBEAEPgQ3BDAEMgQ4BEEEOAQ8BEsENQAA +BEQEPgRABDwESwAA lookup 4 subtable" emdash.cap
Substitution2: "'aalt' +BBIEQQQ1 +BDAEOwRMBEIENQRABD0EMARCBDgEMgQ9BEsENQAA +BDIEMARABDgEMAQ9BEIESwAA lookup 0 subtable" emdash.cap
EndChar

StartChar: AE
Encoding: 198 198 138
Width: 595
Flags: HMW
HStem: 0 114<417 580 417 580> 184 102<191 280 191 290 167 280> 285 109<407 559 407 407> 560 114<387 565 387 387> 583 91<261 264 261 261>
VStem: 276 115.5 296 116
LayerCount: 2
Fore
SplineSet
118 -20 m 1xb4
 -6 10 l 1
 164.596679688 564.991210938 l 1
 122.54296875 562.96484375 l 1
 115.392578125 673.823242188 l 1
 574.255859375 685.015625 l 1
 577.036132812 571.048828125 l 1
 389.091796875 566.46484375 l 1
 396 394 l 1xb4
 549 394 l 1
 550 275 l 5
 408 275 l 5xb2
 417 114 l 1
 560 114 l 1
 560 0 l 1
 302 0 l 1
 290 184 l 1
 167 184 l 1xd2
 118 -20 l 1xb4
191 286 m 1xcc
 280 286 l 1
 266.0546875 566.46484375 l 1
 263.055664062 566.391601562 l 1
 191 286 l 1xcc
EndSplineSet
Position2: "'cpsp' +BBgEPQRCBDUEQAQyBDAEOwAA +BD8EQAQ+BD8EOARBBD0ESwRF lookup 0 subtable" dx=10 dy=0 dh=20 dv=0
EndChar

StartChar: ordfeminine
Encoding: 170 170 139
Width: 302
Flags: MW
HStem: 258 21G<92 131.5> 263 21G<197 268 197 197> 263 62<134.5 268 134.5 197> 415 57<182 182 182 184> 520 68<129.5 149.5>
VStem: 31 78<351.5 383.5 351.5 396.5> 184 80<362 415 415 415>
LayerCount: 2
Fore
SplineSet
268 263 m 1x5e
 197 263 l 1x5e
 192 296 l 1
 190 296 l 1
 172 271 147 258 116 258 c 0x9e
 68 258 31 296 31 354 c 0
 31 439 106 471 182 472 c 1
 182 480 l 2
 182 499 168 520 131 520 c 0
 103 520 83 512 67 501 c 1
 53 562 l 1
 79 578 113 588 146 588 c 0
 243 588 264 516 264 451 c 2
 264 338 l 2
 264 313 265 286 268 263 c 1x5e
184 362 m 2x3e
 184 415 l 1
 150 415 109 404 109 363 c 0
 109 340 125 325 144 325 c 0
 156 325 170 331 178 345 c 0
 181 350 184 356 184 362 c 2x3e
EndSplineSet
EndChar

StartChar: Lslash
Encoding: 321 321 140
Width: 382
Flags: MW
HStem: 0 111<191 364 191 364> 654 20G<60 191 191 191>
VStem: 60 131<111 234 234 234 436 674>
LayerCount: 2
Fore
SplineSet
364 0 m 1
 60 0 l 1
 60 234 l 1
 0 187 l 1
 0 298 l 1
 60 345 l 1
 60 674 l 1
 191 674 l 1
 191 436 l 1
 285 508 l 1
 285 397 l 1
 191 326 l 1
 191 111 l 1
 364 111 l 1
 364 0 l 1
EndSplineSet
Position2: "'cpsp' +BBgEPQRCBDUEQAQyBDAEOwAA +BD8EQAQ+BD8EOARBBD0ESwRF lookup 0 subtable" dx=10 dy=0 dh=20 dv=0
EndChar

StartChar: Oslash
Encoding: 216 216 141
Width: 481
Flags: MW
HStem: -8 114<231.5 269.5 231.5 304> 568 114<215 252>
VStem: 25 128<323.5 415 323.5 429> 328 128<265.5 359>
LayerCount: 2
Fore
SplineSet
107 -51 m 1
 41 -15 l 1
 84 81 l 1
 41 146 25 240 25 339 c 0
 25 519 97 682 243 682 c 0
 279 682 311 673 339 655 c 1
 370 725 l 1
 439 696 l 1
 397 601 l 1
 443 533 456 434 456 349 c 0
 456 95 367 -8 241 -8 c 0
 203 -8 169 2 140 23 c 1
 107 -51 l 1
160 235 m 1
 289 540 l 1
 279 558 262 568 242 568 c 0
 188 568 153 490 153 340 c 0
 153 307 153 271 158 235 c 1
 160 235 l 1
321 443 m 1
 188 139 l 1
 199 116 221 106 242 106 c 0
 297 106 328 188 328 343 c 0
 328 375 327 409 323 443 c 1
 321 443 l 1
EndSplineSet
Position2: "'cpsp' +BBgEPQRCBDUEQAQyBDAEOwAA +BD8EQAQ+BD8EOARBBD0ESwRF lookup 0 subtable" dx=10 dy=0 dh=20 dv=0
EndChar

StartChar: OE
Encoding: 338 338 142
Width: 650
Flags: MW
HStem: -8 114<242 281> 0 114<314 356 445 619> 296 109<445 599 445 599> 560 114<445 607 445 445> 568 114<243.5 281.5>
VStem: 25 136<341 422 341 430> 314 131<114 296 405 558 558 558>
LayerCount: 2
Fore
SplineSet
619 114 m 1x76
 619 0 l 1
 356 0 l 2x76
 342 0 328 -2 316 -4 c 0
 302 -6 288 -8 274 -8 c 0
 75 -8 25 165 25 337 c 0
 25 523 101 682 280 682 c 0xae
 296 682 311 680 324 678 c 0
 338 676 350 674 361 674 c 2
 607 674 l 1
 607 560 l 1
 445 560 l 1
 445 405 l 1
 599 405 l 1
 599 296 l 1
 445 296 l 1
 445 114 l 1
 619 114 l 1x76
314 114 m 1
 314 558 l 1
 304 564 291 568 272 568 c 0
 215 568 161 503 161 341 c 0
 160 174 209 106 275 106 c 0xae
 291 106 306 109 314 114 c 1
EndSplineSet
Position2: "'cpsp' +BBgEPQRCBDUEQAQyBDAEOwAA +BD8EQAQ+BD8EOARBBD0ESwRF lookup 0 subtable" dx=10 dy=0 dh=20 dv=0
EndChar

StartChar: ordmasculine
Encoding: 186 186 143
Width: 311
Flags: MW
HStem: 258 69<139 171 139 180.5> 519 69<137 170>
VStem: 30 83<396.5 439.5 396.5 478.5> 193 84<400.5 445>
LayerCount: 2
Fore
SplineSet
155 588 m 0
 235 588 277 524 277 425 c 0
 277 291 207 258 154 258 c 0
 76 258 30 319 30 422 c 0
 30 535 89 588 155 588 c 0
154 519 m 0
 120 519 113 456 113 423 c 0
 113 370 124 327 154 327 c 0
 188 327 193 378 193 423 c 0
 193 467 186 519 154 519 c 0
EndSplineSet
EndChar

StartChar: ae
Encoding: 230 230 144
Width: 633
Flags: MW
HStem: -8 98<174.5 185.5 447 474.5> 214 85<369 485 369 601 369 485> 234 82<240 240 240 242> 400 97<164.5 189> 406 91<422.5 451.5>
VStem: 19 117<129.5 185.5 129.5 206> 242 127<168 214 168 234 168 234> 485 120<299 299>
LayerCount: 2
Fore
SplineSet
601 214 m 1xcf
 369 214 l 1xcf
 369 122 418 90 476 90 c 0
 513 90 542 98 566 110 c 1
 584 19 l 1
 542 -2 496 -8 453 -8 c 0
 387 -8 326 20 299 77 c 1
 296 77 l 1
 263 21 217 -8 154 -8 c 0
 76 -8 19 56 19 146 c 0
 19 266 131 315 240 316 c 1
 240 331 l 2
 240 369 214 400 164 400 c 0
 132 400 95 387 74 373 c 1xb7
 50 460 l 1
 87 483 140 497 189 497 c 0
 248 497 295 470 315 420 c 1
 317 420 l 1
 347 473 395 497 450 497 c 0
 544 497 605 412 605 266 c 0
 605 247 603 231 601 214 c 1xcf
242 160 m 2
 242 234 l 1xaf
 198 234 136 220 136 151 c 0
 136 108 163 90 186 90 c 0
 208 90 230 105 238 133 c 0
 241 141 242 150 242 160 c 2
369 299 m 1xcf
 485 299 l 1
 486 354 471 406 432 406 c 0
 389 406 370 342 369 299 c 1xcf
EndSplineSet
EndChar

StartChar: dotlessi
Encoding: 305 305 145
Width: 223
Flags: MW
HStem: 0 21G<46 177 46 46> 469 20G<46 177 177 177>
VStem: 46 131<0 489>
LayerCount: 2
Fore
SplineSet
177 0 m 1
 46 0 l 1
 46 489 l 1
 177 489 l 1
 177 0 l 1
EndSplineSet
EndChar

StartChar: lslash
Encoding: 322 322 146
Width: 227
Flags: MW
HStem: 0 21G<48 179 48 48> 672 20G<48 179 179 179>
VStem: 48 131<0 275 275 275 462 692>
LayerCount: 2
Fore
SplineSet
179 0 m 1
 48 0 l 1
 48 275 l 1
 -7 229 l 1
 -7 337 l 1
 48 384 l 1
 48 692 l 1
 179 692 l 1
 179 462 l 1
 235 509 l 1
 235 400 l 1
 179 353 l 1
 179 0 l 1
EndSplineSet
EndChar

StartChar: oslash
Encoding: 248 248 147
Width: 431
Flags: MW
HStem: -8 100<207.5 241.5 207.5 253.5> -4 21G<39 39> 398 99<187 226>
VStem: 29 121<236.5 273 236.5 331> 281 122<198.5 243>
LayerCount: 2
Fore
SplineSet
217 497 m 0x78
 250 497 279 489 305 473 c 1
 338 530 l 1
 396 499 l 1
 355 426 l 1
 386 383 403 322 403 246 c 0
 403 42 290 -8 217 -8 c 0
 183 -8 152 0 126 16 c 1
 94 -41 l 1xb8
 39 -4 l 1
 76 62 l 1
 45 105 29 166 29 243 c 0
 29 419 121 497 217 497 c 0x78
158 182 m 1
 255 373 l 1
 248 389 236 398 216 398 c 0
 158 398 150 300 150 246 c 0
 150 227 151 206 154 184 c 1
 158 182 l 1
273 300 m 1
 179 117 l 1
 186 101 198 92 217 92 c 0xb8
 266 92 281 164 281 233 c 0
 281 253 281 276 278 300 c 1
 273 300 l 1
EndSplineSet
EndChar

StartChar: oe
Encoding: 339 339 148
Width: 665
Flags: MW
HStem: -8 100<195.5 229 480 510> 203 85<404 519 404 636 402 519> 398 99<192.5 241.5 168.5 242>
VStem: 29 130<202.5 276.5 202.5 330.5> 276 126<203 281.5> 519 120<288 288>
LayerCount: 2
Fore
SplineSet
636 203 m 1
 402 203 l 1
 407 119 453 92 507 92 c 0
 546 92 577 100 601 108 c 1
 618 19 l 1
 579 -3 531 -8 489 -8 c 0
 427 -8 371 14 340 75 c 1
 338 75 l 1
 310 17 253 -8 205 -8 c 0
 101 -8 29 83 29 243 c 0
 29 418 121 497 216 497 c 0
 267 497 316 474 342 415 c 1
 344 415 l 1
 377 469 423 497 481 497 c 0
 579 497 639 410 639 266 c 0
 639 235 637 214 636 203 c 1
218 398 m 0
 167 398 159 309 159 244 c 0
 159 161 173 92 218 92 c 0
 268 92 276 169 276 247 c 0
 276 316 266 398 218 398 c 0
404 288 m 1
 519 288 l 1
 520 351 505 400 468 400 c 0
 423 400 405 339 404 288 c 1
EndSplineSet
EndChar

StartChar: germandbls
Encoding: 223 223 149
Width: 493
Flags: MW
HStem: -8 101<282 309 279 347.5> 0 21G<46 177 46 46> 595 105<233.5 274>
VStem: 46 131<0 432 432 443> 245 125<371.5 388> 319 124<518 546> 347 124<133 161>
LayerCount: 2
Fore
SplineSet
177 0 m 1x74
 46 0 l 1
 46 432 l 2
 46 541 69 600 112 642 c 0
 151 680 204 700 263 700 c 0
 383 700 443 622 443 530 c 0x74
 443 502 433 469 420 453 c 1
 389 436 370 412 370 385 c 0xb8
 370 358 383 340 407 312 c 0
 453 259 471 217 471 157 c 0
 471 57 396 -8 299 -8 c 0
 265 -8 236 -3 213 5 c 1
 228 105 l 1
 247 96 268 93 290 93 c 0
 328 93 347 120 347 146 c 0xb2
 347 176 333 198 304 232 c 0
 268 275 245 309 245 363 c 0xb8
 245 413 275 457 312 478 c 1
 319 493 319 511 319 525 c 0
 319 567 292 595 256 595 c 0
 210 595 177 556 177 443 c 2
 177 0 l 1x74
EndSplineSet
EndChar

StartChar: onesuperior
Encoding: 185 185 150
Width: 239
Flags: HMW
HStem: 417 21G<98 192 98 98> 724 83<96 192 96 192>
VStem: 98 94<417 724 724 724>
LayerCount: 2
Fore
SplineSet
192 417 m 1
 98 417 l 1
 98 704 l 1
 96 704 l 1
 39 680 l 5
 8 760 l 1
 108 807 l 1
 192 807 l 1
 192 417 l 1
EndSplineSet
EndChar

StartChar: logicalnot
Encoding: 172 172 151
Width: 596
Flags: HMW
HStem: 339 82<40 473 40 556>
VStem: 473 83<106 339 339 339>
LayerCount: 2
Fore
SplineSet
40 421 m 1
 556 431 l 1
 545 106 l 1
 462 111 l 5
 473 329 l 1
 45 319 l 1
 40 421 l 1
EndSplineSet
EndChar

StartChar: mu
Encoding: 181 181 152
Width: 455
Flags: HMW
HStem: -192 21G<61 182 61 61> -8 21G<366 397> -8 97<366 441> -1 21G<214.5 242> -1 98<214.5 235.5 208 242> 469 20G<45 177 177 177 276 407 407 407>
VStem: 45 132<152.5 180 180 489> 276 131<177 489>
LayerCount: 2
Fore
SplineSet
303 49 m 1x97
 300 49 l 1x97
 286 6 258 0 225 -1 c 0
 217.932176542 -1.21417646844 184 0 171 12 c 1
 171 -17 l 2
 171 -88 176 -141 182 -172 c 1
 61 -192 l 1
 52 -167 45 -103 45 0 c 2
 45 499 l 1
 177 509 l 1
 177 160 l 2
 177 105 193 97 223 97 c 0
 262.593910211 97 276 115.954101562 276 157 c 2x8f
 276 489 l 1
 407 479 l 5
 407 162 l 2
 407 121 428 112 452 107 c 1xa7
 429 -2 l 1
 380 0 337 16 303 49 c 1x97
EndSplineSet
EndChar

StartChar: trademark
Encoding: 8482 8482 153
Width: 539
Flags: MW
HStem: 610 64<25 81 25 215 158 215 158 158> 627 47<308 311 308 308 448 451 448 448>
VStem: 81 77<401 610 401 610> 239.5 68.5 452 68
LayerCount: 2
Fore
SplineSet
25 674 m 1xb8
 215 674 l 1
 215 610 l 1
 158 610 l 1
 158 401 l 1
 81 401 l 1
 81 610 l 1
 25 610 l 1
 25 674 l 1xb8
526 401 m 1
 456 401 l 1
 452 521 l 2
 452 551 452 585 451 627 c 1
 448 627 l 1
 441 581 435 545 431 521 c 2
 411 406 l 1
 341 406 l 1
 324 522 l 2
 321 548 316 591 311 627 c 1
 308 627 l 1x78
 307 590 307 552 305 521 c 2
 300 401 l 1
 233 401 l 1
 246 674 l 1
 357 674 l 1
 370 609 l 2
 374 581 376 566 381 521 c 1
 382 521 l 1
 386 554 391 581 395 608 c 2
 410 674 l 1
 514 674 l 1
 526 401 l 1
EndSplineSet
EndChar

StartChar: Eth
Encoding: 208 208 154
Width: 493
Flags: MW
HStem: -6 107<211.5 216> 303 91<0 61 0 61 191 265> 572 105<212 236.5 168 257>
VStem: 61 130<103 303 103 303 103 303 394 569> 333 135<276.5 410.5 276.5 419>
LayerCount: 2
Fore
SplineSet
0 303 m 1
 0 394 l 1
 61 394 l 1
 61 664 l 1
 93 672 142 677 194 677 c 0
 279 677 338 657 381 617 c 0
 439 565 468 476 468 345 c 0
 468 208 433 112 375 59 c 0
 329 16 263 -6 169 -6 c 0
 127 -6 86 -2 61 2 c 1
 61 303 l 1
 0 303 l 1
265 394 m 1
 265 303 l 1
 191 303 l 1
 191 103 l 1
 198 101 208 101 215 101 c 0
 278 101 333 163 333 350 c 0
 333 488 297 572 217 572 c 0
 207 572 199 571 191 569 c 1
 191 394 l 1
 265 394 l 1
EndSplineSet
Position2: "'cpsp' +BBgEPQRCBDUEQAQyBDAEOwAA +BD8EQAQ+BD8EOARBBD0ESwRF lookup 0 subtable" dx=10 dy=0 dh=20 dv=0
EndChar

StartChar: onehalf
Encoding: 189 189 155
Width: 667
Flags: MW
HStem: -8 21G<90 159 90 90> 0 80<502 629 502 629> 263 21G<96 190 96 96> 316 79<475 488.5> 570 83<94 190 94 190> 633 20G<106 190 190 190> 638 20G<439 507 507 507>
VStem: 96 94<263 570 570 570> 524 101<245.5 282>
LayerCount: 2
Fore
SplineSet
190 263 m 1x73
 96 263 l 1
 96 570 l 1
 94 570 l 1
 23 537 l 1
 6 606 l 1xb9
 106 653 l 1
 190 653 l 1x75
 190 263 l 1x73
159 -8 m 1
 90 -8 l 1
 439 658 l 1
 507 658 l 1xb3
 159 -8 l 1
385 0 m 1x7380
 385 53 l 1
 432 110 l 2
 483 173 524 218 524 263 c 0
 524 301 503 316 474 316 c 0
 449 316 426 305 410 293 c 1
 390 362 l 1
 411 380 451 395 499 395 c 0
 595 395 625 335 625 282 c 0
 625 209 570 153 520 102 c 2
 502 83 l 1
 502 80 l 1
 629 80 l 1
 629 0 l 1
 385 0 l 1x7380
EndSplineSet
Ligature2: "'frac' Diagonal Fractions lookup 9 subtable" one.numerator slash.frac two.numerator
Ligature2: "'frac' Diagonal Fractions lookup 9 subtable" one.numerator uni2215 two.numerator
Ligature2: "'frac' Diagonal Fractions lookup 9 subtable" one.numerator fraction two.numerator
EndChar

StartChar: plusminus
Encoding: 177 177 156
Width: 596
Flags: HMW
HStem: 0 82<40 556 40 556> 312 82<40 256 40 256 340 556>
VStem: 256 84<137 312 137 312 394 567>
LayerCount: 2
Fore
SplineSet
231.6640625 565.0078125 m 5
 335.59765625 568.735351562 l 5
 330.297851562 395.43359375 l 5
 554.467773438 403.473632812 l 5
 557.407226562 321.526367188 l 5
 327.78515625 313.291015625 l 5
 322.423828125 137.986328125 l 5
 218.491210938 134.258789062 l 5
 223.8515625 309.563476562 l 5
 41.73828125 303.032226562 l 5
 38.798828125 384.979492188 l 5
 226.364257812 391.706054688 l 5
 231.6640625 565.0078125 l 5
60 82 m 1
 536 82 l 1
 536 0 l 1
 60 0 l 1
 60 82 l 1
EndSplineSet
EndChar

StartChar: Thorn
Encoding: 222 222 157
Width: 453
Flags: HMW
HStem: 0 21G<58 58 58 186> 139 108<215.5 244 209.5 269> 454 106<220 251> 654 20G<58 186 186 186>
VStem: 58 128<0 143 0 250 250 451 558 674> 305 128<322.5 381.5>
LayerCount: 2
Fore
SplineSet
58 0 m 1
 53 674 l 5
 186 679 l 1
 186 558 l 1
 198 560 242 560 258 560 c 0
 364.442238719 560 432.132740565 559.000632298 433 363 c 0
 434 137 345 139 253 139 c 0
 238 139 195 141 186 143 c 1
 186 -5 l 1
 58 0 l 1
186 451 m 1
 186 230 l 1
 195 228 234 227 245 227 c 0
 303 227 305 272 305 333 c 0
 305 390 312 454 250 454 c 0
 237 454 196 453 186 451 c 1
EndSplineSet
Position2: "'cpsp' +BBgEPQRCBDUEQAQyBDAEOwAA +BD8EQAQ+BD8EOARBBD0ESwRF lookup 0 subtable" dx=10 dy=0 dh=20 dv=0
EndChar

StartChar: onequarter
Encoding: 188 188 158
Width: 667
Flags: MW
HStem: -8 21G<117 185 117 117> 0 158<436 591 436 507> 89 69<436 507 436 507 591 633> 263 21G<106 201 106 106> 295 96<508 510 508 508> 570 83<104 201 104 201> 633 20G<117 201 201 201> 638 20G<466 534 534 534>
VStem: 106 95<263 570 570 570> 507 84<0 89 158 229 229 242>
LayerCount: 2
Fore
SplineSet
201 263 m 1x59c0
 106 263 l 1
 106 570 l 1
 104 570 l 1
 34 537 l 1
 17 606 l 1x9cc0
 117 653 l 1
 201 653 l 1x5ac0
 201 263 l 1x59c0
185 -8 m 1
 117 -8 l 1
 466 658 l 1
 534 658 l 1x99c0
 185 -8 l 1
591 0 m 1x59c0
 507 0 l 1x59c0
 507 89 l 1
 359 89 l 1
 359 149 l 1x39c0
 499 391 l 1
 591 391 l 1
 591 158 l 1
 633 158 l 1x59c0
 633 89 l 1
 591 89 l 1x39c0
 591 0 l 1x59c0
507 158 m 1
 507 229 l 2
 507 255 508 278 510 295 c 1
 508 295 l 1
 498 276 493 261 483 243 c 2
 436 160 l 1
 436 158 l 1
 507 158 l 1
EndSplineSet
Ligature2: "'frac' Diagonal Fractions lookup 9 subtable" one.numerator slash.frac four.numerator
Ligature2: "'frac' Diagonal Fractions lookup 9 subtable" one.numerator uni2215 four.numerator
Ligature2: "'frac' Diagonal Fractions lookup 9 subtable" one.numerator fraction four.numerator
EndChar

StartChar: divide
Encoding: 247 247 159
Width: 596
Flags: MW
HStem: 34 123<281.5 316.5 281.5 317.5> 226 82<40 556 40 556> 377 123<281.5 316.5 281.5 317.5>
VStem: 240 117<78 112.5 421 456>
LayerCount: 2
Fore
SplineSet
298 377 m 0
 263 377 240 404 240 438 c 0
 240 474 264 500 299 500 c 0
 334 500 357 474 357 438 c 0
 357 404 337 377 298 377 c 0
556 226 m 1
 40 226 l 1
 40 308 l 1
 556 308 l 1
 556 226 l 1
298 34 m 0
 263 34 240 61 240 95 c 0
 240 130 264 157 299 157 c 0
 334 157 357 130 357 95 c 0
 357 61 337 34 298 34 c 0
EndSplineSet
EndChar

StartChar: brokenbar
Encoding: 166 166 160
Width: 218
Flags: HMW
HStem: -176 850<61 158 61 158>
VStem: 61 97<-176 174 -176 174 324 674>
LayerCount: 2
Fore
SplineSet
61 174 m 1
 168 174 l 1
 158 -176 l 5
 51 -176 l 5
 61 174 l 1
61 674 m 1
 168 674 l 1
 158 324 l 1
 51 324 l 1
 61 674 l 1
EndSplineSet
EndChar

StartChar: degree
Encoding: 176 176 161
Width: 287
Flags: HMW
HStem: 440 51<130.5 164 130.5 172.5> 631 51<130.5 168>
VStem: 26 59<539.5 577.5 539.5 592.5> 209 58<539 577>
LayerCount: 2
Fore
SplineSet
147 682 m 0
 262 682 267 627 267 563 c 0
 267 446 200 440 145 440 c 0
 32 440 26 490 26 557 c 0
 26 660 86 682 147 682 c 0
147 621 m 4
 114 621 85 614 85 558 c 0
 85 521 98 491 147 491 c 0
 181 491 209 506 209 559 c 0
 209 595 206 621 147 621 c 4
EndSplineSet
EndChar

StartChar: thorn
Encoding: 254 254 162
Width: 447
Flags: MW
HStem: -192 21G<45 176 45 45> -8 107<244 247.5 217 304.5> 387 110<217 324> 672 20G<45 175 175 175>
VStem: 45 131<-192 45 170.5 180 180 311> 287 131<205 289>
LayerCount: 2
Fore
SplineSet
45 692 m 1
 175 692 l 1
 175 430 l 1
 177 430 l 1
 197 473 230 497 274 497 c 0
 374 497 418 380 418 245 c 0
 418 72 341 -8 268 -8 c 0
 220 -8 191 18 178 45 c 1
 176 45 l 1
 176 -192 l 1
 45 -192 l 1
 45 692 l 1
176 311 m 2
 176 180 l 2
 176 161 179 144 184 135 c 0
 194 107 210 99 224 99 c 0
 271 99 287 166 287 244 c 0
 287 334 265 387 227 387 c 0
 207 387 190 369 183 348 c 0
 178 337 176 326 176 311 c 2
EndSplineSet
EndChar

StartChar: threequarters
Encoding: 190 190 163
Width: 667
Flags: MW
HStem: -8 21G<133 202 133 133> 0 158<442 597 442 512> 89 69<442 512 442 512 597 639> 258 21G<93 159> 258 71<94 123.5 94 159> 295 96<514 516 514 514> 439 62<80 87 87 92 80 87> 587 71<117.5 128.5>
VStem: 80 108<470 472 470 501 470 501> 160 93<541 559> 166 98<366.5 400.5> 512 85<0 89 158 229 229 242>
LayerCount: 2
Fore
SplineSet
56 569 m 1x4b50
 41 635 l 1
 64 647 99 658 136 658 c 0
 220 658 253 609 253 563 c 0x8b50
 253 519 228 489 188 472 c 1
 188 470 l 1x4b90
 230 462 264 425 264 379 c 0
 264 309 206 258 112 258 c 0x4b30
 74 258 45 266 27 277 c 1x5350
 41 346 l 1
 58 337 81 329 107 329 c 0
 140 329 166 351 166 382 c 0
 166 419 134 439 92 439 c 2x4b30
 80 439 l 1x4b90
 80 501 l 1
 87 501 l 2
 120 501 160 513 160 546 c 0
 160 572 142 587 115 587 c 0
 92 587 74 580 56 569 c 1x4b50
202 -8 m 1
 133 -8 l 1
 482 658 l 1
 550 658 l 1
 202 -8 l 1
597 0 m 1x4b50
 512 0 l 1x4750
 512 89 l 1
 365 89 l 1
 365 149 l 1x2b50
 505 391 l 1
 597 391 l 1
 597 158 l 1
 639 158 l 1x4750
 639 89 l 1
 597 89 l 1x2b50
 597 0 l 1x4b50
512 158 m 1
 512 229 l 2
 512 255 514 278 516 295 c 1
 514 295 l 1
 504 276 499 261 489 243 c 2
 442 160 l 1
 442 158 l 1
 512 158 l 1
EndSplineSet
Ligature2: "'frac' Diagonal Fractions lookup 9 subtable" three.numerator slash.frac four.numerator
Ligature2: "'frac' Diagonal Fractions lookup 9 subtable" three.numerator uni2215 four.numerator
Ligature2: "'frac' Diagonal Fractions lookup 9 subtable" three.numerator fraction four.numerator
EndChar

StartChar: twosuperior
Encoding: 178 178 164
Width: 274
Flags: MW
HStem: 417 80<125 251 125 251> 733 79<97 110.5>
VStem: 146 101<662.5 699>
LayerCount: 2
Fore
SplineSet
8 417 m 1
 8 470 l 1
 54 527 l 2
 106 590 146 635 146 680 c 0
 146 718 125 733 96 733 c 0
 72 733 48 722 32 710 c 1
 13 779 l 1
 33 797 73 812 121 812 c 0
 217 812 247 752 247 699 c 0
 247 626 191 571 142 519 c 2
 125 500 l 1
 125 497 l 1
 251 497 l 1
 251 417 l 1
 8 417 l 1
EndSplineSet
EndChar

StartChar: registered
Encoding: 174 174 165
Width: 374
Flags: HMW
HStem: 361 39<154.5 219.5 154.5 232> 499 31<167 182 169 182 169 182> 566 33<181 192> 642 40<154.5 219.5>
VStem: 27 47<487.5 555 487.5 566> 126 41<446 499 446 593> 209 47<547 554> 300 47<488 555.5>
LayerCount: 2
Fore
SplineSet
167 499 m 1
 170 446 l 1
 129 444 l 5
 123 593 l 1
 132 595 167 599 196 599 c 0
 239.830078125 599 256 590.757920159 256 554 c 0
 256 527 244 522 223 521 c 1
 223 519 l 1
 249.956833291 510.575989597 253 512 262 451 c 1
 219 441 l 1
 211 491 211.041183594 499 182 499 c 2
 167 499 l 1
169 565 m 2
 169 530 l 1
 192 530 l 2
 208 530 209 537 209 548 c 0
 209 560 210 566 194 566 c 0
 188 566 172 565 169 565 c 2
187 682 m 0
 277 682 347 610 347 522 c 0
 347 433 277 361 187 361 c 0
 98 361 27 433 27 522 c 0
 27 610 98 682 187 682 c 0
187 642 m 0
 122 642 74 589 74 521 c 0
 74 454 122 400 187 400 c 0
 252 400 300 454 300 522 c 0
 300 589 252 642 187 642 c 0
EndSplineSet
EndChar

StartChar: minus
Encoding: 8722 8722 166
Width: 596
Flags: MW
HStem: 226 82<40 556 40 556>
VStem: 40 516<226 308 226 308>
LayerCount: 2
Fore
SplineSet
40 308 m 1
 556 308 l 1
 556 226 l 1
 40 226 l 1
 40 308 l 1
EndSplineSet
EndChar

StartChar: eth
Encoding: 240 240 167
Width: 431
Flags: MW
HStem: -8 100<196 240 196 252> 400 85<193 206.5 160.5 230.5>
VStem: 29 130<203.5 274.5 203.5 326.5> 272 131<204.5 263.5>
LayerCount: 2
Fore
SplineSet
217 92 m 0
 263 92 272 168 272 241 c 0
 272 286 272 326 263 356 c 0
 256 381 243 400 218 400 c 0
 168 400 159 303 159 246 c 0
 159 161 175 92 217 92 c 0
84 504 m 1
 56 547 l 1
 138 590 l 1
 122 606 99 624 76 641 c 1
 151 708 l 1
 177 691 207 668 237 641 c 1
 329 690 l 1
 357 644 l 1
 276 603 l 1
 310 568 337 524 361 478 c 0
 393 414 403 341 403 260 c 0
 403 43 291 -8 213 -8 c 0
 97 -8 29 85 29 243 c 0
 29 410 121 485 200 485 c 0
 213 485 224 482 236 475 c 1
 238 480 l 1
 224 507 203 536 182 555 c 1
 84 504 l 1
EndSplineSet
EndChar

StartChar: multiply
Encoding: 215 215 168
Width: 596
Flags: HMW
HStem: 0 526<96 98 96 497>
VStem: 40 516<61 61 61 466>
LayerCount: 2
Fore
SplineSet
50 456 m 5
 106 516 l 5
 288 331 l 1
 490 536 l 1
 556 466 l 1
 356 263 l 1
 556 61 l 1
 497 0 l 1
 298 204 l 1
 98 0 l 1
 30 71 l 1
 229 273 l 1
 50 456 l 5
EndSplineSet
EndChar

StartChar: threesuperior
Encoding: 179 179 169
Width: 260
Flags: MW
HStem: 412 21G<72.5 138> 412 71<73.5 103.5 73.5 138> 593 62<59 67 67 71 59 67> 741 71<96.5 107.5>
VStem: 59 108<624 626 624 655 624 655> 140 92<695 713> 145 98<520.5 554.5>
LayerCount: 2
Fore
SplineSet
35 723 m 1x72
 21 789 l 1
 43 801 78 812 115 812 c 0
 199 812 232 763 232 717 c 0x74
 232 673 207 643 167 626 c 1
 167 624 l 1x78
 209 616 243 579 243 533 c 0
 243 463 185 412 91 412 c 0x72
 54 412 25 420 6 431 c 1xb2
 20 500 l 1
 37 491 60 483 87 483 c 0
 120 483 145 505 145 536 c 0
 145 573 113 593 71 593 c 2x72
 59 593 l 1x78
 59 655 l 1
 67 655 l 2
 99 655 140 667 140 700 c 0
 140 726 121 741 94 741 c 0x74
 71 741 54 734 35 723 c 1x72
EndSplineSet
EndChar

StartChar: copyright
Encoding: 169 169 170
Width: 677
Flags: HMW
HStem: 30 56<271 406.5 271 425.5> 153 59<325.5 376> 461 59<328 388.5> 592 56<271 406.5>
VStem: 31 65<269 409 269 425> 169 71<299 374.5 299 391.5> 581 65<269 409>
LayerCount: 2
Fore
SplineSet
340 648 m 0
 511 648 646 510 646 340 c 0
 646 168 511 30 340 30 c 0
 168 30 31 168 31 340 c 0
 31 510 168 648 340 648 c 0
339 592 m 0
 203 592 96 479 96 339 c 0
 96 199 203 86 339 86 c 0
 474 86 581 199 581 339 c 0
 581 479 474 592 339 592 c 0
474 494 m 1
 459 420 l 1
 446 427 411 441 366 441 c 0
 290 441 240 437 240 321 c 4
 240 226 289 222 362 222 c 0
 401 222 435 232 457 243 c 1
 472 181 l 1
 437 162 401 153 351 153 c 0
 237 153 169 208 169 334 c 4
 169 485 254 520 369 520 c 0
 414 520 461 505 474 494 c 1
EndSplineSet
EndChar

StartChar: Acircumflex
Encoding: 194 194 172
Width: 458
Flags: HMW
HStem: 0 21G<8 135 8 8 315 315 315 442> 154 102<178 274 178 286 165 274> 550 124<227 230 227 227> 710 110<180 192 99 283 271 283 180 367 271 271>
VStem: 8 434<0 0>
LayerCount: 2
Fore
SplineSet
180 820 m 1
 283 820 l 1
 367 710 l 1
 271 710 l 1
 233 761 l 1
 231 761 l 1
 192 710 l 1
 99 710 l 1
 180 820 l 1
EndSplineSet
Refer: 34 65 N 1 0 0 1 0 0 2
Position2: "'cpsp' +BBgEPQRCBDUEQAQyBDAEOwAA +BD8EQAQ+BD8EOARBBD0ESwRF lookup 0 subtable" dx=10 dy=0 dh=20 dv=0
EndChar

StartChar: Ccedilla
Encoding: 199 199 177
Width: 402
Flags: MW
HStem: -203 59<216 232 216 256.5> -6 116<291 309> -1 21G<225 225> 565 115<268 319.5> 660 20G<231.5 320>
VStem: 25 139<253.5 417.5 253.5 454> 256 83<-127.5 -108.5>
LayerCount: 2
Fore
SplineSet
368 120 m 1xd4
 381 10 l 1
 362 1 327 -6 291 -6 c 1
 271 -44 l 1xd6
 307 -50 339 -77 339 -117 c 0
 339 -181 285 -203 228 -203 c 0
 201 -203 171 -196 153 -186 c 1
 172 -129 l 1
 188 -138 208 -144 224 -144 c 0
 240 -144 256 -137 256 -118 c 0
 256 -99 232 -85 188 -81 c 1
 225 -1 l 1
 88 28 25 151 25 327 c 0
 25 581 166 680 297 680 c 0xb6
 343 680 375 671 388 662 c 1xac
 366 552 l 1
 351 559 334 565 305 565 c 0
 231 565 164 501 164 334 c 0
 164 173 225 110 305 110 c 0
 326 110 352 115 368 120 c 1xd4
EndSplineSet
Position2: "'cpsp' +BBgEPQRCBDUEQAQyBDAEOwAA +BD8EQAQ+BD8EOARBBD0ESwRF lookup 0 subtable" dx=10 dy=0 dh=20 dv=0
EndChar

StartChar: Ecircumflex
Encoding: 202 202 179
Width: 394
Flags: HMW
HStem: 0 114<189 363 189 363> 296 109<189 343 189 343> 560 114<189 351 189 189> 710 110<157 168 75 259 247 259 157 343 247 247>
VStem: 58 131<114 296 114 405 405 560>
LayerCount: 2
Fore
SplineSet
157 820 m 1
 259 820 l 1
 343 710 l 1
 247 710 l 1
 209 761 l 1
 207 761 l 1
 168 710 l 1
 75 710 l 1
 157 820 l 1
EndSplineSet
Refer: 38 69 S 1 0 0 1 0 0 2
Position2: "'cpsp' +BBgEPQRCBDUEQAQyBDAEOwAA +BD8EQAQ+BD8EOARBBD0ESwRF lookup 0 subtable" dx=10 dy=0 dh=20 dv=0
EndChar

StartChar: Iacute
Encoding: 205 205 182
Width: 248
Flags: MW
HStem: 0 21G<58 189 58 58> 654 20G<58 189 189 189> 710 113<143 153 60 275>
VStem: 58 131<0 674 0 674>
LayerCount: 2
Fore
SplineSet
58 674 m 1
 189 674 l 1
 189 0 l 1
 58 0 l 1
 58 674 l 1
143 823 m 1
 275 823 l 1
 153 710 l 1
 60 710 l 1
 143 823 l 1
EndSplineSet
Position2: "'cpsp' +BBgEPQRCBDUEQAQyBDAEOwAA +BD8EQAQ+BD8EOARBBD0ESwRF lookup 0 subtable" dx=10 dy=0 dh=20 dv=0
EndChar

StartChar: Icircumflex
Encoding: 206 206 183
Width: 248
Flags: MW
HStem: 0 21G<58 189 58 58> 654 20G<58 189 189 189> 710 110<72 83 -9 174 163 174 72 258 163 163>
VStem: 58 131<0 674 0 674>
LayerCount: 2
Fore
SplineSet
58 674 m 1
 189 674 l 1
 189 0 l 1
 58 0 l 1
 58 674 l 1
72 820 m 1
 174 820 l 1
 258 710 l 1
 163 710 l 1
 124 761 l 1
 122 761 l 1
 83 710 l 1
 -9 710 l 1
 72 820 l 1
EndSplineSet
Position2: "'cpsp' +BBgEPQRCBDUEQAQyBDAEOwAA +BD8EQAQ+BD8EOARBBD0ESwRF lookup 0 subtable" dx=10 dy=0 dh=20 dv=0
EndChar

StartChar: Idieresis
Encoding: 207 207 184
Width: 248
Flags: MW
HStem: 0 21G<58 189 58 58> 654 20G<58 189 189 189> 714 128<16 48 200 232>
VStem: -28 119<760 796> 58 131<0 674 0 674> 156 119<760 796>
LayerCount: 2
Fore
SplineSet
58 674 m 1xe8
 189 674 l 1
 189 0 l 1
 58 0 l 1
 58 674 l 1xe8
32 714 m 0
 0 714 -28 742 -28 778 c 0xf0
 -28 814 0 842 32 842 c 0
 64 842 91 814 91 778 c 0
 91 742 64 714 32 714 c 0
216 714 m 0
 183 714 156 742 156 778 c 0xe8
 156 814 184 842 216 842 c 0
 248 842 275 814 275 778 c 0xe4
 275 742 248 714 216 714 c 0
EndSplineSet
Position2: "'cpsp' +BBgEPQRCBDUEQAQyBDAEOwAA +BD8EQAQ+BD8EOARBBD0ESwRF lookup 0 subtable" dx=10 dy=0 dh=20 dv=0
EndChar

StartChar: Igrave
Encoding: 204 204 185
Width: 248
Flags: MW
HStem: 0 21G<58 189 58 58> 654 20G<58 189 189 189> 710 113<92 102 -30 185 92 92>
VStem: 58 131<0 674 0 674>
LayerCount: 2
Fore
SplineSet
58 674 m 1
 189 674 l 1
 189 0 l 1
 58 0 l 1
 58 674 l 1
-30 823 m 1
 102 823 l 1
 185 710 l 1
 92 710 l 1
 -30 823 l 1
EndSplineSet
Position2: "'cpsp' +BBgEPQRCBDUEQAQyBDAEOwAA +BD8EQAQ+BD8EOARBBD0ESwRF lookup 0 subtable" dx=10 dy=0 dh=20 dv=0
EndChar

StartChar: Ntilde
Encoding: 209 209 186
Width: 516
Flags: MW
HStem: 0 21G<58 173 58 58 338 338 338 458> 654 20G<58 178 178 178 343 458 458 458> 718 115<188 201 142 219.5> 722 115<322 334>
VStem: 58 115<0 152> 142 59<718 718> 322 58<837 837> 343 115<525 674 0 674>
LayerCount: 2
Fore
SplineSet
173 0 m 1xd9
 58 0 l 1
 58 674 l 1
 178 674 l 1
 282 410 l 2
 302 358 335 271 354 213 c 1
 356 213 l 1
 352 284 343 401 343 525 c 2
 343 674 l 1
 458 674 l 1
 458 0 l 1
 338 0 l 1
 235 256 l 2
 213 313 182 398 167 459 c 1
 165 459 l 1
 168 391 173 287 173 152 c 2
 173 0 l 1xd9
201 718 m 1xe5
 142 718 l 1
 140 793 168 833 208 833 c 0xe5
 231 833 247 825 261 816 c 0
 275 807 287 799 298 799 c 0
 313 799 319 808 322 837 c 1
 380 837 l 1
 383 753 357 722 311 722 c 0xda
 289 722 271 730 257 738 c 0
 244 747 234 753 223 753 c 0
 212 753 204 742 201 718 c 1xe5
EndSplineSet
Position2: "'cpsp' +BBgEPQRCBDUEQAQyBDAEOwAA +BD8EQAQ+BD8EOARBBD0ESwRF lookup 0 subtable" dx=10 dy=0 dh=20 dv=0
EndChar

StartChar: Oacute
Encoding: 211 211 187
Width: 481
Flags: MW
HStem: -8 114<216.5 270.5 216.5 302> 568 114<216 271.5> 710 113<267 278 185 400>
VStem: 25 136<260.5 409.5 260.5 431> 319 137<274.5 402>
LayerCount: 2
Fore
SplineSet
247 682 m 0
 410 682 456 503 456 349 c 0
 456 95 366 -8 238 -8 c 0
 85 -8 25 154 25 339 c 0
 25 523 98 682 247 682 c 0
242 568 m 0
 190 568 161 482 161 337 c 0
 161 184 190 106 243 106 c 0
 298 106 319 206 319 343 c 0
 319 461 301 568 242 568 c 0
267 823 m 1xf8
 400 823 l 1
 278 710 l 1
 185 710 l 1
 267 823 l 1xf8
EndSplineSet
Position2: "'cpsp' +BBgEPQRCBDUEQAQyBDAEOwAA +BD8EQAQ+BD8EOARBBD0ESwRF lookup 0 subtable" dx=10 dy=0 dh=20 dv=0
EndChar

StartChar: Ocircumflex
Encoding: 212 212 188
Width: 481
Flags: MW
HStem: -8 114<216.5 270.5 216.5 302> 568 114<216 271.5> 710 110<188 200 107 290 279 290 188 375 279 279>
VStem: 25 136<260.5 409.5 260.5 431> 319 137<274.5 402>
LayerCount: 2
Fore
SplineSet
247 682 m 0
 410 682 456 503 456 349 c 0
 456 95 366 -8 238 -8 c 0
 85 -8 25 154 25 339 c 0
 25 523 98 682 247 682 c 0
242 568 m 0
 190 568 161 482 161 337 c 0
 161 184 190 106 243 106 c 0
 298 106 319 206 319 343 c 0
 319 461 301 568 242 568 c 0
188 820 m 1xf8
 290 820 l 1
 375 710 l 1
 279 710 l 1
 240 761 l 1
 238 761 l 1
 200 710 l 1
 107 710 l 1
 188 820 l 1xf8
EndSplineSet
Position2: "'cpsp' +BBgEPQRCBDUEQAQyBDAEOwAA +BD8EQAQ+BD8EOARBBD0ESwRF lookup 0 subtable" dx=10 dy=0 dh=20 dv=0
EndChar

StartChar: Odieresis
Encoding: 214 214 189
Width: 481
Flags: MW
HStem: -8 114<216.5 270.5 216.5 302> 568 114<216 271.5> 714 128<131.5 163.5 316 348>
VStem: 25 136<260.5 409.5 260.5 431> 88 118<760 796> 272 119<760 796> 319 137<274.5 402>
LayerCount: 2
Fore
SplineSet
247 682 m 0xf2
 410 682 456 503 456 349 c 0
 456 95 366 -8 238 -8 c 0
 85 -8 25 154 25 339 c 0
 25 523 98 682 247 682 c 0xf2
242 568 m 0
 190 568 161 482 161 337 c 0
 161 184 190 106 243 106 c 0
 298 106 319 206 319 343 c 0
 319 461 301 568 242 568 c 0
147 714 m 0xec
 116 714 88 742 88 778 c 0
 88 814 116 842 147 842 c 0
 180 842 206 814 206 778 c 0
 206 742 180 714 147 714 c 0xec
332 714 m 0
 299 714 272 742 272 778 c 0
 272 814 300 842 332 842 c 0
 364 842 391 814 391 778 c 0
 391 742 364 714 332 714 c 0
EndSplineSet
Position2: "'cpsp' +BBgEPQRCBDUEQAQyBDAEOwAA +BD8EQAQ+BD8EOARBBD0ESwRF lookup 0 subtable" dx=10 dy=0 dh=20 dv=0
EndChar

StartChar: Ograve
Encoding: 210 210 190
Width: 481
Flags: MW
HStem: -8 114<216.5 270.5 216.5 302> 568 114<216 271.5> 710 113<212 222 90 305 212 212>
VStem: 25 136<260.5 409.5 260.5 431> 319 137<274.5 402>
LayerCount: 2
Fore
SplineSet
247 682 m 0
 410 682 456 503 456 349 c 0
 456 95 366 -8 238 -8 c 0
 85 -8 25 154 25 339 c 0
 25 523 98 682 247 682 c 0
242 568 m 0
 190 568 161 482 161 337 c 0
 161 184 190 106 243 106 c 0
 298 106 319 206 319 343 c 0
 319 461 301 568 242 568 c 0
90 823 m 1xf8
 222 823 l 1
 305 710 l 1
 212 710 l 1
 90 823 l 1xf8
EndSplineSet
Position2: "'cpsp' +BBgEPQRCBDUEQAQyBDAEOwAA +BD8EQAQ+BD8EOARBBD0ESwRF lookup 0 subtable" dx=10 dy=0 dh=20 dv=0
EndChar

StartChar: Otilde
Encoding: 213 213 191
Width: 481
Flags: MW
HStem: -8 114<216.5 270.5 216.5 302> 568 114<216 271.5> 713 116<167.5 181 122 199> 718 114<302 313.5>
VStem: 25 136<260.5 409.5 260.5 431> 122 59<713 713> 302 58<832 832> 319 137<274.5 402>
LayerCount: 2
Fore
SplineSet
247 682 m 0xd9
 410 682 456 503 456 349 c 0
 456 95 366 -8 238 -8 c 0
 85 -8 25 154 25 339 c 0
 25 523 98 682 247 682 c 0xd9
242 568 m 0
 190 568 161 482 161 337 c 0
 161 184 190 106 243 106 c 0
 298 106 319 206 319 343 c 0
 319 461 301 568 242 568 c 0
181 713 m 1xe5
 122 713 l 1
 119 788 147 829 188 829 c 0xe5
 210 829 227 821 240 812 c 0
 255 803 266 795 277 795 c 0
 292 795 298 804 302 832 c 1
 360 832 l 1
 362 749 336 718 291 718 c 0xda
 268 718 251 725 237 733 c 0
 223 742 213 749 202 749 c 0
 191 749 183 737 181 713 c 1xe5
EndSplineSet
Position2: "'cpsp' +BBgEPQRCBDUEQAQyBDAEOwAA +BD8EQAQ+BD8EOARBBD0ESwRF lookup 0 subtable" dx=10 dy=0 dh=20 dv=0
EndChar

StartChar: Scaron
Encoding: 352 352 192
Width: 394
Flags: MW
HStem: -6 114<135 185 135 219> 566 114<216 263> 710 110<159 170 250 261 159 159>
VStem: 32 129<476 514 476 536> 246 130<162 208.5>
LayerCount: 2
Fore
SplineSet
24 21 m 1
 43 134 l 1
 70 119 116 108 154 108 c 0
 216 108 246 140 246 184 c 0
 246 233 216 257 159 294 c 0
 67 350 32 421 32 482 c 0
 32 590 104 680 245 680 c 0
 289 680 331 668 351 656 c 1
 330 543 l 1
 311 555 282 566 244 566 c 0
 188 566 161 532 161 496 c 0
 161 456 181 435 254 391 c 0
 343 337 376 269 376 198 c 0
 376 75 285 -6 153 -6 c 0
 99 -6 46 8 24 21 c 1
261 710 m 1xf8
 159 710 l 1
 75 820 l 1
 170 820 l 1
 209 767 l 1
 211 767 l 1
 250 820 l 1
 342 820 l 1
 261 710 l 1xf8
EndSplineSet
Position2: "'cpsp' +BBgEPQRCBDUEQAQyBDAEOwAA +BD8EQAQ+BD8EOARBBD0ESwRF lookup 0 subtable" dx=10 dy=0 dh=20 dv=0
EndChar

StartChar: Uacute
Encoding: 218 218 193
Width: 500
Flags: MW
HStem: -8 115<232 268 232 315> 654 20G<54 185 185 185 314 445 445 445> 710 113<263 274 181 396>
VStem: 54 131<258 674> 314 131<236 259 259 674>
LayerCount: 2
Fore
SplineSet
54 674 m 1
 185 674 l 1
 185 236 l 2
 185 137 215 107 249 107 c 0
 287 107 314 134 314 236 c 2
 314 674 l 1
 445 674 l 1
 445 259 l 2
 445 86 380 -8 250 -8 c 0
 109 -8 54 89 54 258 c 2
 54 674 l 1
263 823 m 1
 396 823 l 1
 274 710 l 1
 181 710 l 1
 263 823 l 1
EndSplineSet
Position2: "'cpsp' +BBgEPQRCBDUEQAQyBDAEOwAA +BD8EQAQ+BD8EOARBBD0ESwRF lookup 0 subtable" dx=10 dy=0 dh=20 dv=0
EndChar

StartChar: Ucircumflex
Encoding: 219 219 194
Width: 500
Flags: MW
HStem: -8 115<232 268 232 315> 654 20G<54 185 185 185 314 445 445 445> 710 110<201 212 120 303 292 303 201 388 292 292>
VStem: 54 131<258 674> 314 131<236 259 259 674>
LayerCount: 2
Fore
SplineSet
54 674 m 1
 185 674 l 1
 185 236 l 2
 185 137 215 107 249 107 c 0
 287 107 314 134 314 236 c 2
 314 674 l 1
 445 674 l 1
 445 259 l 2
 445 86 380 -8 250 -8 c 0
 109 -8 54 89 54 258 c 2
 54 674 l 1
201 820 m 1
 303 820 l 1
 388 710 l 1
 292 710 l 1
 253 761 l 1
 251 761 l 1
 212 710 l 1
 120 710 l 1
 201 820 l 1
EndSplineSet
Position2: "'cpsp' +BBgEPQRCBDUEQAQyBDAEOwAA +BD8EQAQ+BD8EOARBBD0ESwRF lookup 0 subtable" dx=10 dy=0 dh=20 dv=0
EndChar

StartChar: Udieresis
Encoding: 220 220 195
Width: 500
Flags: MW
HStem: -8 115<232 268 232 315> 654 20G<54 185 185 185 314 445 445 445> 714 128<141.5 173 141.5 173 325 357>
VStem: 54 131<258 674> 98 118<760 796> 281 119<760 796> 314 131<236 259 259 674>
LayerCount: 2
Fore
SplineSet
54 674 m 1xf2
 185 674 l 1
 185 236 l 2
 185 137 215 107 249 107 c 0
 287 107 314 134 314 236 c 2
 314 674 l 1
 445 674 l 1
 445 259 l 2
 445 86 380 -8 250 -8 c 0
 109 -8 54 89 54 258 c 2
 54 674 l 1xf2
157 714 m 0
 125 714 98 742 98 778 c 0xf2
 98 814 126 842 157 842 c 0
 189 842 216 814 216 778 c 0xea
 216 742 189 714 157 714 c 0
341 714 m 0
 308 714 281 742 281 778 c 0xf4
 281 814 309 842 341 842 c 0
 373 842 400 814 400 778 c 0
 400 742 373 714 341 714 c 0
EndSplineSet
Position2: "'cpsp' +BBgEPQRCBDUEQAQyBDAEOwAA +BD8EQAQ+BD8EOARBBD0ESwRF lookup 0 subtable" dx=10 dy=0 dh=20 dv=0
EndChar

StartChar: Ugrave
Encoding: 217 217 196
Width: 500
Flags: MW
HStem: -8 115<232 268 232 315> 654 20G<54 185 185 185 314 445 445 445> 710 113<224 234 101 317 224 224>
VStem: 54 131<258 674> 314 131<236 259 259 674>
LayerCount: 2
Fore
SplineSet
54 674 m 1
 185 674 l 1
 185 236 l 2
 185 137 215 107 249 107 c 0
 287 107 314 134 314 236 c 2
 314 674 l 1
 445 674 l 1
 445 259 l 2
 445 86 380 -8 250 -8 c 0
 109 -8 54 89 54 258 c 2
 54 674 l 1
101 823 m 1
 234 823 l 1
 317 710 l 1
 224 710 l 1
 101 823 l 1
EndSplineSet
Position2: "'cpsp' +BBgEPQRCBDUEQAQyBDAEOwAA +BD8EQAQ+BD8EOARBBD0ESwRF lookup 0 subtable" dx=10 dy=0 dh=20 dv=0
EndChar

StartChar: Yacute
Encoding: 221 221 197
Width: 402
Flags: MW
HStem: 0 21G<133 264 133 133> 654 20G<-15 125 125 125 279 415 415 415> 710 113<230 240 147 363>
VStem: 133 131<0 258 258 258>
LayerCount: 2
Fore
SplineSet
264 0 m 1
 133 0 l 1
 133 258 l 1
 -15 674 l 1
 125 674 l 1
 171 513 l 2
 183 470 196 420 206 370 c 1
 208 370 l 1
 216 419 227 468 239 516 c 2
 279 674 l 1
 415 674 l 1
 264 263 l 1
 264 0 l 1
230 823 m 1
 363 823 l 1
 240 710 l 1
 147 710 l 1
 230 823 l 1
EndSplineSet
Position2: "'cpsp' +BBgEPQRCBDUEQAQyBDAEOwAA +BD8EQAQ+BD8EOARBBD0ESwRF lookup 0 subtable" dx=10 dy=0 dh=20 dv=0
EndChar

StartChar: Ydieresis
Encoding: 376 376 198
Width: 402
Flags: MW
HStem: 0 21G<133 264 133 133> 654 20G<-15 125 125 125 279 415 415 415> 712 128<97.5 129 97.5 129 281 313.5>
VStem: 54 118<758 794> 133 131<0 258 258 258> 237 119<758 794>
LayerCount: 2
Fore
SplineSet
264 0 m 1xe8
 133 0 l 1
 133 258 l 1
 -15 674 l 1
 125 674 l 1
 171 513 l 2
 183 470 196 420 206 370 c 1
 208 370 l 1
 216 419 227 468 239 516 c 2
 279 674 l 1
 415 674 l 1
 264 263 l 1
 264 0 l 1xe8
113 712 m 0xf4
 81 712 54 740 54 776 c 0
 54 812 82 840 113 840 c 0
 145 840 172 812 172 776 c 0
 172 740 145 712 113 712 c 0xf4
297 712 m 0
 265 712 237 740 237 776 c 0
 237 812 265 840 297 840 c 0
 330 840 356 812 356 776 c 0
 356 740 330 712 297 712 c 0
EndSplineSet
Position2: "'cpsp' +BBgEPQRCBDUEQAQyBDAEOwAA +BD8EQAQ+BD8EOARBBD0ESwRF lookup 0 subtable" dx=10 dy=0 dh=20 dv=0
EndChar

StartChar: Zcaron
Encoding: 381 381 199
Width: 387
Flags: MW
HStem: 0 114<168 371 168 371> 560 114<31 224 31 372> 710 110<152 164 243 255 152 152>
VStem: 11 361 224 148<557 674 560 674>
LayerCount: 2
Fore
SplineSet
11 0 m 1xf0
 11 77 l 1
 224 557 l 1
 224 560 l 1
 31 560 l 1
 31 674 l 1
 372 674 l 1
 372 577 l 1xe8
 168 117 l 1
 168 114 l 1
 371 114 l 1
 371 0 l 1
 11 0 l 1xf0
255 710 m 1
 152 710 l 1
 68 820 l 1
 164 820 l 1
 203 767 l 1
 205 767 l 1
 243 820 l 1
 336 820 l 1
 255 710 l 1
EndSplineSet
Position2: "'cpsp' +BBgEPQRCBDUEQAQyBDAEOwAA +BD8EQAQ+BD8EOARBBD0ESwRF lookup 0 subtable" dx=10 dy=0 dh=20 dv=0
EndChar

StartChar: aacute
Encoding: 225 225 200
Width: 422
Flags: MW
HStem: -8 21G<111 169.5> -8 96<111 200.5> 0 21G<265 383 265 265> 238 85<243 247> 400 97<168 197> 549 140<230 243 161 344>
VStem: 19 124<130.5 189 130.5 205> 247 128<153 238 238 238>
LayerCount: 2
Fore
SplineSet
383 0 m 1x3f
 265 0 l 1x3f
 258 48 l 1
 256 48 l 1
 229 10 191 -8 148 -8 c 0x9f
 74 -8 19 54 19 141 c 0
 19 269 132 322 243 323 c 1
 243 334 l 2
 243 372 220 400 174 400 c 0
 135 400 103 390 74 372 c 1
 50 460 l 1
 77 476 134 497 202 497 c 0
 351 497 375 393 375 294 c 2
 375 112 l 2
 375 73 377 33 383 0 c 1x3f
247 153 m 2x5f
 247 238 l 1
 203 237 143 223 143 155 c 0
 143 106 170 88 190 88 c 0
 211 88 235 101 244 130 c 0
 246 137 247 145 247 153 c 2x5f
230 689 m 1
 344 689 l 1
 243 549 l 1
 161 549 l 1
 230 689 l 1
EndSplineSet
EndChar

StartChar: acircumflex
Encoding: 226 226 201
Width: 422
Flags: MW
HStem: -8 21G<111 169.5> -8 96<111 200.5> 0 21G<265 383 265 265> 238 85<243 247> 400 97<168 197> 549 140<165 170 79 256 252 256 165 341 252 252>
VStem: 19 124<130.5 189 130.5 205> 247 128<153 238 238 238>
LayerCount: 2
Fore
SplineSet
383 0 m 1x3f
 265 0 l 1x3f
 258 48 l 1
 256 48 l 1
 229 10 191 -8 148 -8 c 0x9f
 74 -8 19 54 19 141 c 0
 19 269 132 322 243 323 c 1
 243 334 l 2
 243 372 220 400 174 400 c 0
 135 400 103 390 74 372 c 1
 50 460 l 1
 77 476 134 497 202 497 c 0
 351 497 375 393 375 294 c 2
 375 112 l 2
 375 73 377 33 383 0 c 1x3f
247 153 m 2x5f
 247 238 l 1
 203 237 143 223 143 155 c 0
 143 106 170 88 190 88 c 0
 211 88 235 101 244 130 c 0
 246 137 247 145 247 153 c 2x5f
165 689 m 1
 256 689 l 1
 341 549 l 1
 252 549 l 1
 211 629 l 1
 209 629 l 1
 170 549 l 1
 79 549 l 1
 165 689 l 1
EndSplineSet
EndChar

StartChar: adieresis
Encoding: 228 228 202
Width: 422
Flags: MW
HStem: -8 21G<111 169.5> -8 96<111 200.5> 0 21G<265 383 265 265> 238 85<243 247> 400 97<168 197> 560 128<105.5 139 105.5 139.5 283.5 316.5>
VStem: 19 124<130.5 189 130.5 205> 62 120<605.5 642.5> 239 120<605.5 642.5> 247 128<153 238 238 238>
LayerCount: 2
Fore
SplineSet
383 0 m 1x3e40
 265 0 l 1x3e40
 258 48 l 1
 256 48 l 1
 229 10 191 -8 148 -8 c 0x9e40
 74 -8 19 54 19 141 c 0
 19 269 132 322 243 323 c 1
 243 334 l 2
 243 372 220 400 174 400 c 0
 135 400 103 390 74 372 c 1
 50 460 l 1
 77 476 134 497 202 497 c 0
 351 497 375 393 375 294 c 2
 375 112 l 2
 375 73 377 33 383 0 c 1x3e40
247 153 m 2x5e40
 247 238 l 1
 203 237 143 223 143 155 c 0
 143 106 170 88 190 88 c 0
 211 88 235 101 244 130 c 0
 246 137 247 145 247 153 c 2x5e40
122 560 m 0x3d80
 89 560 62 587 62 624 c 0
 62 661 89 688 122 688 c 0
 156 688 182 662 182 624 c 0
 182 587 157 560 122 560 c 0x3d80
300 560 m 0
 266 560 239 587 239 624 c 0
 239 661 267 688 300 688 c 0
 333 688 359 662 359 624 c 0
 359 587 334 560 300 560 c 0
EndSplineSet
EndChar

StartChar: agrave
Encoding: 224 224 203
Width: 422
Flags: MW
HStem: -8 21G<111 169.5> -8 96<111 200.5> 0 21G<265 383 265 265> 238 85<243 247> 400 97<168 197> 549 140<179 193 78 261 179 179>
VStem: 19 124<130.5 189 130.5 205> 247 128<153 238 238 238>
LayerCount: 2
Fore
SplineSet
383 0 m 1x3f
 265 0 l 1x3f
 258 48 l 1
 256 48 l 1
 229 10 191 -8 148 -8 c 0x9f
 74 -8 19 54 19 141 c 0
 19 269 132 322 243 323 c 1
 243 334 l 2
 243 372 220 400 174 400 c 0
 135 400 103 390 74 372 c 1
 50 460 l 1
 77 476 134 497 202 497 c 0
 351 497 375 393 375 294 c 2
 375 112 l 2
 375 73 377 33 383 0 c 1x3f
247 153 m 2x5f
 247 238 l 1
 203 237 143 223 143 155 c 0
 143 106 170 88 190 88 c 0
 211 88 235 101 244 130 c 0
 246 137 247 145 247 153 c 2x5f
78 689 m 1
 193 689 l 1
 261 549 l 1
 179 549 l 1
 78 689 l 1
EndSplineSet
EndChar

StartChar: aring
Encoding: 229 229 204
Width: 422
Flags: MW
HStem: -8 21G<111 169.5> -8 96<111 200.5> 0 21G<265 383 265 265> 238 85<243 247> 400 97<168 197> 538 44<196 227.5 196 245.5> 677 44<195.5 227.5>
VStem: 19 124<130.5 189 130.5 205> 109 63<619.5 638.5 619.5 653> 247 128<153 238 238 238> 253 62<619.5 640.5>
LayerCount: 2
Fore
SplineSet
383 0 m 1x3f40
 265 0 l 1x3f40
 258 48 l 1
 256 48 l 1
 229 10 191 -8 148 -8 c 0x9f40
 74 -8 19 54 19 141 c 0
 19 269 132 322 243 323 c 1
 243 334 l 2
 243 372 220 400 174 400 c 0
 135 400 103 390 74 372 c 1
 50 460 l 1
 77 476 134 497 202 497 c 0
 351 497 375 393 375 294 c 2
 375 112 l 2
 375 73 377 33 383 0 c 1x3f40
247 153 m 2x5f40
 247 238 l 1
 203 237 143 223 143 155 c 0
 143 106 170 88 190 88 c 0
 211 88 235 101 244 130 c 0
 246 137 247 145 247 153 c 2x5f40
213 538 m 0x3ea0
 144 538 109 578 109 627 c 0
 109 679 143 721 214 721 c 0
 281 721 315 682 315 630 c 0
 315 579 278 538 213 538 c 0x3ea0
211 582 m 0
 244 582 253 609 253 630 c 0
 253 651 245 677 210 677 c 0
 181 677 172 649 172 628 c 0
 172 611 181 582 211 582 c 0
EndSplineSet
EndChar

StartChar: atilde
Encoding: 227 227 205
Width: 422
Flags: MW
HStem: -8 21G<111 169.5> -8 96<111 200.5> 0 21G<265 383 265 265> 238 85<243 247> 400 97<168 197> 557 118<135 148 88 171.5> 564 114<275 284.5>
VStem: 19 124<130.5 189 130.5 205> 88 60<557 589.5> 247 128<153 238 238 238> 275 58<662 678>
LayerCount: 2
Fore
SplineSet
383 0 m 1x3d40
 265 0 l 1x3d40
 258 48 l 1
 256 48 l 1
 229 10 191 -8 148 -8 c 0x9d40
 74 -8 19 54 19 141 c 0
 19 269 132 322 243 323 c 1
 243 334 l 2
 243 372 220 400 174 400 c 0
 135 400 103 390 74 372 c 1
 50 460 l 1
 77 476 134 497 202 497 c 0
 351 497 375 393 375 294 c 2
 375 112 l 2
 375 73 377 33 383 0 c 1x3d40
247 153 m 2x5d40
 247 238 l 1
 203 237 143 223 143 155 c 0
 143 106 170 88 190 88 c 0
 211 88 235 101 244 130 c 0
 246 137 247 145 247 153 c 2x5d40
148 557 m 1x3cc0
 88 557 l 1
 88 622 111 675 159 675 c 0x3cc0
 184 675 201 665 217 657 c 0
 229 649 241 641 254 641 c 0
 267 641 275 646 275 678 c 1
 333 678 l 1
 333 598 306 564 263 564 c 0x3b20
 244 564 225 573 210 580 c 0
 194 588 185 597 171 597 c 0
 159 597 149 583 148 557 c 1x3cc0
EndSplineSet
EndChar

StartChar: ccedilla
Encoding: 231 231 206
Width: 323
Flags: MW
HStem: -204 60<163.5 180.5 163.5 204> -6 107<239 239> 389 107<227.5 268.5 185.5 270>
VStem: 29 130<199.5 286.5 199.5 315.5> 204 83<-128 -109>
LayerCount: 2
Fore
SplineSet
307 111 m 1
 318 9 l 1
 304 2 274 -5 239 -6 c 1
 219 -44 l 1
 255 -50 287 -77 287 -117 c 0
 287 -181 232 -204 176 -204 c 0
 149 -204 119 -196 101 -186 c 1
 120 -130 l 1
 136 -138 155 -144 172 -144 c 0
 189 -144 204 -137 204 -119 c 0
 204 -99 181 -86 136 -82 c 1
 173 2 l 1
 84 26 29 107 29 240 c 0
 29 391 118 496 253 496 c 0
 284 496 312 489 325 483 c 1
 308 380 l 1
 297 384 281 389 259 389 c 0
 196 389 159 329 159 244 c 0
 159 155 196 101 257 101 c 0
 276 101 293 104 307 111 c 1
EndSplineSet
EndChar

StartChar: eacute
Encoding: 233 233 207
Width: 419
Flags: MW
HStem: -6 100<230 260> 198 92<156 272 156 387 155 272> 402 95<195.5 236.5> 549 140<248 261 179 362>
VStem: 29 126<198 198 198 317> 272 119<290 321.5>
LayerCount: 2
Fore
SplineSet
387 198 m 1
 155 198 l 1
 157 122 201 94 259 94 c 0
 296 94 329 102 352 110 c 1
 370 16 l 1
 336 3 285 -6 235 -6 c 0
 102 -6 29 82 29 235 c 0
 29 399 114 497 225 497 c 0
 330 497 391 414 391 266 c 0
 391 231 390 212 387 198 c 1
156 290 m 1
 272 290 l 1
 272 353 256 402 217 402 c 0
 174 402 157 339 156 290 c 1
248 689 m 1
 362 689 l 1
 261 549 l 1
 179 549 l 1
 248 689 l 1
EndSplineSet
EndChar

StartChar: ecircumflex
Encoding: 234 234 208
Width: 419
Flags: MW
HStem: -6 100<230 260> 198 92<156 272 156 387 155 272> 402 95<195.5 236.5> 549 140<179 183 93 270 266 270 179 355 266 266>
VStem: 29 126<198 198 198 317> 272 119<290 321.5>
LayerCount: 2
Fore
SplineSet
387 198 m 1
 155 198 l 1
 157 122 201 94 259 94 c 0
 296 94 329 102 352 110 c 1
 370 16 l 1
 336 3 285 -6 235 -6 c 0
 102 -6 29 82 29 235 c 0
 29 399 114 497 225 497 c 0
 330 497 391 414 391 266 c 0
 391 231 390 212 387 198 c 1
156 290 m 1
 272 290 l 1
 272 353 256 402 217 402 c 0
 174 402 157 339 156 290 c 1
179 689 m 1
 270 689 l 1
 355 549 l 1
 266 549 l 1
 225 629 l 1
 223 629 l 1
 183 549 l 1
 93 549 l 1
 179 689 l 1
EndSplineSet
EndChar

StartChar: edieresis
Encoding: 235 235 209
Width: 419
Flags: MW
HStem: -6 100<230 260> 198 92<156 272 156 387 155 272> 402 95<195.5 236.5> 560 128<122.5 156 122.5 156.5 300.5 333.5>
VStem: 29 126<198 198 198 317> 79 120<605.5 642.5> 256 120<605.5 642.5> 272 119<290 321.5>
LayerCount: 2
Fore
SplineSet
387 198 m 1xe9
 155 198 l 1
 157 122 201 94 259 94 c 0
 296 94 329 102 352 110 c 1
 370 16 l 1
 336 3 285 -6 235 -6 c 0
 102 -6 29 82 29 235 c 0
 29 399 114 497 225 497 c 0
 330 497 391 414 391 266 c 0
 391 231 390 212 387 198 c 1xe9
156 290 m 1
 272 290 l 1
 272 353 256 402 217 402 c 0
 174 402 157 339 156 290 c 1
139 560 m 0xf6
 106 560 79 587 79 624 c 0
 79 661 106 688 139 688 c 0
 173 688 199 662 199 624 c 0
 199 587 174 560 139 560 c 0xf6
317 560 m 0
 283 560 256 587 256 624 c 0
 256 661 284 688 317 688 c 0
 350 688 376 662 376 624 c 0
 376 587 351 560 317 560 c 0
EndSplineSet
EndChar

StartChar: egrave
Encoding: 232 232 210
Width: 419
Flags: MW
HStem: -6 100<230 260> 198 92<156 272 156 387 155 272> 402 95<195.5 236.5> 549 140<194 208 93 276 194 194>
VStem: 29 126<198 198 198 317> 272 119<290 321.5>
LayerCount: 2
Fore
SplineSet
387 198 m 1
 155 198 l 1
 157 122 201 94 259 94 c 0
 296 94 329 102 352 110 c 1
 370 16 l 1
 336 3 285 -6 235 -6 c 0
 102 -6 29 82 29 235 c 0
 29 399 114 497 225 497 c 0
 330 497 391 414 391 266 c 0
 391 231 390 212 387 198 c 1
156 290 m 1
 272 290 l 1
 272 353 256 402 217 402 c 0
 174 402 157 339 156 290 c 1
93 689 m 1
 208 689 l 1
 276 549 l 1
 194 549 l 1
 93 689 l 1
EndSplineSet
EndChar

StartChar: iacute
Encoding: 237 237 211
Width: 223
Flags: MW
HStem: 0 21G<46 177 46 46> 469 20G<46 177 177 177> 549 140<135 148 66 249>
VStem: 46 131<0 489>
LayerCount: 2
Fore
SplineSet
177 0 m 1
 46 0 l 1
 46 489 l 1
 177 489 l 1
 177 0 l 1
135 689 m 1
 249 689 l 1
 148 549 l 1
 66 549 l 1
 135 689 l 1
EndSplineSet
EndChar

StartChar: icircumflex
Encoding: 238 238 212
Width: 223
Flags: MW
HStem: 0 21G<46 177 46 46> 469 20G<46 177 177 177> 549 140<67 72 -19 158 154 158 67 243 154 154>
VStem: 46 131<0 489>
LayerCount: 2
Fore
SplineSet
177 0 m 1
 46 0 l 1
 46 489 l 1
 177 489 l 1
 177 0 l 1
67 689 m 1
 158 689 l 1
 243 549 l 1
 154 549 l 1
 114 629 l 1
 112 629 l 1
 72 549 l 1
 -19 549 l 1
 67 689 l 1
EndSplineSet
EndChar

StartChar: idieresis
Encoding: 239 239 213
Width: 223
Flags: MW
HStem: 0 21G<46 177 46 46> 469 20G<46 177 177 177> 560 128<6.5 40 6.5 40.5 184.5 217.5>
VStem: -37 120<605.5 642.5> 46 131<0 489> 140 120<605.5 642.5>
LayerCount: 2
Fore
SplineSet
177 0 m 1xe8
 46 0 l 1
 46 489 l 1
 177 489 l 1
 177 0 l 1xe8
23 560 m 0xf4
 -10 560 -37 587 -37 624 c 0
 -37 661 -10 688 23 688 c 0
 57 688 83 662 83 624 c 0
 83 587 58 560 23 560 c 0xf4
201 560 m 0
 167 560 140 587 140 624 c 0
 140 661 168 688 201 688 c 0
 234 688 260 662 260 624 c 0
 260 587 235 560 201 560 c 0
EndSplineSet
EndChar

StartChar: igrave
Encoding: 236 236 214
Width: 223
Flags: MW
HStem: 0 21G<46 177 46 46> 469 20G<46 177 177 177> 549 140<77 91 -24 159 77 77>
VStem: 46 131<0 489>
LayerCount: 2
Fore
SplineSet
177 0 m 1
 46 0 l 1
 46 489 l 1
 177 489 l 1
 177 0 l 1
-24 689 m 1
 91 689 l 1
 159 549 l 1
 77 549 l 1
 -24 689 l 1
EndSplineSet
EndChar

StartChar: ntilde
Encoding: 241 241 215
Width: 458
Flags: MW
HStem: 0 21G<46 46 46 177 281 281 281 412> 387 110<222 328.5> 469 20G<42 155 155 155> 557 118<157.5 171 111 194> 564 114<298 307>
VStem: 46 131<0 298 0 342 0 369> 111 60<557 570 557 589.5> 281 131<0 306 306 314 0 327> 298 58<638 678>
LayerCount: 2
Fore
SplineSet
46 0 m 1xb5
 46 342 l 2
 46 396 43 443 42 489 c 1
 155 489 l 1xb5
 161 433 l 1
 163 433 l 1
 189 472 231 497 282 497 c 0
 375 497 412 423 412 314 c 2
 412 0 l 1
 281 0 l 1
 281 306 l 2
 281 348 271 387 233 387 c 0
 211 387 193 372 184 343 c 0
 180 333 177 317 177 298 c 2xd5
 177 0 l 1
 46 0 l 1xb5
171 557 m 1xb3
 111 557 l 1
 111 622 133 675 182 675 c 0xb3
 206 675 223 665 239 657 c 0
 252 649 263 641 276 641 c 0
 289 641 297 646 298 678 c 1
 356 678 l 1
 356 598 328 564 286 564 c 0xac80
 266 564 247 573 233 580 c 0
 216 588 208 597 194 597 c 0
 181 597 171 583 171 557 c 1xb3
EndSplineSet
EndChar

StartChar: oacute
Encoding: 243 243 216
Width: 431
Flags: MW
HStem: -8 100<195.5 240 195.5 253> 398 99<193 239> 549 140<243 256 174 357>
VStem: 29 130<204 279.5 204 331> 272 131<210 279.5>
LayerCount: 2
Fore
SplineSet
218 497 m 0
 333 497 403 400 403 246 c 0
 403 42 290 -8 216 -8 c 0
 99 -8 29 84 29 243 c 0
 29 419 121 497 218 497 c 0
217 398 m 0
 169 398 159 313 159 246 c 0
 159 162 172 92 219 92 c 0
 261 92 272 174 272 246 c 0
 272 313 261 398 217 398 c 0
243 689 m 1
 357 689 l 1
 256 549 l 1
 174 549 l 1
 243 689 l 1
EndSplineSet
EndChar

StartChar: ocircumflex
Encoding: 244 244 217
Width: 431
Flags: MW
HStem: -8 100<195.5 240 195.5 253> 398 99<193 239> 549 140<171 176 85 262 258 262 171 347 258 258>
VStem: 29 130<204 279.5 204 331> 272 131<210 279.5>
LayerCount: 2
Fore
SplineSet
218 497 m 0
 333 497 403 400 403 246 c 0
 403 42 290 -8 216 -8 c 0
 99 -8 29 84 29 243 c 0
 29 419 121 497 218 497 c 0
217 398 m 0
 169 398 159 313 159 246 c 0
 159 162 172 92 219 92 c 0
 261 92 272 174 272 246 c 0
 272 313 261 398 217 398 c 0
171 689 m 1
 262 689 l 1
 347 549 l 1
 258 549 l 1
 217 629 l 1
 215 629 l 1
 176 549 l 1
 85 549 l 1
 171 689 l 1
EndSplineSet
EndChar

StartChar: odieresis
Encoding: 246 246 218
Width: 431
Flags: MW
HStem: -8 100<195.5 240 195.5 253> 398 99<193 239> 560 128<110.5 144 110.5 144.5 288.5 321.5>
VStem: 29 130<204 279.5 204 331> 67 120<605.5 642.5> 244 120<605.5 642.5> 272 131<210 279.5>
LayerCount: 2
Fore
SplineSet
218 497 m 0xf2
 333 497 403 400 403 246 c 0
 403 42 290 -8 216 -8 c 0
 99 -8 29 84 29 243 c 0
 29 419 121 497 218 497 c 0xf2
217 398 m 0
 169 398 159 313 159 246 c 0
 159 162 172 92 219 92 c 0
 261 92 272 174 272 246 c 0
 272 313 261 398 217 398 c 0
127 560 m 0xec
 94 560 67 587 67 624 c 0
 67 661 94 688 127 688 c 0
 161 688 187 662 187 624 c 0
 187 587 162 560 127 560 c 0xec
305 560 m 0
 271 560 244 587 244 624 c 0
 244 661 272 688 305 688 c 0
 338 688 364 662 364 624 c 0
 364 587 339 560 305 560 c 0
EndSplineSet
EndChar

StartChar: ograve
Encoding: 242 242 219
Width: 431
Flags: MW
HStem: -8 100<195.5 240 195.5 253> 398 99<193 239> 549 140<185 199 84 267 185 185>
VStem: 29 130<204 279.5 204 331> 272 131<210 279.5>
LayerCount: 2
Fore
SplineSet
218 497 m 0
 333 497 403 400 403 246 c 0
 403 42 290 -8 216 -8 c 0
 99 -8 29 84 29 243 c 0
 29 419 121 497 218 497 c 0
217 398 m 0
 169 398 159 313 159 246 c 0
 159 162 172 92 219 92 c 0
 261 92 272 174 272 246 c 0
 272 313 261 398 217 398 c 0
84 689 m 1
 199 689 l 1
 267 549 l 1
 185 549 l 1
 84 689 l 1
EndSplineSet
EndChar

StartChar: otilde
Encoding: 245 245 220
Width: 431
Flags: MW
HStem: -8 100<195.5 240 195.5 253> 398 99<193 239> 557 118<140.5 154 94 177> 564 114<281 290>
VStem: 29 130<204 279.5 204 331> 94 60<557 570 557 589.5> 272 131<210 279.5> 281 58<638 678>
LayerCount: 2
Fore
SplineSet
218 497 m 0xea
 333 497 403 400 403 246 c 0
 403 42 290 -8 216 -8 c 0
 99 -8 29 84 29 243 c 0
 29 419 121 497 218 497 c 0xea
217 398 m 0
 169 398 159 313 159 246 c 0
 159 162 172 92 219 92 c 0
 261 92 272 174 272 246 c 0
 272 313 261 398 217 398 c 0
154 557 m 1xe6
 94 557 l 1
 94 622 116 675 165 675 c 0xe6
 189 675 206 665 222 657 c 0
 235 649 246 641 259 641 c 0
 272 641 280 646 281 678 c 1
 339 678 l 1
 339 598 311 564 269 564 c 0xd9
 249 564 230 573 216 580 c 0
 199 588 191 597 177 597 c 0
 164 597 154 583 154 557 c 1xe6
EndSplineSet
EndChar

StartChar: scaron
Encoding: 353 353 221
Width: 324
Flags: MW
HStem: -6 98<113.5 147 113.5 180.5> 399 98<179.5 208.5 139 209> 477 20G<139 208.5> 549 140<116 120 203 208 116 116>
VStem: 27 120<346 368 346 387> 183 120<121.5 148.5>
LayerCount: 2
Fore
SplineSet
18 22 m 1xdc
 42 118 l 1
 61 106 97 92 130 92 c 0
 164 92 183 107 183 136 c 0
 183 161 169 177 126 202 c 0
 46 247 27 298 27 343 c 0
 27 431 90 497 188 497 c 0xdc
 229 497 261 487 287 475 c 1xbc
 264 379 l 1
 245 390 222 399 196 399 c 0
 163 399 147 379 147 357 c 0
 147 335 158 323 204 296 c 0
 276 255 303 204 303 148 c 0
 303 48 231 -6 130 -6 c 0
 89 -6 41 5 18 22 c 1xdc
208 549 m 1
 116 549 l 1
 31 689 l 1
 120 689 l 1
 161 609 l 1
 163 609 l 1
 203 689 l 1
 294 689 l 1
 208 549 l 1
EndSplineSet
EndChar

StartChar: uacute
Encoding: 250 250 222
Width: 452
Flags: MW
HStem: -8 110<126.5 234> 0 102<204.5 408 204.5 295> 469 20G<42 174 174 174 273 404 404 404> 549 140<252 265 183 366>
VStem: 42 132<193 207 207 489> 273 131<177 489>
LayerCount: 2
Fore
SplineSet
404 489 m 1xbc
 404 149 l 2
 404 97 406 46 408 0 c 1
 295 0 l 1x7c
 288 52 l 1
 286 52 l 1
 263 19 223 -8 173 -8 c 0
 80 -8 42 61 42 193 c 2
 42 489 l 1
 174 489 l 1
 174 207 l 2
 174 143 186 102 223 102 c 0
 245 102 259 119 265 135 c 0
 270 145 273 160 273 177 c 2
 273 489 l 1
 404 489 l 1xbc
252 689 m 1
 366 689 l 1
 265 549 l 1
 183 549 l 1
 252 689 l 1
EndSplineSet
EndChar

StartChar: ucircumflex
Encoding: 251 251 223
Width: 452
Flags: MW
HStem: -8 110<126.5 234> 0 102<204.5 408 204.5 295> 469 20G<42 174 174 174 273 404 404 404> 549 140<181 186 95 272 268 272 181 358 268 268>
VStem: 42 132<193 207 207 489> 273 131<177 489>
LayerCount: 2
Fore
SplineSet
404 489 m 1xbc
 404 149 l 2
 404 97 406 46 408 0 c 1
 295 0 l 1x7c
 288 52 l 1
 286 52 l 1
 263 19 223 -8 173 -8 c 0
 80 -8 42 61 42 193 c 2
 42 489 l 1
 174 489 l 1
 174 207 l 2
 174 143 186 102 223 102 c 0
 245 102 259 119 265 135 c 0
 270 145 273 160 273 177 c 2
 273 489 l 1
 404 489 l 1xbc
181 689 m 1
 272 689 l 1
 358 549 l 1
 268 549 l 1
 228 629 l 1
 226 629 l 1
 186 549 l 1
 95 549 l 1
 181 689 l 1
EndSplineSet
EndChar

StartChar: udieresis
Encoding: 252 252 224
Width: 452
Flags: MW
HStem: -8 110<126.5 234> 0 102<204.5 408 204.5 295> 469 20G<42 174 174 174 273 404 404 404> 560 128<123.5 157 123.5 157.5 301.5 334.5>
VStem: 42 132<193 207 207 489> 80 120<605.5 642.5> 257 120<605.5 642.5> 273 131<177 489>
LayerCount: 2
Fore
SplineSet
404 489 m 1xb9
 404 149 l 2
 404 97 406 46 408 0 c 1
 295 0 l 1x75
 288 52 l 1
 286 52 l 1
 263 19 223 -8 173 -8 c 0
 80 -8 42 61 42 193 c 2
 42 489 l 1
 174 489 l 1
 174 207 l 2
 174 143 186 102 223 102 c 0
 245 102 259 119 265 135 c 0
 270 145 273 160 273 177 c 2
 273 489 l 1
 404 489 l 1xb9
140 560 m 0
 107 560 80 587 80 624 c 0
 80 661 107 688 140 688 c 0
 174 688 200 662 200 624 c 0
 200 587 175 560 140 560 c 0
318 560 m 0xba
 284 560 257 587 257 624 c 0
 257 661 285 688 318 688 c 0
 351 688 377 662 377 624 c 0
 377 587 352 560 318 560 c 0xba
EndSplineSet
EndChar

StartChar: ugrave
Encoding: 249 249 225
Width: 452
Flags: MW
HStem: -8 110<126.5 234> 0 102<204.5 408 204.5 295> 469 20G<42 174 174 174 273 404 404 404> 549 140<198 211 97 280 198 198>
VStem: 42 132<193 207 207 489> 273 131<177 489>
LayerCount: 2
Fore
SplineSet
404 489 m 1xbc
 404 149 l 2
 404 97 406 46 408 0 c 1
 295 0 l 1x7c
 288 52 l 1
 286 52 l 1
 263 19 223 -8 173 -8 c 0
 80 -8 42 61 42 193 c 2
 42 489 l 1
 174 489 l 1
 174 207 l 2
 174 143 186 102 223 102 c 0
 245 102 259 119 265 135 c 0
 270 145 273 160 273 177 c 2
 273 489 l 1
 404 489 l 1xbc
97 689 m 1
 211 689 l 1
 280 549 l 1
 198 549 l 1
 97 689 l 1
EndSplineSet
EndChar

StartChar: yacute
Encoding: 253 253 226
Width: 391
Flags: MW
HStem: 469 20G<5 146 146 146 262 390 390 390> 549 140<220 233 151 334>
VStem: 5 385<489 489>
LayerCount: 2
Fore
SplineSet
5 489 m 1
 146 489 l 1
 194 235 l 2
 199 206 203 179 207 153 c 1
 209 153 l 1
 213 178 217 206 221 233 c 2
 262 489 l 1
 390 489 l 1
 290 112 l 2
 266 20 234 -75 181 -138 c 0
 140 -186 90 -209 70 -215 c 1
 30 -102 l 1
 53 -94 75 -79 95 -61 c 0
 113 -44 127 -24 136 -3 c 0
 140 6 143 11 143 18 c 0
 143 24 141 30 139 36 c 2
 5 489 l 1
220 689 m 1
 334 689 l 1
 233 549 l 1
 151 549 l 1
 220 689 l 1
EndSplineSet
EndChar

StartChar: ydieresis
Encoding: 255 255 227
Width: 391
Flags: MW
HStem: 469 20G<5 146 146 146 262 390 390 390> 560 128<94 127 94 127.5 271.5 305>
VStem: 50 120<605.5 642.5> 228 119<605.5 642.5>
LayerCount: 2
Fore
SplineSet
5 489 m 1
 146 489 l 1
 194 235 l 2
 199 206 203 179 207 153 c 1
 209 153 l 1
 213 178 217 206 221 233 c 2
 262 489 l 1
 390 489 l 1
 290 112 l 2
 266 20 234 -75 181 -138 c 0
 140 -186 90 -209 70 -215 c 1
 30 -102 l 1
 53 -94 75 -79 95 -61 c 0
 113 -44 127 -24 136 -3 c 0
 140 6 143 11 143 18 c 0
 143 24 141 30 139 36 c 2
 5 489 l 1
110 560 m 0
 77 560 50 587 50 624 c 0
 50 661 78 688 110 688 c 0
 144 688 170 662 170 624 c 0
 170 587 145 560 110 560 c 0
288 560 m 0
 254 560 228 587 228 624 c 0
 228 661 255 688 288 688 c 0
 322 688 347 662 347 624 c 0
 347 587 322 560 288 560 c 0
EndSplineSet
EndChar

StartChar: zcaron
Encoding: 382 382 228
Width: 351
Flags: MW
HStem: 0 107<163 331 163 331> 382 107<33 184 33 327> 549 140<140 144 227 232 140 140>
VStem: 18 313<0 82 82 82> 33 294<400 489 400 489 400 489>
LayerCount: 2
Fore
SplineSet
18 0 m 1xf0
 18 82 l 1xf0
 138 300 l 2
 154 328 175 360 184 379 c 1
 184 382 l 1
 33 382 l 1
 33 489 l 1
 327 489 l 1
 327 400 l 1xe8
 210 190 l 2
 193 161 174 130 163 110 c 1
 163 107 l 1
 331 107 l 1
 331 0 l 1
 18 0 l 1xf0
232 549 m 1
 140 549 l 1
 55 689 l 1
 144 689 l 1
 185 609 l 1
 187 609 l 1
 227 689 l 1
 318 689 l 1
 232 549 l 1
EndSplineSet
EndChar

StartChar: Dcroat
Encoding: 272 272 229
Width: 493
Flags: MW
HStem: -6 107<211.5 216> 303 91<0 61 0 61 191 265> 572 105<212 236.5 168 257>
VStem: 61 130<103 303 103 303 103 303 394 569> 333 135<276.5 410.5 276.5 419>
LayerCount: 2
Fore
SplineSet
0 303 m 1
 0 394 l 1
 61 394 l 1
 61 664 l 1
 93 672 142 677 194 677 c 0
 279 677 338 657 381 617 c 0
 439 565 468 476 468 345 c 0
 468 208 433 112 375 59 c 0
 329 16 263 -6 169 -6 c 0
 127 -6 86 -2 61 2 c 1
 61 303 l 1
 0 303 l 1
265 394 m 1
 265 303 l 1
 191 303 l 1
 191 103 l 1
 198 101 208 101 215 101 c 0
 278 101 333 163 333 350 c 0
 333 488 297 572 217 572 c 0
 207 572 199 571 191 569 c 1
 191 394 l 1
 265 394 l 1
EndSplineSet
Position2: "'cpsp' +BBgEPQRCBDUEQAQyBDAEOwAA +BD8EQAQ+BD8EOARBBD0ESwRF lookup 0 subtable" dx=10 dy=0 dh=20 dv=0
EndChar

StartChar: Eng
Encoding: 330 330 230
Width: 516
Flags: MW
HStem: 0 21G<58 173 58 58> 654 20G<58 178 178 178 343 458 458 458>
VStem: 58 115<0 152> 343 115<525 674>
LayerCount: 2
Fore
SplineSet
173 0 m 1
 58 0 l 1
 58 674 l 1
 178 674 l 1
 282 410 l 2
 302 358 335 271 354 213 c 1
 356 213 l 1
 352 284 343 401 343 525 c 2
 343 674 l 1
 458 674 l 1
 458 31 l 2
 458 -97 409 -181 291 -202 c 1
 259 -104 l 1
 312 -88 339 -57 340 -15 c 1
 235 256 l 2
 213 313 182 398 167 459 c 1
 165 459 l 1
 168 391 173 287 173 152 c 2
 173 0 l 1
EndSplineSet
Position2: "'cpsp' +BBgEPQRCBDUEQAQyBDAEOwAA +BD8EQAQ+BD8EOARBBD0ESwRF lookup 0 subtable" dx=10 dy=0 dh=20 dv=0
EndChar

StartChar: Hbar
Encoding: 294 294 231
Width: 515
Flags: MW
HStem: 0 21G<58 189 58 58 326 457 326 326> 265 122<189 326 189 326> 470 89<14 58 14 58 189 326 457 501> 470 204<14 189 14 189 58 189 58 326>
VStem: 58 131<0 265 0 387 387 470 559 674> 326 131<0 265 265 265 387 470 0 470 559 674>
LayerCount: 2
Fore
SplineSet
501 470 m 1xdc
 457 470 l 1
 457 0 l 1
 326 0 l 1
 326 265 l 1
 189 265 l 1
 189 0 l 1
 58 0 l 1
 58 470 l 1
 14 470 l 1xdc
 14 559 l 1
 58 559 l 1xec
 58 674 l 1
 189 674 l 1xdc
 189 559 l 1
 326 559 l 1xec
 326 674 l 1
 457 674 l 1xdc
 457 559 l 1
 501 559 l 1xec
 501 470 l 1xdc
326 387 m 1
 326 470 l 1
 189 470 l 1
 189 387 l 1
 326 387 l 1
EndSplineSet
Position2: "'cpsp' +BBgEPQRCBDUEQAQyBDAEOwAA +BD8EQAQ+BD8EOARBBD0ESwRF lookup 0 subtable" dx=10 dy=0 dh=20 dv=0
EndChar

StartChar: Tbar
Encoding: 358 358 232
Width: 393
Flags: MW
HStem: 0 21G<131 262 131 131> 301 89<50 131 50 131 262 342> 553 121<12 131 12 382 262 382 262 262>
VStem: 131 131<0 301 0 301 390 553>
LayerCount: 2
Fore
SplineSet
382 553 m 1
 262 553 l 1
 262 390 l 1
 342 390 l 1
 342 301 l 1
 262 301 l 1
 262 0 l 1
 131 0 l 1
 131 301 l 1
 50 301 l 1
 50 390 l 1
 131 390 l 1
 131 553 l 1
 12 553 l 1
 12 674 l 1
 382 674 l 1
 382 553 l 1
EndSplineSet
Position2: "'cpsp' +BBgEPQRCBDUEQAQyBDAEOwAA +BD8EQAQ+BD8EOARBBD0ESwRF lookup 0 subtable" dx=10 dy=0 dh=20 dv=0
EndChar

StartChar: uni021C
Encoding: 540 540 233
Width: 388
Flags: MW
HStem: 575 107<132.5 150>
VStem: 201 125<488.5 530> 231 134<122 197.5>
LayerCount: 2
Fore
SplineSet
36 -123 m 1xa0
 18 -18 l 1
 110 -3 231 67 231 177 c 0
 231 218 206 278 137 278 c 0xa0
 118 278 89 273 65 265 c 1
 47 359 l 1
 119 372 201 434 201 510 c 0
 201 550 170 575 130 575 c 0
 100 575 65 564 44 555 c 1
 22 649 l 1
 46 664 105 682 160 682 c 0
 256 682 326 613 326 531 c 0xc0
 326 446 277 389 224 362 c 1
 224 360 l 1
 296 344 365 284 365 183 c 0
 365 -2 167 -115 36 -123 c 1xa0
EndSplineSet
Position2: "'cpsp' +BBgEPQRCBDUEQAQyBDAEOwAA +BD8EQAQ+BD8EOARBBD0ESwRF lookup 0 subtable" dx=10 dy=0 dh=20 dv=0
EndChar

StartChar: dcroat
Encoding: 273 273 234
Width: 447
Flags: MW
HStem: -8 107<202.5 203.5> 0 21G<292 405 292 292> 387 110<199 207.5 144.5 235> 533 81<142 270 142 270 401 461> 533 159<142 401 142 401 270 461 270 401>
VStem: 29 130<194.5 280.5 194.5 329> 270 131<172 301 301 305.5 448 533 614 692>
LayerCount: 2
Fore
SplineSet
461 533 m 1x6e
 401 533 l 1
 401 145 l 2
 401 98 403 45 405 0 c 1
 292 0 l 1x6e
 285 55 l 1
 283 55 l 1
 265 21 226 -8 181 -8 c 0
 77 -8 29 107 29 244 c 0
 29 414 103 497 186 497 c 0
 229 497 256 476 268 448 c 1
 270 448 l 1
 270 533 l 1
 142 533 l 1xae
 142 614 l 1
 270 614 l 1x76
 270 692 l 1
 401 692 l 1x6e
 401 614 l 1
 461 614 l 1x76
 461 533 l 1x6e
270 172 m 2xae
 270 301 l 2
 270 310 270 320 269 330 c 0
 264 360 248 387 222 387 c 0
 176 387 159 320 159 241 c 0
 159 148 184 99 221 99 c 0
 237 99 256 108 266 142 c 0
 269 149 270 160 270 172 c 2xae
EndSplineSet
EndChar

StartChar: eng
Encoding: 331 331 235
Width: 458
Flags: MW
HStem: 0 21G<46 46 46 177> 387 110<222 328.5> 469 20G<42 155 155 155>
VStem: 46 131<0 298 0 342 0 369> 281 131<18 36 36 306 306 314>
LayerCount: 2
Fore
SplineSet
46 0 m 1xb8
 46 342 l 2
 46 396 43 443 42 489 c 1
 155 489 l 1xb8
 161 433 l 1
 163 433 l 1
 189 472 231 497 282 497 c 0
 375 497 412 423 412 314 c 2
 412 36 l 2
 412 -117 334 -175 242 -189 c 1
 213 -90 l 1
 255 -79 281 -58 281 18 c 2
 281 306 l 2
 281 348 271 387 233 387 c 0
 211 387 193 372 184 343 c 0
 180 333 177 317 177 298 c 2xd8
 177 0 l 1
 46 0 l 1xb8
EndSplineSet
EndChar

StartChar: hbar
Encoding: 295 295 236
Width: 458
Flags: MW
HStem: 0 21G<46 177 46 46 281 412 281 281> 387 110<222 332> 477 20G<275 332> 533 81<-15 46 -15 46 177 309> 533 159<-15 177 -15 177 46 177 46 309>
VStem: 46 131<0 304 438 533 614 692> 281 131<0 297>
LayerCount: 2
Fore
SplineSet
412 0 m 1xae
 281 0 l 1
 281 297 l 2
 281 345 272 387 233 387 c 0
 211 387 192 374 182 341 c 0
 180 333 177 315 177 304 c 2
 177 0 l 1
 46 0 l 1
 46 533 l 1
 -15 533 l 1xce
 -15 614 l 1
 46 614 l 1xb6
 46 692 l 1
 177 692 l 1xae
 177 614 l 1
 309 614 l 1xb6
 309 533 l 1
 177 533 l 1
 177 438 l 1
 179 438 l 1
 190 455 205 469 221 480 c 0
 240 491 263 497 287 497 c 0
 377 497 412 421 412 297 c 2
 412 0 l 1xae
EndSplineSet
EndChar

StartChar: kgreenlandic
Encoding: 312 312 237
Width: 413
Flags: MW
HStem: 0 21G<45 176 45 45 268 414 268 268> 469 20G<45 176 176 176 266 407 407 407>
VStem: 45 131<0 159 275 489>
LayerCount: 2
Fore
SplineSet
176 489 m 1
 176 275 l 1
 178 275 l 1
 187 303 194 323 203 343 c 2
 266 489 l 1
 407 489 l 1
 289 284 l 1
 414 0 l 1
 268 0 l 1
 198 201 l 1
 176 159 l 1
 176 0 l 1
 45 0 l 1
 45 489 l 1
 176 489 l 1
EndSplineSet
EndChar

StartChar: napostrophe
Encoding: 329 329 238
Width: 458
Flags: MW
HStem: 0 21G<46 46 46 177 281 281 281 412> 387 110<222 328.5> 469 20G<42 155 155 155> 683 20G<88 88>
VStem: 26 95<615.5 645> 46 131<0 298 0 342 0 369> 281 131<0 306 306 314 0 327>
LayerCount: 2
Fore
SplineSet
53 520 m 1xba
 -4 553 l 1
 9 569 26 599 26 632 c 0
 26 658 11 681 -2 691 c 1
 88 703 l 1
 105 693 121 669 121 636 c 0
 121 575 71 535 53 520 c 1xba
46 0 m 1xd6
 46 342 l 2
 46 396 43 443 42 489 c 1
 155 489 l 1xb6
 161 433 l 1
 163 433 l 1
 189 472 231 497 282 497 c 0
 375 497 412 423 412 314 c 2
 412 0 l 1
 281 0 l 1
 281 306 l 2
 281 348 271 387 233 387 c 0
 211 387 193 372 184 343 c 0
 180 333 177 317 177 298 c 2
 177 0 l 1
 46 0 l 1xd6
EndSplineSet
EndChar

StartChar: tbar
Encoding: 359 359 239
Width: 311
Flags: MW
HStem: -6 108<186 256.5> 244 82<13 69 13 69 200 275> 396 93<11 69 11 69 200 296>
VStem: 69 131<165 173 173 244 144.5 244 326 396 489 590 590 590>
LayerCount: 2
Fore
SplineSet
296 396 m 1
 200 396 l 1
 200 326 l 1
 275 326 l 1
 275 244 l 1
 200 244 l 1
 200 173 l 2
 200 116 224 102 250 102 c 0
 263 102 273 103 284 105 c 1
 285 3 l 1
 267 -2 240 -6 205 -6 c 0
 167 -6 134 3 111 25 c 0
 84 51 69 88 69 165 c 2
 69 244 l 1
 13 244 l 1
 13 326 l 1
 69 326 l 1
 69 396 l 1
 11 396 l 1
 11 489 l 1
 69 489 l 1
 69 590 l 1
 200 621 l 1
 200 489 l 1
 296 489 l 1
 296 396 l 1
EndSplineSet
EndChar

StartChar: uni021D
Encoding: 541 541 240
Width: 361
Flags: MW
HStem: -200 106<17 27> 391 106<119 137>
VStem: 185 120<322.5 346> 212 130<1 70.5>
LayerCount: 2
Fore
SplineSet
27 -200 m 1xd0
 17 -94 l 1
 87 -92 212 -53 212 55 c 0
 212 86 196 131 126 131 c 0xd0
 107 131 84 127 61 119 c 1
 42 213 l 1
 112 231 185 259 185 325 c 0
 185 367 156 391 118 391 c 0
 88 391 65 381 43 371 c 1
 19 465 l 1
 44 480 92 497 146 497 c 0
 243 497 305 439 305 357 c 0xe0
 305 288 268 240 214 215 c 1
 214 212 l 1
 286 197 342 151 342 62 c 0
 342 -105 163 -197 27 -200 c 1xd0
EndSplineSet
EndChar

StartChar: IJ
Encoding: 306 306 241
Width: 544
Flags: MW
HStem: -8 115<291.5 312 284.5 353> 0 107<58 312> 654 20G<58 189 189 189 363 494 494 494>
VStem: 58 131<0 674 0 674> 363 131<209 215 215 674>
LayerCount: 2
Fore
SplineSet
58 674 m 1xb8
 189 674 l 1
 189 0 l 1
 58 0 l 1x78
 58 674 l 1xb8
363 209 m 2
 363 674 l 1
 494 674 l 1
 494 215 l 2
 494 21 401 -8 305 -8 c 0
 278 -8 254 -4 239 2 c 1
 250 112 l 1
 262 108 276 107 293 107 c 0xb8
 331 107 363 122 363 209 c 2
EndSplineSet
Position2: "'cpsp' +BBgEPQRCBDUEQAQyBDAEOwAA +BD8EQAQ+BD8EOARBBD0ESwRF lookup 0 subtable" dx=10 dy=0 dh=20 dv=0
EndChar

StartChar: f_f
Encoding: 64256 64256 242
Width: 531
Flags: MW
HStem: 0 21G<69 200 69 69 314 445 314 314> 396 93<3 69 3 69 200 314 445 530> 589 103<229 252 213.5 252.5> 593 107<483.5 498.5 458.5 513>
VStem: 69 131<0 396 0 396 489 506 506 508 0 532> 314 131<0 396 489 509 509 512>
LayerCount: 2
Fore
SplineSet
445 0 m 1xdc
 314 0 l 1
 314 396 l 1
 200 396 l 1
 200 0 l 1
 69 0 l 1
 69 396 l 1
 3 396 l 1
 3 489 l 1
 69 489 l 1
 69 506 l 2
 69 558 82 610 116 646 c 0
 143 674 184 692 243 692 c 0
 261 692 286 688 300 683 c 1
 278 583 l 1
 269 586 258 589 247 589 c 0
 211 589 200 555 200 508 c 2xec
 200 489 l 1
 314 489 l 1
 314 509 l 2
 314 564 325 615 365 655 c 0
 393 685 435 700 482 700 c 0
 515 700 542 695 560 689 c 1
 546 587 l 1
 535 591 521 593 505 593 c 0
 462 593 445 555 445 512 c 2
 445 489 l 1
 530 489 l 1
 530 396 l 1
 445 396 l 1
 445 0 l 1xdc
EndSplineSet
Ligature2: "'liga' Standard Ligatures lookup 18 subtable" f f
EndChar

StartChar: f_f_i
Encoding: 64259 64259 243
Width: 745
Flags: MW
HStem: 0 21G<69 200 69 69 325 456 325 325 569 700 569 569> 396 93<3 69 3 69 200 325 456 569> 589 103<247.5 262.5> 593 107<512 565.5 453.5 567.5> 672 20G<227 263.5> 680 20
VStem: 69 131<0 396 0 396 489 502 502 506 0 536> 325 131<0 396 0 396 489 507 0 515 0 546.5> 569 131<0 396 396 396>
LayerCount: 2
Fore
SplineSet
658 680 m 1xc780
 640 577 l 1
 617 585 587 593 548 593 c 0
 476 593 456 553 456 507 c 2xd380
 456 489 l 1
 700 489 l 1
 700 0 l 1
 569 0 l 1
 569 396 l 1
 456 396 l 1
 456 0 l 1
 325 0 l 1
 325 396 l 1
 200 396 l 1
 200 0 l 1
 69 0 l 1
 69 396 l 1
 3 396 l 1
 3 489 l 1
 69 489 l 1
 69 502 l 2
 69 570 92 626 140 660 c 0
 169 681 206 692 248 692 c 0xcb80
 279 692 306 685 322 679 c 1xc780
 289 582 l 1
 280 586 270 589 255 589 c 0
 240 589 226 582 218 572 c 0
 203 556 200 530 200 506 c 2xe380
 200 489 l 1
 325 489 l 1
 325 515 l 2
 325 578 365 700 542 700 c 0xd380
 589 700 632 692 658 680 c 1xc780
EndSplineSet
Ligature2: "'liga' Standard Ligatures lookup 18 subtable" f f i
EndChar

StartChar: f_f_j
Encoding: 57347 57347 244
Width: 745
Flags: MW
HStem: -200 21G<492 515.5> 0 21G<69 200 69 69 325 456 325 325> 396 93<3 69 3 69 200 325 456 569> 589 103<247.5 262.5> 593 107<512 565.5 453.5 567.5> 672 20G<227 263.5> 680 20
VStem: 69 131<0 396 0 396 489 502 502 506 0 536> 325 131<0 396 0 396 489 507 0 515 0 546.5> 569 131<60 396 396 396>
LayerCount: 2
Fore
SplineSet
658 680 m 1xe3c0
 640 577 l 1
 617 585 587 593 548 593 c 0
 476 593 456 553 456 507 c 2xe9c0
 456 489 l 1
 700 489 l 1
 700 35 l 2
 700 -74 677 -125 635 -158 c 0
 599 -187 539 -200 492 -200 c 1
 482 -96 l 1
 505 -93 530 -88 546 -70 c 0
 565 -50 569 -15 569 60 c 2
 569 396 l 1
 456 396 l 1
 456 0 l 1
 325 0 l 1
 325 396 l 1
 200 396 l 1
 200 0 l 1
 69 0 l 1
 69 396 l 1
 3 396 l 1
 3 489 l 1
 69 489 l 1
 69 502 l 2
 69 570 92 626 140 660 c 0
 169 681 206 692 248 692 c 0xe5c0
 279 692 306 685 322 679 c 1xe3c0
 289 582 l 1
 280 586 270 589 255 589 c 0
 240 589 226 582 218 572 c 0
 203 556 200 530 200 506 c 2xf1c0
 200 489 l 1
 325 489 l 1
 325 515 l 2
 325 578 365 700 542 700 c 0xe9c0
 589 700 632 692 658 680 c 1xe3c0
EndSplineSet
Ligature2: "'liga' Standard Ligatures lookup 18 subtable" f f j
EndChar

StartChar: f_f_l
Encoding: 64260 64260 245
Width: 745
Flags: MW
HStem: 0 21G<69 200 69 69 325 456 325 325 569 700 569 569> 396 93<3 69 3 69 200 325 456 528> 589 103<247.5 262.5> 597 103<504.5 535.5> 672 20G<227 263.5> 680 20G<504.5 574.5>
VStem: 69 131<0 396 0 396 489 502 502 506 0 536> 325 131<0 396 0 396 489 508 508 514 0 526> 569 131<0 591 591 591>
LayerCount: 2
Fore
SplineSet
322 679 m 1xc780
 289 582 l 1
 280 586 270 589 255 589 c 0
 240 589 226 582 218 572 c 0
 203 556 200 530 200 506 c 2xe380
 200 489 l 1
 325 489 l 1
 325 508 l 2
 325 544 341 610 385 649 c 0
 418 678 465 700 544 700 c 0
 605 700 665 687 700 674 c 1
 700 0 l 1
 569 0 l 1
 569 591 l 1
 558 595 545 597 526 597 c 0
 475 597 456 557 456 514 c 2xd380
 456 489 l 1
 528 489 l 1
 528 396 l 1
 456 396 l 1
 456 0 l 1
 325 0 l 1
 325 396 l 1
 200 396 l 1
 200 0 l 1
 69 0 l 1
 69 396 l 1
 3 396 l 1
 3 489 l 1
 69 489 l 1
 69 502 l 2
 69 570 92 626 140 660 c 0
 169 681 206 692 248 692 c 0xcb80
 279 692 306 685 322 679 c 1xc780
EndSplineSet
Ligature2: "'liga' Standard Ligatures lookup 18 subtable" f f l
EndChar

StartChar: f_i
Encoding: 65537 -1 246
Width: 489
Flags: MW
HStem: 0 21G<69 200 69 69 312 312 312 444> 396 93<3 69 3 69 200 312> 593 107<255.5 309.5 197 311> 680 20
VStem: 69 131<0 396 489 507> 312 132<0 396 396 396>
LayerCount: 2
Fore
SplineSet
200 0 m 1xec
 69 0 l 1
 69 396 l 1
 3 396 l 1
 3 489 l 1
 69 489 l 1
 69 515 l 2
 69 578 108 700 286 700 c 0xec
 333 700 375 692 402 680 c 1xdc
 383 577 l 1
 361 585 331 593 291 593 c 0
 220 593 200 553 200 507 c 2
 200 489 l 1
 444 489 l 1
 444 0 l 1
 312 0 l 1
 312 396 l 1
 200 396 l 1
 200 0 l 1xec
EndSplineSet
Ligature2: "'liga' Standard Ligatures lookup 18 subtable" f i
EndChar

StartChar: f_j
Encoding: 57348 57348 247
Width: 489
Flags: MW
HStem: -200 21G<236 259.5> 0 21G<69 200 69 69> 396 93<3 69 3 69 200 312> 593 107<255.5 309.5 197 311> 680 20
VStem: 69 131<0 396 489 507> 312 132<60 396 396 396>
LayerCount: 2
Fore
SplineSet
200 0 m 1xf6
 69 0 l 1
 69 396 l 1
 3 396 l 1
 3 489 l 1
 69 489 l 1
 69 515 l 2
 69 578 108 700 286 700 c 0xf6
 333 700 375 692 402 680 c 1xee
 383 577 l 1
 361 585 331 593 291 593 c 0
 220 593 200 553 200 507 c 2
 200 489 l 1
 444 489 l 1
 444 35 l 2
 444 -74 420 -125 379 -158 c 0
 342 -187 283 -200 236 -200 c 1
 226 -96 l 1
 249 -93 274 -88 290 -70 c 0
 308 -50 312 -15 312 60 c 2
 312 396 l 1
 200 396 l 1
 200 0 l 1xf6
EndSplineSet
Ligature2: "'liga' Standard Ligatures lookup 18 subtable" f j
EndChar

StartChar: f_l
Encoding: 65538 -1 248
Width: 489
Flags: MW
HStem: 0 21G<69 200 69 69 312 312 312 444> 396 93<3 69 3 69 200 271> 597 103<248.5 279.5>
VStem: 69 131<0 396 489 508 508 514> 312 132<0 591 591 591>
LayerCount: 2
Fore
SplineSet
200 0 m 1
 69 0 l 1
 69 396 l 1
 3 396 l 1
 3 489 l 1
 69 489 l 1
 69 508 l 2
 69 544 85 610 129 649 c 0
 162 678 209 700 288 700 c 0
 349 700 409 687 444 674 c 1
 444 0 l 1
 312 0 l 1
 312 591 l 1
 302 595 289 597 270 597 c 0
 219 597 200 557 200 514 c 2
 200 489 l 1
 271 489 l 1
 271 396 l 1
 200 396 l 1
 200 0 l 1
EndSplineSet
Ligature2: "'liga' Standard Ligatures lookup 18 subtable" f l
EndChar

StartChar: ij
Encoding: 307 307 249
Width: 447
Flags: MW
HStem: -200 21G<194 217.5> 0 21G<46 177 46 46> 469 20G<46 177 177 177 270 401 401 401> 548 142<92 128 317 353.5>
VStem: 46 131<0 489> 270 131<60 489>
LayerCount: 2
Fore
SplineSet
177 0 m 1
 46 0 l 1
 46 489 l 1
 177 489 l 1
 177 0 l 1
110 690 m 0
 148 690 177 663 177 619 c 0
 178 577 148 548 108 548 c 0
 72 548 42 577 43 619 c 0
 42 663 74 690 110 690 c 0
194 -200 m 1
 184 -96 l 1
 207 -93 232 -88 248 -70 c 0
 266 -50 270 -15 270 60 c 2
 270 489 l 1
 401 489 l 1
 401 35 l 2
 401 -74 378 -125 336 -158 c 0
 300 -187 241 -200 194 -200 c 1
335 690 m 0
 373 690 402 663 402 619 c 0
 403 577 373 548 334 548 c 0
 297 548 268 577 268 619 c 0
 268 663 299 690 335 690 c 0
EndSplineSet
EndChar

StartChar: zero.slash
Encoding: 63032 63032 250
Width: 426
Flags: MW
HStem: -8 112<200.5 234.5 200.5 265.5> 546 112<193 226.5>
VStem: 23 124<312 400.5 312 415.5> 279 124<250.5 338.5>
LayerCount: 2
Fore
SplineSet
152 247 m 1
 261 501 l 1
 253 528 238 546 215 546 c 0
 171 546 147 476 147 325 c 0
 147 299 149 275 152 247 c 1
274 406 m 1
 165 145 l 1
 174 121 189 104 212 104 c 0
 257 104 279 176 279 325 c 0
 279 352 278 377 274 406 c 1
218 658 m 0
 368 658 403 483 403 328 c 0
 403 95 318 -8 213 -8 c 0
 71 -8 23 155 23 322 c 0
 23 509 83 658 218 658 c 0
EndSplineSet
AlternateSubs2: "'aalt' +BBIEQQQ1 +BDAEOwRMBEIENQRABD0EMARCBDgEMgQ9BEsENQAA +BDIEMARABDgEMAQ9BEIESwAA lookup 1 subtable" zero.fitted zero.oldstyle zero.taboldstyle zero.superior zero.inferior zero.numerator zero.denominator
EndChar

StartChar: Euro
Encoding: 8364 8364 251
Width: 426
Flags: MW
HStem: -8 112<301 323> 238 67<24 70 24 75 24 70 206 206 206 362> 352 68<24 71 24 78 209 362> 546 112<302 330.5> 638 20
VStem: 24 185<238 420 305 420 352 420 420 420> 70 131<305 316 305 317 315 316 305 323> 75 131<238 238>
LayerCount: 2
Fore
SplineSet
392 123 m 1xea
 406 15 l 1
 387 6 345 -8 301 -8 c 0
 245 -8 186 11 142 64 c 0
 109 102 84 158 75 238 c 1xe9
 24 238 l 1
 24 305 l 1
 70 305 l 1
 70 309 70 313 70 317 c 0
 70 329 71 342 71 352 c 1
 24 352 l 1
 24 420 l 1
 78 420 l 1
 86 481 107 528 132 563 c 0
 174 626 234 658 313 658 c 0
 356 658 386 646 405 638 c 1xea
 384 529 l 1
 371 536 343 546 318 546 c 0
 286 546 259 535 239 504 c 0
 226 486 215 459 209 420 c 1xf4
 362 420 l 1
 362 352 l 1
 202 352 l 1
 201 342 201 329 201 316 c 0
 201 312 201 309 201 305 c 1xea
 362 305 l 1
 362 238 l 1
 206 238 l 1
 210 194 221 165 235 145 c 0xe9
 255 114 286 104 316 104 c 0
 343 104 376 115 392 123 c 1xea
EndSplineSet
Substitution2: "'onum' Oldstyle Figures lookup 14 subtable" Euro.taboldstyle
Substitution2: "'aalt' +BBIEQQQ1 +BDAEOwRMBEIENQRABD0EMARCBDgEMgQ9BEsENQAA +BDIEMARABDgEMAQ9BEIESwAA lookup 0 subtable" Euro.taboldstyle
EndChar

StartChar: Aringacute
Encoding: 506 506 252
Width: 458
Flags: MW
HStem: 0 21G<8 135 8 8 315 315 315 442> 154 102<178 274 178 286 165 274> 550 124<227 230 227 227> 689 44<223 251.5 223 272> 807 44<222 251> 868 90<182 423>
VStem: 139 60<762 778.5 762 788> 276 60<761 778.5>
LayerCount: 2
Fore
SplineSet
238 689 m 0
 168 689 139 730 139 768 c 0
 139 808 172 851 239 851 c 0
 309 851 336 812 336 770 c 0
 336 731 306 689 238 689 c 0
237 733 m 0
 266 733 276 752 276 770 c 0
 276 787 266 807 236 807 c 0
 208 807 199 787 199 770 c 0
 199 754 209 733 237 733 c 0
288 958 m 1xe7
 423 958 l 1
 277 868 l 1
 182 868 l 1
 288 958 l 1xe7
286 154 m 1
 165 154 l 1
 135 0 l 1
 8 0 l 1
 154 674 l 1
 311 674 l 1
 442 0 l 1
 315 0 l 1
 286 154 l 1
178 256 m 1
 274 256 l 1
 252 397 l 2
 245 438 236 505 230 550 c 1
 227 550 l 1
 220 505 210 435 203 396 c 2
 178 256 l 1
EndSplineSet
Position2: "'cpsp' +BBgEPQRCBDUEQAQyBDAEOwAA +BD8EQAQ+BD8EOARBBD0ESwRF lookup 0 subtable" dx=10 dy=0 dh=20 dv=0
EndChar

StartChar: estimated
Encoding: 8494 8494 253
Width: 817
Flags: MW
HStem: -11 20<365 458 365 469> 316 19<175.5 641 177 641 641 642.5 177 782> 641 20<365 454>
VStem: 35 137<232 312 338.5 340 340 418> 646 136<316 524>
LayerCount: 2
Fore
SplineSet
782 316 m 2
 177 316 l 2
 174 316 172 315 172 312 c 2
 172 129 l 2
 172 121 176 114 181 108 c 0
 238 47 320 9 410 9 c 0
 506 9 592 52 650 120 c 1
 705 120 l 1
 637 41 529 -11 409 -11 c 0
 203 -11 35 139 35 325 c 0
 35 511 203 661 409 661 c 0
 615 661 782 511 782 325 c 0
 782 322 782 319 782 316 c 2
646 340 m 2
 646 524 l 2
 646 533 642 540 636 546 c 0
 578 604 498 641 410 641 c 0
 320 641 240 603 182 543 c 0
 176 537 172 529 172 520 c 2
 172 340 l 2
 172 337 174 335 177 335 c 2
 641 335 l 2
 644 335 646 337 646 340 c 2
EndSplineSet
EndChar

StartChar: zero.oldstyle
Encoding: 63280 63280 254
Width: 431
Flags: MW
HStem: -8 100<195.5 235.5 195.5 261> 397 100<195 235>
VStem: 29 122<192 298 192 335.5> 280 122<192 298>
LayerCount: 2
Fore
SplineSet
215 -8 m 0
 124 -8 29 63 29 245 c 0
 29 426 124 497 215 497 c 0
 307 497 402 426 402 245 c 0
 402 63 307 -8 215 -8 c 0
215 92 m 0
 256 92 280 139 280 245 c 0
 280 351 255 397 215 397 c 0
 175 397 151 351 151 245 c 0
 151 139 176 92 215 92 c 0
EndSplineSet
Substitution2: "'tnum' Tabular Numbers lookup 17 subtable" zero.taboldstyle
AlternateSubs2: "'aalt' +BBIEQQQ1 +BDAEOwRMBEIENQRABD0EMARCBDgEMgQ9BEsENQAA +BDIEMARABDgEMAQ9BEIESwAA lookup 1 subtable" zero.taboldstyle
EndChar

StartChar: one.oldstyle
Encoding: 63281 63281 255
Width: 321
Flags: MW
HStem: 0 21G<129 258 129 129> 473 20G<155 258 258 258>
VStem: 129 129<0 374 374 374>
LayerCount: 2
Fore
SplineSet
258 0 m 1
 129 0 l 1
 129 374 l 1
 127 374 l 1
 35 323 l 1
 13 421 l 1
 155 493 l 1
 258 493 l 1
 258 0 l 1
EndSplineSet
Substitution2: "'tnum' Tabular Numbers lookup 17 subtable" one.taboldstyle
AlternateSubs2: "'aalt' +BBIEQQQ1 +BDAEOwRMBEIENQRABD0EMARCBDgEMgQ9BEsENQAA +BDIEMARABDgEMAQ9BEIESwAA lookup 1 subtable" one.taboldstyle
EndChar

StartChar: two.oldstyle
Encoding: 63282 63282 256
Width: 365
Flags: MW
HStem: 0 108<263 343 263 343> 391 106<135 145>
VStem: 196 124<297 341.5>
LayerCount: 2
Fore
SplineSet
343 0 m 1
 18 0 l 1
 18 76 l 1
 62 118 l 2
 133 185 196 252 196 317 c 0
 196 366 168 391 122 391 c 0
 93 391 67 380 46 367 c 1
 15 453 l 1
 49 475 105 497 165 497 c 0
 255 497 320 438 320 341 c 0
 320 253 269 193 202 131 c 2
 176 105 l 1
 176 103 l 1
 198 105 241 108 263 108 c 2
 343 108 l 1
 343 0 l 1
EndSplineSet
Substitution2: "'tnum' Tabular Numbers lookup 17 subtable" two.taboldstyle
AlternateSubs2: "'aalt' +BBIEQQQ1 +BDAEOwRMBEIENQRABD0EMARCBDgEMgQ9BEsENQAA +BDIEMARABDgEMAQ9BEIESwAA lookup 1 subtable" two.taboldstyle
EndChar

StartChar: three.oldstyle
Encoding: 63283 63283 257
Width: 357
Flags: MW
HStem: -125 106<88 125 79 167> 150 100 390 107<125.5 146>
VStem: 65.5 145.5 194 122<321 350.5> 205 130<42.5 94>
LayerCount: 2
Fore
SplineSet
16 -113 m 1xe4
 29 -12 l 1
 41 -16 67 -19 91 -19 c 0
 159 -19 205 16 205 69 c 0
 205 119 166 150 106 150 c 0xe4
 92 150 76 150 66 149 c 1
 65 249 l 1xf0
 92 251 l 2
 146 256 194 284 194 331 c 0
 194 370 167 390 125 390 c 0
 95 390 65 382 43 372 c 1
 25 468 l 1
 50 483 98 497 153 497 c 0
 249 497 316 439 316 358 c 0xe8
 316 284 266 232 211 219 c 1
 211 216 l 1xf0
 283 202 335 147 335 68 c 0
 335 -54 225 -125 109 -125 c 0
 67 -125 35 -119 16 -113 c 1xe4
EndSplineSet
Substitution2: "'tnum' Tabular Numbers lookup 17 subtable" three.taboldstyle
AlternateSubs2: "'aalt' +BBIEQQQ1 +BDAEOwRMBEIENQRABD0EMARCBDgEMgQ9BEsENQAA +BDIEMARABDgEMAQ9BEIESwAA lookup 1 subtable" three.taboldstyle
EndChar

StartChar: four.oldstyle
Encoding: 63284 63284 258
Width: 419
Flags: MW
HStem: -118 21G<226 338 226 226> 39 102<122 226 122 226 338 403> 363 128<227 229 227 227> 471 20G<212 338 338 338>
VStem: 12 110<39 144 127 144> 226 112<-118 39 -118 39 141 269 269 284.5>
LayerCount: 2
Fore
SplineSet
403 39 m 1xdc
 338 39 l 1
 338 -118 l 1
 226 -118 l 1
 226 39 l 1
 12 39 l 1
 12 127 l 1
 212 491 l 1
 338 491 l 1
 338 141 l 1
 403 141 l 1
 403 39 l 1xdc
226 141 m 1
 226 269 l 2
 226 300 226 330 229 363 c 1
 227 363 l 1xec
 218 334 199 290 184 261 c 2
 122 144 l 1
 122 141 l 1
 226 141 l 1
EndSplineSet
Substitution2: "'tnum' Tabular Numbers lookup 17 subtable" four.taboldstyle
AlternateSubs2: "'aalt' +BBIEQQQ1 +BDAEOwRMBEIENQRABD0EMARCBDgEMgQ9BEsENQAA +BDIEMARABDgEMAQ9BEIESwAA lookup 1 subtable" four.taboldstyle
EndChar

StartChar: five.oldstyle
Encoding: 63285 63285 259
Width: 361
Flags: MW
HStem: -124 106<87.5 120.5 79 168.5> 378 111<171 318 171 171>
VStem: 204 131<45 90.5>
LayerCount: 2
Fore
SplineSet
21 -112 m 1
 32 -12 l 1
 46 -15 64 -18 94 -18 c 0
 147 -18 204 13 204 77 c 0
 204 104 197 129 178 145 c 0
 151 171 96 182 36 181 c 1
 85 489 l 1
 333 489 l 1
 318 378 l 1
 171 378 l 1
 153 268 l 1
 206 262 256 242 290 209 c 0
 319 180 335 140 335 88 c 0
 335 -41 234 -124 103 -124 c 0
 72 -124 37 -119 21 -112 c 1
EndSplineSet
Substitution2: "'tnum' Tabular Numbers lookup 17 subtable" five.taboldstyle
AlternateSubs2: "'aalt' +BBIEQQQ1 +BDAEOwRMBEIENQRABD0EMARCBDgEMgQ9BEsENQAA +BDIEMARABDgEMAQ9BEIESwAA lookup 1 subtable" five.taboldstyle
EndChar

StartChar: six.oldstyle
Encoding: 63286 63286 260
Width: 432
Flags: MW
HStem: -8 94<203 231.5 203 266.5> 308 92<206 295.5> 516 98<361 371>
VStem: 30 130<161.5 228.5 161.5 339> 272 130<154.5 233.5>
LayerCount: 2
Fore
SplineSet
361 614 m 1
 371 516 l 1
 245 504 188 434 171 358 c 1
 173 358 l 1
 191 382 225 400 259 400 c 0
 332 400 402 335 402 209 c 0
 402 75 316 -8 217 -8 c 0
 119 -8 30 63 30 240 c 0
 30 438 147 602 361 614 c 1
218 86 m 0
 245 86 272 113 272 196 c 0
 272 271 247 308 213 308 c 0
 199 308 186 299 177 287 c 0
 167 274 160 247 160 210 c 0
 160 113 188 86 218 86 c 0
EndSplineSet
Substitution2: "'tnum' Tabular Numbers lookup 17 subtable" six.taboldstyle
AlternateSubs2: "'aalt' +BBIEQQQ1 +BDAEOwRMBEIENQRABD0EMARCBDgEMgQ9BEsENQAA +BDIEMARABDgEMAQ9BEIESwAA lookup 1 subtable" six.taboldstyle
EndChar

StartChar: seven.oldstyle
Encoding: 63287 63287 261
Width: 360
Flags: MW
HStem: -118 21G<126 126> 377 112<17 211 17 342>
VStem: 5 337
LayerCount: 2
Fore
SplineSet
342 489 m 1
 342 415 l 1
 330 350 203 28 126 -118 c 1
 5 -102 l 1
 78 30 183 269 211 375 c 1
 211 377 l 1
 17 377 l 1
 17 489 l 1
 342 489 l 1
EndSplineSet
Substitution2: "'tnum' Tabular Numbers lookup 17 subtable" seven.taboldstyle
AlternateSubs2: "'aalt' +BBIEQQQ1 +BDAEOwRMBEIENQRABD0EMARCBDgEMgQ9BEsENQAA +BDIEMARABDgEMAQ9BEIESwAA lookup 1 subtable" seven.taboldstyle
EndChar

StartChar: eight.oldstyle
Encoding: 63288 63288 262
Width: 440
Flags: MW
HStem: -8 87<201 241 201 268> 535 82
VStem: 31 124<144 190 144 195> 48 121<440 478.5 440 503.5> 276 118<436.5 485> 285 124<136.5 185.5>
LayerCount: 2
Fore
SplineSet
312 327 m 1xe4
 312 323 l 1
 367 291 409 243 409 172 c 0
 409 55 318 -8 218 -8 c 0
 109 -8 31 60 31 161 c 0xe4
 31 229 72 280 126 315 c 1
 126 318 l 1
 75 354 48 401 48 451 c 0
 48 556 131 617 229 617 c 0
 314 617 394 565 394 462 c 0xd8
 394 404 365 360 312 327 c 1xe4
226 535 m 0xd8
 188 536 169 498 169 459 c 0
 169 421 191 388 233 364 c 1
 257 386 276 414 276 459 c 0
 276 511 251 534 226 535 c 0xd8
221 79 m 0xe4
 261 79 285 114 285 159 c 0
 285 212 251 247 209 271 c 1
 177 250 155 214 155 166 c 0
 155 122 181 79 221 79 c 0xe4
EndSplineSet
Substitution2: "'tnum' Tabular Numbers lookup 17 subtable" eight.taboldstyle
AlternateSubs2: "'aalt' +BBIEQQQ1 +BDAEOwRMBEIENQRABD0EMARCBDgEMgQ9BEsENQAA +BDIEMARABDgEMAQ9BEIESwAA lookup 1 subtable" eight.taboldstyle
EndChar

StartChar: nine.oldstyle
Encoding: 63289 63289 263
Width: 432
Flags: MW
HStem: -121 21G<59 59> 93 86<137.5 227> 402 95<200 229>
VStem: 30 129<253.5 335 253.5 350.5> 271 130<258 321>
LayerCount: 2
Fore
SplineSet
59 -121 m 1
 48 -25 l 1
 180 -12 241 49 260 131 c 1
 258 132 l 1
 242 109 213 93 171 93 c 0
 104 93 30 158 30 285 c 0
 30 416 116 497 217 497 c 0
 314 497 401 416 401 256 c 0
 401 37 275 -114 59 -121 c 1
220 179 m 0
 234 179 246 188 255 200 c 0
 264 212 271 239 271 277 c 0
 271 365 245 402 213 402 c 0
 187 402 159 377 159 293 c 0
 159 214 187 179 220 179 c 0
EndSplineSet
Substitution2: "'tnum' Tabular Numbers lookup 17 subtable" nine.taboldstyle
AlternateSubs2: "'aalt' +BBIEQQQ1 +BDAEOwRMBEIENQRABD0EMARCBDgEMgQ9BEsENQAA +BDIEMARABDgEMAQ9BEIESwAA lookup 1 subtable" nine.taboldstyle
EndChar

StartChar: percent.oldstyle
Encoding: 63042 63042 264
Width: 678
Flags: MW
HStem: -6 70<516.5 547 516.5 564.5> 219 70<133.5 164.5 133.5 182> 323 69<516.5 547> 548 69<134.5 165>
VStem: 18 88<419 459.5 419 468.5> 190 88<377 455.5> 400 88<194 235 194 243.5> 572 88<152.5 231>
LayerCount: 2
Fore
SplineSet
150 617 m 0
 247 617 278 510 278 421 c 0
 278 283 215 219 149 219 c 0
 58 219 18 318 18 416 c 0
 18 521 65 617 150 617 c 0
149 548 m 0
 120 548 106 500 106 419 c 0
 105 335 118 289 149 289 c 0
 180 289 190 337 190 417 c 0
 190 494 181 548 149 548 c 0
208 -10 m 1
 140 -10 l 1
 469 619 l 1
 537 619 l 1
 208 -10 l 1
532 392 m 0
 629 392 660 285 660 196 c 0
 660 58 597 -6 532 -6 c 0
 440 -6 400 94 400 191 c 0
 400 296 447 392 532 392 c 0
531 323 m 0
 502 323 488 276 488 194 c 0
 487 110 501 64 532 64 c 0
 562 64 572 112 572 193 c 0
 572 269 563 323 531 323 c 0
EndSplineSet
Substitution2: "'lnum' Lining Figures lookup 15 subtable" percent
Substitution2: "'aalt' +BBIEQQQ1 +BDAEOwRMBEIENQRABD0EMARCBDgEMgQ9BEsENQAA +BDIEMARABDgEMAQ9BEIESwAA lookup 0 subtable" percent
EndChar

StartChar: zero.fitted
Encoding: 63033 63033 265
Width: 426
Flags: MW
HStem: -8 112<194 236.5 194 265.5> 546 112<195.5 237>
VStem: 23 132 271 132<250.5 394.5>
LayerCount: 2
Fore
SplineSet
218 658 m 0
 368 658 403 483 403 328 c 0
 403 95 318 -8 213 -8 c 0
 71 -8 23 155 23 322 c 0
 23 509 83 658 218 658 c 0
216 546 m 0
 175 546 154 476 155 325 c 0
 153 173 172 104 216 104 c 0
 257 104 271 176 271 325 c 0
 271 464 258 546 216 546 c 0
EndSplineSet
Substitution2: "'zero' Slashed Zero lookup 19 subtable" zero.slashfitted
Substitution2: "'tnum' Tabular Numbers lookup 17 subtable" zero
AlternateSubs2: "'aalt' +BBIEQQQ1 +BDAEOwRMBEIENQRABD0EMARCBDgEMgQ9BEsENQAA +BDIEMARABDgEMAQ9BEIESwAA lookup 1 subtable" zero zero.slashfitted
EndChar

StartChar: one.fitted
Encoding: 63196 63196 266
Width: 317
Flags: MW
HStem: 0 21G<130 130 130 259> 630 20G<145 259 259 259>
VStem: 130 129<0 527 527 527>
LayerCount: 2
Fore
SplineSet
130 0 m 1
 130 527 l 1
 128 527 l 1
 18 470 l 1
 -4 573 l 1
 145 650 l 1
 259 650 l 1
 259 0 l 1
 130 0 l 1
EndSplineSet
Substitution2: "'tnum' Tabular Numbers lookup 17 subtable" one
AlternateSubs2: "'aalt' +BBIEQQQ1 +BDAEOwRMBEIENQRABD0EMARCBDgEMgQ9BEsENQAA +BDIEMARABDgEMAQ9BEIESwAA lookup 1 subtable" one
EndChar

StartChar: two.fitted
Encoding: 63034 63034 267
Width: 376
Flags: MW
HStem: 0 115<157 355 157 355> 549 109<128.5 161.5>
VStem: 218 129<413.5 486>
LayerCount: 2
Fore
SplineSet
355 0 m 1
 0 0 l 1
 0 88 l 1
 65 171 l 2
 149 278 218 367 218 460 c 0
 218 512 188 549 135 549 c 0
 94 549 61 531 37 516 c 1
 14 618 l 1
 44 637 99 658 158 658 c 0
 300 658 347 563 347 470 c 0
 347 348 270 250 196 163 c 2
 157 117 l 1
 157 115 l 1
 355 115 l 1
 355 0 l 1
EndSplineSet
Substitution2: "'tnum' Tabular Numbers lookup 17 subtable" two
AlternateSubs2: "'aalt' +BBIEQQQ1 +BDAEOwRMBEIENQRABD0EMARCBDgEMgQ9BEsENQAA +BDIEMARABDgEMAQ9BEIESwAA lookup 1 subtable" two
EndChar

StartChar: three.fitted
Encoding: 63035 63035 268
Width: 361
Flags: MW
HStem: -8 107<96.5 142 93 193.5> 296 96<69 82 69 87 69 82> 551 107<123.5 139>
VStem: 192 130<468.5 499.5> 209 131<165.5 229>
LayerCount: 2
Fore
SplineSet
-5 21 m 1xe8
 14 124 l 1
 39 109 76 99 110 99 c 0
 174 99 209 138 209 193 c 0xe8
 209 265 153 296 87 296 c 2
 69 296 l 1
 69 392 l 1
 82 392 l 2
 130 393 192 413 192 476 c 0
 192 523 162 551 116 551 c 0
 87 551 58 540 34 525 c 1
 17 624 l 1
 44 641 97 658 150 658 c 0
 265 658 322 584 322 501 c 0xf0
 322 436 286 382 229 355 c 1
 229 353 l 1
 292 332 340 276 340 188 c 0
 340 89 264 -8 123 -8 c 0
 70 -8 24 5 -5 21 c 1xe8
EndSplineSet
Substitution2: "'tnum' Tabular Numbers lookup 17 subtable" three
AlternateSubs2: "'aalt' +BBIEQQQ1 +BDAEOwRMBEIENQRABD0EMARCBDgEMgQ9BEsENQAA +BDIEMARABDgEMAQ9BEIESwAA lookup 1 subtable" three
EndChar

StartChar: four.fitted
Encoding: 63036 63036 269
Width: 418
Flags: MW
HStem: 0 21G<229 345 229 229> 155 105<117 229 117 229 345 409> 500 150<232 235 232 232> 630 20G<218 345 345 345>
VStem: 6 111<155 260 245 260> 229 116<0 155 260 393 393 410.5>
LayerCount: 2
Fore
SplineSet
345 0 m 1xdc
 229 0 l 1
 229 155 l 1
 6 155 l 1
 6 245 l 1
 218 650 l 1
 345 650 l 1
 345 260 l 1
 409 260 l 1
 409 155 l 1
 345 155 l 1
 345 0 l 1xdc
117 260 m 1
 229 260 l 1
 229 393 l 2
 229 428 232 466 235 500 c 1
 232 500 l 1xec
 217 464 204 435 186 399 c 2
 117 262 l 1
 117 260 l 1
EndSplineSet
Substitution2: "'tnum' Tabular Numbers lookup 17 subtable" four
AlternateSubs2: "'aalt' +BBIEQQQ1 +BDAEOwRMBEIENQRABD0EMARCBDgEMgQ9BEsENQAA +BDIEMARABDgEMAQ9BEIESwAA lookup 1 subtable" four
EndChar

StartChar: five.fitted
Encoding: 63037 63037 270
Width: 373
Flags: MW
HStem: -8 107<99.5 145.5 95.5 194> 326 94<70 170> 536 114<165 338 165 165>
VStem: 220 129<175 253.5>
LayerCount: 2
Fore
SplineSet
338 650 m 1
 338 536 l 1
 165 536 l 1
 150 420 l 1
 157 420 163 420 170 420 c 0
 198 419 255 406 293 371 c 0
 329 336 349 287 349 222 c 0
 349 95 265 -8 123 -8 c 0
 76 -8 27 4 1 18 c 1
 21 122 l 1
 45 110 78 99 113 99 c 0
 178 99 220 140 220 210 c 0
 220 297 154 326 79 326 c 0
 61 326 46 326 32 324 c 1
 69 650 l 1
 338 650 l 1
EndSplineSet
Substitution2: "'tnum' Tabular Numbers lookup 17 subtable" five
AlternateSubs2: "'aalt' +BBIEQQQ1 +BDAEOwRMBEIENQRABD0EMARCBDgEMgQ9BEsENQAA +BDIEMARABDgEMAQ9BEIESwAA lookup 1 subtable" five
EndChar

StartChar: six.fitted
Encoding: 63038 63038 271
Width: 426
Flags: MW
HStem: -8 95<199.5 241 199.5 284.5> 330 94<205.5 303> 638 20G<355 355>
VStem: 23 133<186.5 244 186.5 331> 277 129<184 223>
LayerCount: 2
Fore
SplineSet
355 658 m 1
 355 552 l 1
 339 551 321 549 301 545 c 0
 215 526 172 454 156 372 c 1
 159 372 l 1
 182 403 216 424 259 424 c 0
 347 424 406 345 406 222 c 0
 406 108 348 -8 221 -8 c 0
 98 -8 23 99 23 260 c 0
 23 402 70 499 130 563 c 0
 172 610 235 641 289 651 c 0
 320 657 341 657 355 658 c 1
219 87 m 0
 263 87 277 145 277 223 c 0
 276 278 258 330 216 330 c 0
 195 330 175 316 163 286 c 0
 159 279 156 259 156 229 c 0
 156 144 180 87 219 87 c 0
EndSplineSet
Substitution2: "'tnum' Tabular Numbers lookup 17 subtable" six
AlternateSubs2: "'aalt' +BBIEQQQ1 +BDAEOwRMBEIENQRABD0EMARCBDgEMgQ9BEsENQAA +BDIEMARABDgEMAQ9BEIESwAA lookup 1 subtable" six
EndChar

StartChar: seven.fitted
Encoding: 63039 63039 272
Width: 352
Flags: MW
HStem: 0 21G<22 150 22 22> 535 115<0 221 0 354>
VStem: 0 354<564 650 564 650 564 650>
LayerCount: 2
Fore
SplineSet
0 650 m 1
 354 650 l 1
 354 564 l 1
 150 0 l 1
 22 0 l 1
 221 533 l 1
 221 535 l 1
 0 535 l 1
 0 650 l 1
EndSplineSet
Substitution2: "'tnum' Tabular Numbers lookup 17 subtable" seven
AlternateSubs2: "'aalt' +BBIEQQQ1 +BDAEOwRMBEIENQRABD0EMARCBDgEMgQ9BEsENQAA +BDIEMARABDgEMAQ9BEIESwAA lookup 1 subtable" seven
EndChar

StartChar: eight.fitted
Encoding: 63040 63040 273
Width: 426
Flags: MW
HStem: -8 88<192.5 235.5 192.5 263.5> 570 88<198 236>
VStem: 20 127<156 209 156 209.5> 38 123<468 511 468 540> 270 120<476.5 508> 278 127<149.5 207.5>
LayerCount: 2
Fore
SplineSet
210 -8 m 0xe4
 99 -8 20 63 20 169 c 0xe4
 20 250 65 308 118 342 c 1
 118 344 l 1
 63 380 38 436 38 487 c 0
 38 593 122 658 222 658 c 0
 315 658 390 595 390 498 c 0xd8
 390 455 373 397 305 354 c 1
 305 352 l 1
 365 319 405 259 405 182 c 0
 405 62 317 -8 210 -8 c 0xe4
215 80 m 0
 256 80 278 122 278 177 c 0
 278 238 240 278 203 297 c 1
 170 274 147 234 147 184 c 0
 147 128 170 80 215 80 c 0
217 570 m 0xd8
 179 570 161 531 161 491 c 0
 161 445 187 413 225 393 c 1
 253 408 270 448 270 486 c 0
 270 530 255 570 217 570 c 0xd8
EndSplineSet
Substitution2: "'tnum' Tabular Numbers lookup 17 subtable" eight
AlternateSubs2: "'aalt' +BBIEQQQ1 +BDAEOwRMBEIENQRABD0EMARCBDgEMgQ9BEsENQAA +BDIEMARABDgEMAQ9BEIESwAA lookup 1 subtable" eight
EndChar

StartChar: nine.fitted
Encoding: 63041 63041 274
Width: 426
Flags: MW
HStem: -8 109<74 84> 236 90<194 198> 563 95<194 228.5>
VStem: 24 129 270 132<276 469.5 407.5 469.5 317.5 472>
LayerCount: 2
Fore
SplineSet
74 -8 m 1
 74 101 l 1
 99 101 112 102 134 106 c 0
 159 111 188 124 210 145 c 0
 238 172 262 218 273 276 c 1
 270 276 l 1
 249 253 219 236 177 236 c 0
 93 236 24 311 24 430 c 0
 24 542 93 658 218 658 c 0
 339 658 402 548 402 391 c 0
 402 244 355 141 295 77 c 0
 255 34 198 5 135 -5 c 0
 114 -8 94 -8 74 -8 c 1
211 563 m 0
 177 563 152 520 153 441 c 0
 154 378 174 326 214 326 c 0
 237 326 257 343 264 360 c 0
 269 373 270 386 270 429 c 0
 270 515 246 563 211 563 c 0
EndSplineSet
Substitution2: "'tnum' Tabular Numbers lookup 17 subtable" nine
AlternateSubs2: "'aalt' +BBIEQQQ1 +BDAEOwRMBEIENQRABD0EMARCBDgEMgQ9BEsENQAA +BDIEMARABDgEMAQ9BEIESwAA lookup 1 subtable" nine
EndChar

StartChar: zero.slashfitted
Encoding: 57352 57352 275
Width: 426
Flags: MW
HStem: -8 112<200.5 234.5 200.5 265.5> 546 112<193 226.5>
VStem: 23 124<312 400.5 312 415.5> 279 124<250.5 338.5>
LayerCount: 2
Fore
SplineSet
152 247 m 1
 261 501 l 1
 253 528 238 546 215 546 c 0
 171 546 147 476 147 325 c 0
 147 299 149 275 152 247 c 1
274 406 m 1
 165 145 l 1
 174 121 189 104 212 104 c 0
 257 104 279 176 279 325 c 0
 279 352 278 377 274 406 c 1
218 658 m 0
 368 658 403 483 403 328 c 0
 403 95 318 -8 213 -8 c 0
 71 -8 23 155 23 322 c 0
 23 509 83 658 218 658 c 0
EndSplineSet
AlternateSubs2: "'aalt' +BBIEQQQ1 +BDAEOwRMBEIENQRABD0EMARCBDgEMgQ9BEsENQAA +BDIEMARABDgEMAQ9BEIESwAA lookup 1 subtable" zero.fitted zero.oldstyle zero.taboldstyle zero.superior zero.inferior zero.numerator zero.denominator
EndChar

StartChar: zero.taboldstyle
Encoding: 63043 63043 276
Width: 431
Flags: MW
HStem: -8 100<195.5 235.5 195.5 261> 397 100<195 235>
VStem: 29 122<192 298 192 335.5> 280 122<192 298>
LayerCount: 2
Fore
SplineSet
215 -8 m 0
 124 -8 29 63 29 245 c 0
 29 426 124 497 215 497 c 0
 307 497 402 426 402 245 c 0
 402 63 307 -8 215 -8 c 0
215 92 m 0
 256 92 280 139 280 245 c 0
 280 351 255 397 215 397 c 0
 175 397 151 351 151 245 c 0
 151 139 176 92 215 92 c 0
EndSplineSet
Substitution2: "'pnum' Proportional Numbers lookup 16 subtable" zero.oldstyle
Substitution2: "'lnum' Lining Figures lookup 15 subtable" zero
AlternateSubs2: "'aalt' +BBIEQQQ1 +BDAEOwRMBEIENQRABD0EMARCBDgEMgQ9BEsENQAA +BDIEMARABDgEMAQ9BEIESwAA lookup 1 subtable" zero zero.oldstyle
EndChar

StartChar: one.taboldstyle
Encoding: 63044 63044 277
Width: 431
Flags: MW
HStem: 0 21G<193 323 193 193> 473 20G<220 323 323 323>
VStem: 193 130<0 379 379 379>
LayerCount: 2
Fore
SplineSet
323 0 m 1
 193 0 l 1
 193 379 l 1
 191 379 l 1
 55 319 l 1
 36 417 l 1
 220 493 l 1
 323 493 l 1
 323 0 l 1
EndSplineSet
Substitution2: "'pnum' Proportional Numbers lookup 16 subtable" one.oldstyle
Substitution2: "'lnum' Lining Figures lookup 15 subtable" one
AlternateSubs2: "'aalt' +BBIEQQQ1 +BDAEOwRMBEIENQRABD0EMARCBDgEMgQ9BEsENQAA +BDIEMARABDgEMAQ9BEIESwAA lookup 1 subtable" one one.oldstyle
EndChar

StartChar: two.taboldstyle
Encoding: 63045 63045 278
Width: 431
Flags: MW
HStem: 0 108<296 375 296 375> 391 106<167 177>
VStem: 229 123<297 341.5>
LayerCount: 2
Fore
SplineSet
375 0 m 1
 50 0 l 1
 50 76 l 1
 95 118 l 2
 165 185 229 252 229 317 c 0
 229 366 200 391 154 391 c 0
 126 391 99 380 78 367 c 1
 48 453 l 1
 82 475 137 497 197 497 c 0
 288 497 352 438 352 341 c 0
 352 253 302 193 234 131 c 1
 208 105 l 1
 208 103 l 1
 231 105 273 108 296 108 c 2
 375 108 l 1
 375 0 l 1
EndSplineSet
Substitution2: "'pnum' Proportional Numbers lookup 16 subtable" two.oldstyle
Substitution2: "'lnum' Lining Figures lookup 15 subtable" two
AlternateSubs2: "'aalt' +BBIEQQQ1 +BDAEOwRMBEIENQRABD0EMARCBDgEMgQ9BEsENQAA +BDIEMARABDgEMAQ9BEIESwAA lookup 1 subtable" two two.oldstyle
EndChar

StartChar: three.taboldstyle
Encoding: 63046 63046 279
Width: 431
Flags: MW
HStem: -125 106<123 160 114 202> 150 100 390 107<160.5 181.5>
VStem: 100.5 145.5 229 122<321 350.5> 240 130<42.5 94>
LayerCount: 2
Fore
SplineSet
51 -113 m 1xe4
 64 -12 l 1
 76 -16 102 -19 126 -19 c 0
 194 -19 240 16 240 69 c 0
 240 119 201 150 141 150 c 0xe4
 128 150 111 150 101 149 c 1
 100 249 l 1xf0
 128 251 l 2
 182 256 229 284 229 331 c 0
 229 370 202 390 161 390 c 0
 130 390 100 382 79 372 c 1
 60 468 l 1
 85 483 133 497 188 497 c 0
 285 497 351 439 351 358 c 0xe8
 351 284 302 232 246 219 c 1
 246 216 l 1xf0
 318 202 370 147 370 68 c 0
 370 -54 260 -125 144 -125 c 0
 102 -125 70 -119 51 -113 c 1xe4
EndSplineSet
Substitution2: "'pnum' Proportional Numbers lookup 16 subtable" three.oldstyle
Substitution2: "'lnum' Lining Figures lookup 15 subtable" three
AlternateSubs2: "'aalt' +BBIEQQQ1 +BDAEOwRMBEIENQRABD0EMARCBDgEMgQ9BEsENQAA +BDIEMARABDgEMAQ9BEIESwAA lookup 1 subtable" three three.oldstyle
EndChar

StartChar: four.taboldstyle
Encoding: 63047 63047 280
Width: 431
Flags: MW
HStem: -118 21G<232 344 232 232> 39 102<128 232 128 232 344 409> 363 128<233 236 233 233> 471 20G<218 344 344 344>
VStem: 18 110<39 144 127 144> 232 112<-118 39 -118 39 141 269 269 284.5>
LayerCount: 2
Fore
SplineSet
409 39 m 1xdc
 344 39 l 1
 344 -118 l 1
 232 -118 l 1
 232 39 l 1
 18 39 l 1
 18 127 l 1
 218 491 l 1
 344 491 l 1
 344 141 l 1
 409 141 l 1
 409 39 l 1xdc
232 141 m 1
 232 269 l 2
 232 300 232 330 236 363 c 1
 233 363 l 1xec
 224 334 205 290 190 261 c 2
 128 144 l 1
 128 141 l 1
 232 141 l 1
EndSplineSet
Substitution2: "'pnum' Proportional Numbers lookup 16 subtable" four.oldstyle
Substitution2: "'lnum' Lining Figures lookup 15 subtable" four
AlternateSubs2: "'aalt' +BBIEQQQ1 +BDAEOwRMBEIENQRABD0EMARCBDgEMgQ9BEsENQAA +BDIEMARABDgEMAQ9BEIESwAA lookup 1 subtable" four four.oldstyle
EndChar

StartChar: five.taboldstyle
Encoding: 63048 63048 281
Width: 431
Flags: MW
HStem: -124 106<118.5 151.5 110 199> 378 111<202 349 202 202>
VStem: 235 131<45 90.5>
LayerCount: 2
Fore
SplineSet
51 -112 m 1
 63 -12 l 1
 77 -15 95 -18 125 -18 c 0
 178 -18 235 13 235 77 c 0
 235 104 227 129 209 145 c 0
 182 171 126 182 67 181 c 1
 116 489 l 1
 364 489 l 1
 349 378 l 1
 202 378 l 1
 183 268 l 1
 237 262 287 242 321 209 c 0
 350 180 366 140 366 88 c 0
 366 -41 264 -124 134 -124 c 0
 103 -124 68 -119 51 -112 c 1
EndSplineSet
Substitution2: "'pnum' Proportional Numbers lookup 16 subtable" five.oldstyle
Substitution2: "'lnum' Lining Figures lookup 15 subtable" five
AlternateSubs2: "'aalt' +BBIEQQQ1 +BDAEOwRMBEIENQRABD0EMARCBDgEMgQ9BEsENQAA +BDIEMARABDgEMAQ9BEIESwAA lookup 1 subtable" five five.oldstyle
EndChar

StartChar: six.taboldstyle
Encoding: 63049 63049 282
Width: 431
Flags: MW
HStem: -8 94<204 232.5 204 266.5> 308 92<206.5 296.5> 516 98<361 372>
VStem: 31 130<161.5 228.5 161.5 339> 273 130<154.5 233.5>
LayerCount: 2
Fore
SplineSet
361 614 m 1
 372 516 l 1
 245 504 188 434 172 358 c 1
 174 358 l 1
 191 382 226 400 260 400 c 0
 333 400 403 335 403 209 c 0
 403 75 316 -8 217 -8 c 0
 119 -8 31 63 31 240 c 0
 31 438 148 602 361 614 c 1
219 86 m 0
 246 86 273 113 273 196 c 0
 273 271 248 308 214 308 c 0
 199 308 187 299 177 287 c 0
 167 274 161 247 161 210 c 0
 161 113 189 86 219 86 c 0
EndSplineSet
Substitution2: "'pnum' Proportional Numbers lookup 16 subtable" six.oldstyle
Substitution2: "'lnum' Lining Figures lookup 15 subtable" six
AlternateSubs2: "'aalt' +BBIEQQQ1 +BDAEOwRMBEIENQRABD0EMARCBDgEMgQ9BEsENQAA +BDIEMARABDgEMAQ9BEIESwAA lookup 1 subtable" six six.oldstyle
EndChar

StartChar: seven.taboldstyle
Encoding: 63050 63050 283
Width: 431
Flags: MW
HStem: -118 21G<164 164> 377 112<54 249 54 380>
VStem: 43 337
LayerCount: 2
Fore
SplineSet
380 489 m 1
 380 415 l 1
 367 350 240 28 164 -118 c 1
 43 -102 l 1
 116 30 221 269 249 375 c 1
 249 377 l 1
 54 377 l 1
 54 489 l 1
 380 489 l 1
EndSplineSet
Substitution2: "'pnum' Proportional Numbers lookup 16 subtable" seven.oldstyle
Substitution2: "'lnum' Lining Figures lookup 15 subtable" seven
AlternateSubs2: "'aalt' +BBIEQQQ1 +BDAEOwRMBEIENQRABD0EMARCBDgEMgQ9BEsENQAA +BDIEMARABDgEMAQ9BEIESwAA lookup 1 subtable" seven seven.oldstyle
EndChar

StartChar: eight.taboldstyle
Encoding: 63051 63051 284
Width: 431
Flags: MW
HStem: -8 87<194.5 234.5 194.5 261> 535 82
VStem: 25 124<144 190 144 195> 42 120<440 478.5 440 503.5> 270 117<436.5 485> 278 124<136.5 185.5>
LayerCount: 2
Fore
SplineSet
306 327 m 1xe4
 306 323 l 1
 360 291 402 243 402 172 c 0
 402 55 311 -8 211 -8 c 0
 102 -8 25 60 25 161 c 0xe4
 25 229 66 280 119 315 c 1
 119 318 l 1
 68 354 42 401 42 451 c 0
 42 556 124 617 223 617 c 0
 308 617 387 565 387 462 c 0xd8
 387 404 359 360 306 327 c 1xe4
219 535 m 0xd8
 182 536 162 498 162 459 c 0
 162 421 184 388 227 364 c 1
 251 386 270 414 270 459 c 0
 270 511 244 534 219 535 c 0xd8
215 79 m 0xe4
 254 79 278 114 278 159 c 0
 278 212 244 247 202 271 c 1
 171 250 149 214 149 166 c 0
 149 122 174 79 215 79 c 0xe4
EndSplineSet
Substitution2: "'pnum' Proportional Numbers lookup 16 subtable" eight.oldstyle
Substitution2: "'lnum' Lining Figures lookup 15 subtable" eight
AlternateSubs2: "'aalt' +BBIEQQQ1 +BDAEOwRMBEIENQRABD0EMARCBDgEMgQ9BEsENQAA +BDIEMARABDgEMAQ9BEIESwAA lookup 1 subtable" eight eight.oldstyle
EndChar

StartChar: nine.taboldstyle
Encoding: 63052 63052 285
Width: 431
Flags: MW
HStem: -121 21G<59 59> 93 86<137.5 227> 402 95<200 229>
VStem: 30 128<253.5 335 253.5 350.5> 271 129<258 321>
LayerCount: 2
Fore
SplineSet
59 -121 m 1
 48 -25 l 1
 180 -12 241 49 260 131 c 1
 258 132 l 1
 242 109 213 93 171 93 c 0
 104 93 30 158 30 285 c 0
 30 416 116 497 217 497 c 0
 314 497 400 416 400 256 c 0
 400 37 275 -114 59 -121 c 1
220 179 m 0
 234 179 246 188 255 200 c 0
 264 212 271 239 271 277 c 0
 271 365 245 402 213 402 c 0
 187 402 158 377 158 293 c 0
 158 214 186 179 220 179 c 0
EndSplineSet
Substitution2: "'pnum' Proportional Numbers lookup 16 subtable" nine.oldstyle
Substitution2: "'lnum' Lining Figures lookup 15 subtable" nine
AlternateSubs2: "'aalt' +BBIEQQQ1 +BDAEOwRMBEIENQRABD0EMARCBDgEMgQ9BEsENQAA +BDIEMARABDgEMAQ9BEIESwAA lookup 1 subtable" nine nine.oldstyle
EndChar

StartChar: dollar.taboldstyle
Encoding: 63059 63059 286
Width: 431
Flags: MW
HStem: -70 168<166.5 204.5 166.5 248 164 204.5> 394 171<226.5 262 178 265.5>
VStem: 58 122<344 366 344 381> 164 84<-70 4 4 4> 178 84<489 565 489 565 489 565> 254 122<128 154.5>
LayerCount: 2
Fore
SplineSet
248 -70 m 1xd0
 164 -70 l 1
 164 4 l 1xd0
 121 6 82 17 56 30 c 1
 76 123 l 1
 104 109 151 98 182 98 c 0
 227 98 254 114 254 142 c 0
 254 167 236 184 173 213 c 0
 91 252 58 290 58 352 c 0xe4
 58 410 102 461 178 481 c 1
 178 565 l 1
 262 565 l 1
 262 489 l 1
 305 488 333 478 358 467 c 1
 333 375 l 1xc8
 311 386 282 394 249 394 c 0
 204 394 180 377 180 355 c 0
 180 333 193 320 265 290 c 0
 339 258 376 211 376 150 c 0xe4
 376 77 324 26 248 10 c 1
 248 -70 l 1xd0
EndSplineSet
Substitution2: "'lnum' Lining Figures lookup 15 subtable" dollar
AlternateSubs2: "'aalt' +BBIEQQQ1 +BDAEOwRMBEIENQRABD0EMARCBDgEMgQ9BEsENQAA +BDIEMARABDgEMAQ9BEIESwAA lookup 1 subtable" dollar
EndChar

StartChar: cent.taboldstyle
Encoding: 63060 63060 287
Width: 431
Flags: MW
HStem: -14 156<233.5 273 197 274.5> 376 156<229 269.5>
VStem: 51 118<220.5 294 220.5 310.5> 197 76<-14 53 -14 56 -14 56 468 532>
LayerCount: 2
Fore
SplineSet
332 155 m 1
 342 66 l 1
 328 60 303 54 273 53 c 1
 273 -14 l 1
 197 -14 l 1
 197 56 l 1xd0
 99 76 51 158 51 257 c 0xf0
 51 364 111 440 197 462 c 1
 197 532 l 1
 273 532 l 1
 273 468 l 1
 299 466 322 460 337 453 c 1
 322 363 l 1xd0
 306 370 284 376 255 376 c 0
 203 376 169 331 169 257 c 0
 169 184 207 142 260 142 c 0xf0
 289 142 311 147 332 155 c 1
EndSplineSet
Substitution2: "'lnum' Lining Figures lookup 15 subtable" cent
AlternateSubs2: "'aalt' +BBIEQQQ1 +BDAEOwRMBEIENQRABD0EMARCBDgEMgQ9BEsENQAA +BDIEMARABDgEMAQ9BEIESwAA lookup 1 subtable" cent
EndChar

